{"glyphs":{"0":{"ha":829,"x_min":81,"x_max":749,"o":"m 406 -11 q 234 41 307 -11 q 121 186 161 93 q 81 404 81 279 q 123 632 81 533 q 242 786 165 731 q 419 842 318 842 q 592 790 518 842 q 708 644 667 738 q 749 425 749 550 q 706 199 749 297 q 587 44 664 100 q 406 -11 510 -11 m 413 67 q 526 110 478 67 q 603 233 575 154 q 631 419 631 313 q 572 666 631 575 q 410 757 513 757 q 333 744 371 757 q 267 703 296 731 q 199 406 199 563 q 225 228 199 304 q 300 109 251 151 q 413 67 349 67 z "},"1":{"ha":528,"x_min":35,"x_max":522,"o":"m 35 0 l 35 39 q 221 71 129 63 l 233 749 l 44 749 l 44 788 l 274 842 l 344 842 l 344 71 l 522 44 l 522 0 l 35 0 z "},"2":{"ha":790,"x_min":93,"x_max":697,"o":"m 93 0 l 94 92 q 128 203 94 153 q 215 299 163 254 q 325 387 267 344 q 435 472 383 429 q 519 559 486 514 q 553 656 553 604 q 528 736 553 703 q 371 750 449 750 q 213 739 292 750 l 167 529 l 124 529 l 119 811 q 375 843 263 843 q 589 796 511 843 q 667 657 667 749 q 633 541 667 593 q 548 443 600 489 q 438 355 496 397 q 327 271 379 313 q 242 185 275 229 q 207 92 208 142 l 207 78 l 604 88 l 651 275 l 694 275 l 697 0 l 93 0 z "},"3":{"ha":769,"x_min":107,"x_max":682,"o":"m 114 275 l 158 275 l 208 88 q 343 72 285 72 q 504 113 446 72 q 563 231 563 154 q 512 347 563 304 q 369 390 461 390 l 269 390 l 269 472 l 343 472 q 489 515 432 472 q 546 632 546 558 q 533 694 546 665 q 497 747 519 722 q 374 761 446 761 q 224 747 303 761 l 175 561 l 131 561 l 124 808 q 256 837 193 828 q 375 846 319 846 q 586 794 510 846 q 663 650 663 743 q 615 520 663 576 q 479 439 567 464 q 630 364 578 418 q 682 225 682 310 q 591 50 682 113 q 353 -12 500 -12 q 107 26 240 -12 l 114 275 z "},"4":{"ha":739,"x_min":19,"x_max":700,"o":"m 268 0 l 268 36 q 342 56 306 49 q 414 68 378 63 l 417 232 l 35 232 l 19 286 l 422 829 l 528 829 l 528 303 l 700 303 l 700 232 l 528 232 l 528 67 l 661 40 l 661 0 l 268 0 m 118 303 l 418 303 l 425 718 l 118 303 z "},"5":{"ha":793,"x_min":122,"x_max":700,"o":"m 365 -12 q 122 25 250 -12 l 129 267 l 172 267 l 224 89 q 372 74 306 74 q 549 101 465 74 q 579 167 569 135 q 589 229 589 200 q 542 348 589 301 q 408 394 494 394 l 144 394 l 144 829 l 664 829 l 658 574 l 617 574 l 571 743 l 232 747 l 229 479 l 418 479 q 626 418 551 479 q 700 247 700 357 q 611 57 700 126 q 365 -12 522 -12 z "},"6":{"ha":782,"x_min":90,"x_max":685,"o":"m 394 -11 q 164 85 238 -11 q 90 385 90 181 q 185 731 90 617 q 475 846 281 846 q 560 841 515 846 q 657 825 606 836 l 651 583 l 610 583 l 567 750 q 436 763 504 763 q 275 738 356 763 q 229 622 247 688 q 204 478 211 556 l 413 478 q 615 418 544 478 q 685 247 685 358 q 606 58 685 128 q 394 -11 528 -11 m 200 382 q 247 146 200 219 q 399 72 294 72 q 528 118 482 72 q 574 246 574 164 q 399 397 574 397 l 200 397 q 200 382 200 389 z "},"7":{"ha":675,"x_min":53,"x_max":651,"o":"m 58 532 l 53 829 l 651 829 l 651 796 l 299 0 l 197 0 l 529 742 l 144 736 l 101 532 l 58 532 z "},"8":{"ha":774,"x_min":83,"x_max":694,"o":"m 381 -14 q 227 14 294 -14 q 122 91 160 42 q 83 206 83 140 q 128 332 83 275 q 256 426 172 389 q 149 510 193 463 q 106 626 106 558 q 143 740 106 690 q 246 819 181 790 q 396 849 311 849 q 536 823 475 849 q 632 752 597 797 q 667 647 667 707 q 626 522 667 581 q 510 424 585 464 q 601 369 560 399 q 669 300 643 339 q 694 211 694 261 q 653 97 694 147 q 542 16 613 46 q 381 -14 471 -14 m 210 647 q 246 567 210 601 q 338 506 282 533 q 456 449 394 478 q 571 629 571 531 q 522 733 571 697 q 386 769 474 769 q 281 758 336 769 q 229 710 249 740 q 210 647 210 681 m 181 222 q 240 107 181 149 q 400 65 299 65 q 510 76 450 65 q 571 128 549 97 q 593 192 593 160 q 567 256 593 228 q 499 307 542 283 q 406 353 457 331 q 306 400 356 375 q 181 222 181 326 z "},"9":{"ha":781,"x_min":96,"x_max":692,"o":"m 171 251 l 214 85 q 347 72 278 72 q 506 97 428 72 q 576 357 563 199 l 368 357 q 166 417 236 357 q 96 588 96 476 q 174 776 96 707 q 388 846 253 846 q 617 751 543 846 q 692 450 692 656 q 597 103 692 218 q 307 -11 501 -11 q 220 -6 265 -11 q 125 10 175 0 l 129 251 l 171 251 m 382 439 l 582 439 q 582 454 582 446 q 534 689 582 615 q 382 763 486 763 q 253 717 300 763 q 207 589 207 671 q 382 439 207 439 z "},"A":{"ha":972,"x_min":14,"x_max":958,"o":"m 861 65 q 910 53 886 60 q 958 40 935 47 l 958 0 l 588 0 l 588 40 l 729 67 l 650 296 l 283 296 l 203 71 q 285 58 244 65 q 367 40 326 50 l 367 0 l 14 0 l 14 40 l 108 72 l 419 900 l 556 900 l 861 65 m 311 371 l 624 371 l 471 815 l 311 371 z "},"Á":{"ha":972,"x_min":14,"x_max":958,"o":"m 861 65 q 910 53 886 60 q 958 40 935 47 l 958 0 l 588 0 l 588 40 l 729 67 l 650 296 l 283 296 l 203 71 q 285 58 244 65 q 367 40 326 50 l 367 0 l 14 0 l 14 40 l 108 72 l 419 900 l 556 900 l 861 65 m 311 371 l 624 371 l 471 815 l 311 371 m 379 1006 l 358 1042 l 596 1238 l 611 1238 l 656 1160 q 519 1078 589 1117 q 379 1006 450 1040 z "},"Ă":{"ha":972,"x_min":14,"x_max":958,"o":"m 861 65 q 910 53 886 60 q 958 40 935 47 l 958 0 l 588 0 l 588 40 l 729 67 l 650 296 l 283 296 l 203 71 q 285 58 244 65 q 367 40 326 50 l 367 0 l 14 0 l 14 40 l 108 72 l 419 900 l 556 900 l 861 65 m 311 371 l 624 371 l 471 815 l 311 371 m 485 1035 q 363 1078 411 1035 q 310 1186 314 1122 l 372 1201 q 410 1138 379 1163 q 485 1114 442 1114 q 558 1138 528 1114 q 596 1201 589 1163 l 658 1186 q 606 1078 656 1122 q 485 1035 557 1035 z "},"Ắ":{"ha":972,"x_min":14,"x_max":958,"o":"m 861 65 q 910 53 886 60 q 958 40 935 47 l 958 0 l 588 0 l 588 40 l 729 67 l 650 296 l 283 296 l 203 71 q 285 58 244 65 q 367 40 326 50 l 367 0 l 14 0 l 14 40 l 108 72 l 419 900 l 556 900 l 861 65 m 311 371 l 624 371 l 471 815 l 311 371 m 343 1176 l 332 1219 l 604 1340 l 618 1335 l 639 1251 q 491 1210 565 1228 q 343 1176 417 1192 m 485 992 q 369 1028 415 992 q 321 1118 324 1065 l 379 1132 q 415 1084 386 1103 q 485 1065 444 1065 q 553 1084 525 1065 q 589 1132 582 1103 l 649 1118 q 599 1028 646 1065 q 485 992 551 992 z "},"Ặ":{"ha":972,"x_min":14,"x_max":958,"o":"m 861 65 q 910 53 886 60 q 958 40 935 47 l 958 0 l 588 0 l 588 40 l 729 67 l 650 296 l 283 296 l 203 71 q 285 58 244 65 q 367 40 326 50 l 367 0 l 14 0 l 14 40 l 108 72 l 419 900 l 556 900 l 861 65 m 311 371 l 624 371 l 471 815 l 311 371 m 497 -101 q 533 -147 518 -121 q 553 -201 549 -174 q 508 -237 535 -222 q 454 -256 482 -251 q 397 -158 411 -219 q 497 -101 439 -112 m 485 1035 q 363 1078 411 1035 q 310 1186 314 1122 l 372 1201 q 410 1138 379 1163 q 485 1114 442 1114 q 558 1138 528 1114 q 596 1201 589 1163 l 658 1186 q 606 1078 656 1122 q 485 1035 557 1035 z "},"Ẳ":{"ha":972,"x_min":14,"x_max":958,"o":"m 861 65 q 910 53 886 60 q 958 40 935 47 l 958 0 l 588 0 l 588 40 l 729 67 l 650 296 l 283 296 l 203 71 q 285 58 244 65 q 367 40 326 50 l 367 0 l 14 0 l 14 40 l 108 72 l 419 900 l 556 900 l 861 65 m 311 371 l 624 371 l 471 815 l 311 371 m 454 1149 l 454 1175 q 472 1213 454 1199 q 508 1240 490 1228 q 525 1271 525 1253 q 478 1297 525 1297 q 403 1288 449 1297 l 393 1340 q 489 1353 444 1353 q 574 1334 542 1353 q 606 1282 606 1315 q 583 1231 606 1250 q 538 1199 561 1213 q 510 1167 515 1185 l 506 1147 l 454 1149 m 485 990 q 368 1027 414 990 q 318 1118 322 1064 l 378 1132 q 415 1084 385 1103 q 485 1065 444 1065 q 556 1084 526 1065 q 592 1132 585 1103 l 653 1118 q 601 1027 649 1064 q 485 990 554 990 z "},"Ẵ":{"ha":972,"x_min":14,"x_max":958,"o":"m 861 65 q 910 53 886 60 q 958 40 935 47 l 958 0 l 588 0 l 588 40 l 729 67 l 650 296 l 283 296 l 203 71 q 285 58 244 65 q 367 40 326 50 l 367 0 l 14 0 l 14 40 l 108 72 l 419 900 l 556 900 l 861 65 m 311 371 l 624 371 l 471 815 l 311 371 m 297 1185 l 276 1204 q 342 1274 317 1250 q 385 1303 367 1297 q 429 1304 404 1308 l 582 1272 l 672 1324 l 693 1307 q 628 1235 653 1258 q 583 1207 603 1213 q 539 1207 564 1201 l 388 1239 l 297 1185 m 483 990 q 367 1026 414 990 q 315 1117 321 1063 l 376 1131 q 413 1083 383 1101 q 483 1064 442 1064 q 553 1083 524 1064 q 590 1131 582 1101 l 649 1117 q 599 1026 646 1063 q 483 990 551 990 z "},"Ǎ":{"ha":972,"x_min":14,"x_max":958,"o":"m 861 65 q 910 53 886 60 q 958 40 935 47 l 958 0 l 588 0 l 588 40 l 729 67 l 650 296 l 283 296 l 203 71 q 285 58 244 65 q 367 40 326 50 l 367 0 l 14 0 l 14 40 l 108 72 l 419 900 l 556 900 l 861 65 m 311 371 l 624 371 l 471 815 l 311 371 m 454 1028 l 299 1183 l 339 1224 l 488 1111 l 633 1224 l 674 1183 l 518 1028 l 454 1028 z "},"Â":{"ha":972,"x_min":14,"x_max":958,"o":"m 861 65 q 910 53 886 60 q 958 40 935 47 l 958 0 l 588 0 l 588 40 l 729 67 l 650 296 l 283 296 l 203 71 q 285 58 244 65 q 367 40 326 50 l 367 0 l 14 0 l 14 40 l 108 72 l 419 900 l 556 900 l 861 65 m 311 371 l 624 371 l 471 815 l 311 371 m 538 1228 l 692 1072 l 651 1033 l 504 1144 l 358 1033 l 318 1072 l 472 1228 l 538 1228 z "},"Ấ":{"ha":972,"x_min":14,"x_max":958,"o":"m 861 65 q 910 53 886 60 q 958 40 935 47 l 958 0 l 588 0 l 588 40 l 729 67 l 650 296 l 283 296 l 203 71 q 285 58 244 65 q 367 40 326 50 l 367 0 l 14 0 l 14 40 l 108 72 l 419 900 l 556 900 l 861 65 m 311 371 l 624 371 l 471 815 l 311 371 m 349 1176 l 338 1219 l 608 1340 l 624 1335 l 644 1251 q 497 1210 571 1228 q 349 1176 422 1192 m 344 992 l 308 1028 l 451 1153 l 514 1153 l 657 1028 l 621 992 l 483 1076 l 344 992 z "},"Ậ":{"ha":972,"x_min":14,"x_max":958,"o":"m 861 65 q 910 53 886 60 q 958 40 935 47 l 958 0 l 588 0 l 588 40 l 729 67 l 650 296 l 283 296 l 203 71 q 285 58 244 65 q 367 40 326 50 l 367 0 l 14 0 l 14 40 l 108 72 l 419 900 l 556 900 l 861 65 m 311 371 l 624 371 l 471 815 l 311 371 m 497 -101 q 533 -147 518 -121 q 553 -201 549 -174 q 508 -237 535 -222 q 454 -256 482 -251 q 397 -158 411 -219 q 497 -101 439 -112 m 538 1228 l 692 1072 l 651 1033 l 504 1144 l 358 1033 l 318 1072 l 472 1228 l 538 1228 z "},"Ầ":{"ha":972,"x_min":14,"x_max":958,"o":"m 861 65 q 910 53 886 60 q 958 40 935 47 l 958 0 l 588 0 l 588 40 l 729 67 l 650 296 l 283 296 l 203 71 q 285 58 244 65 q 367 40 326 50 l 367 0 l 14 0 l 14 40 l 108 72 l 419 900 l 556 900 l 861 65 m 311 371 l 624 371 l 471 815 l 311 371 m 622 1176 q 474 1210 549 1192 q 326 1251 400 1228 l 347 1335 l 361 1340 l 633 1219 l 622 1176 m 349 992 l 313 1028 l 457 1153 l 519 1153 l 663 1028 l 626 992 l 488 1076 l 349 992 z "},"Ẩ":{"ha":972,"x_min":14,"x_max":958,"o":"m 861 65 q 910 53 886 60 q 958 40 935 47 l 958 0 l 588 0 l 588 40 l 729 67 l 650 296 l 283 296 l 203 71 q 285 58 244 65 q 367 40 326 50 l 367 0 l 14 0 l 14 40 l 108 72 l 419 900 l 556 900 l 861 65 m 311 371 l 624 371 l 471 815 l 311 371 m 590 1118 l 590 1144 q 608 1184 590 1169 q 642 1211 625 1199 q 660 1242 660 1224 q 613 1268 660 1268 q 579 1266 597 1268 q 539 1258 561 1264 l 529 1310 q 577 1320 553 1317 q 624 1324 601 1324 q 708 1305 676 1324 q 739 1253 739 1286 q 717 1201 739 1219 q 673 1169 696 1183 q 644 1136 650 1156 l 639 1118 l 590 1118 m 349 990 l 308 1028 l 456 1154 l 519 1154 l 667 1028 l 628 990 l 486 1078 l 349 990 z "},"Ẫ":{"ha":972,"x_min":14,"x_max":958,"o":"m 861 65 q 910 53 886 60 q 958 40 935 47 l 958 0 l 588 0 l 588 40 l 729 67 l 650 296 l 283 296 l 203 71 q 285 58 244 65 q 367 40 326 50 l 367 0 l 14 0 l 14 40 l 108 72 l 419 900 l 556 900 l 861 65 m 311 371 l 624 371 l 471 815 l 311 371 m 294 1188 l 274 1207 q 340 1278 315 1254 q 383 1308 364 1301 q 428 1308 403 1314 l 583 1276 l 675 1328 l 694 1310 q 629 1239 654 1263 q 584 1210 604 1215 q 539 1208 564 1204 l 386 1240 l 294 1188 m 344 990 l 308 1026 l 453 1153 l 514 1153 l 657 1026 l 621 990 l 483 1075 l 344 990 z "},"Ȁ":{"ha":972,"x_min":14,"x_max":958,"o":"m 861 65 q 910 53 886 60 q 958 40 935 47 l 958 0 l 588 0 l 588 40 l 729 67 l 650 296 l 283 296 l 203 71 q 285 58 244 65 q 367 40 326 50 l 367 0 l 14 0 l 14 40 l 108 72 l 419 900 l 556 900 l 861 65 m 311 371 l 624 371 l 471 815 l 311 371 m 456 1006 q 350 1099 401 1051 q 250 1199 299 1147 l 306 1249 l 318 1247 l 485 1031 l 456 1006 m 636 1006 q 530 1099 582 1051 q 431 1199 478 1147 l 485 1249 l 499 1247 l 664 1031 l 636 1006 z "},"Ä":{"ha":972,"x_min":14,"x_max":958,"o":"m 861 65 q 910 53 886 60 q 958 40 935 47 l 958 0 l 588 0 l 588 40 l 729 67 l 650 296 l 283 296 l 203 71 q 285 58 244 65 q 367 40 326 50 l 367 0 l 14 0 l 14 40 l 108 72 l 419 900 l 556 900 l 861 65 m 311 371 l 624 371 l 471 815 l 311 371 m 389 1200 q 440 1106 433 1158 q 399 1072 424 1086 q 347 1053 374 1057 q 313 1095 328 1071 q 292 1147 299 1119 q 336 1181 311 1167 q 389 1200 361 1196 m 624 1200 q 658 1156 643 1181 q 676 1106 672 1132 q 634 1072 658 1086 q 583 1053 610 1057 q 528 1147 540 1089 q 571 1181 546 1167 q 624 1200 596 1196 z "},"Ạ":{"ha":972,"x_min":14,"x_max":958,"o":"m 861 65 q 910 53 886 60 q 958 40 935 47 l 958 0 l 588 0 l 588 40 l 729 67 l 650 296 l 283 296 l 203 71 q 285 58 244 65 q 367 40 326 50 l 367 0 l 14 0 l 14 40 l 108 72 l 419 900 l 556 900 l 861 65 m 311 371 l 624 371 l 471 815 l 311 371 m 497 -101 q 533 -147 518 -121 q 553 -201 549 -174 q 508 -237 535 -222 q 454 -256 482 -251 q 397 -158 411 -219 q 497 -101 439 -112 z "},"À":{"ha":972,"x_min":14,"x_max":958,"o":"m 861 65 q 910 53 886 60 q 958 40 935 47 l 958 0 l 588 0 l 588 40 l 729 67 l 650 296 l 283 296 l 203 71 q 285 58 244 65 q 367 40 326 50 l 367 0 l 14 0 l 14 40 l 108 72 l 419 900 l 556 900 l 861 65 m 311 371 l 624 371 l 471 815 l 311 371 m 611 1006 q 472 1078 540 1040 q 336 1160 403 1117 l 379 1238 l 396 1238 l 633 1042 l 611 1006 z "},"Ả":{"ha":972,"x_min":14,"x_max":958,"o":"m 861 65 q 910 53 886 60 q 958 40 935 47 l 958 0 l 588 0 l 588 40 l 729 67 l 650 296 l 283 296 l 203 71 q 285 58 244 65 q 367 40 326 50 l 367 0 l 14 0 l 14 40 l 108 72 l 419 900 l 556 900 l 861 65 m 311 371 l 624 371 l 471 815 l 311 371 m 451 972 l 451 1007 q 464 1047 451 1031 q 492 1076 476 1063 q 520 1103 508 1089 q 532 1135 532 1117 q 476 1172 532 1172 q 439 1169 460 1172 q 393 1160 418 1167 l 383 1218 q 489 1233 439 1233 q 581 1210 546 1233 q 615 1144 615 1188 q 601 1094 615 1114 q 567 1059 586 1074 q 531 1031 547 1044 q 510 997 514 1017 l 506 971 l 451 972 z "},"Ȃ":{"ha":972,"x_min":14,"x_max":958,"o":"m 861 65 q 910 53 886 60 q 958 40 935 47 l 958 0 l 588 0 l 588 40 l 729 67 l 650 296 l 283 296 l 203 71 q 285 58 244 65 q 367 40 326 50 l 367 0 l 14 0 l 14 40 l 108 72 l 419 900 l 556 900 l 861 65 m 311 371 l 624 371 l 471 815 l 311 371 m 486 1201 q 607 1157 558 1201 q 660 1049 656 1113 l 597 1035 q 560 1097 590 1072 q 486 1122 529 1122 q 412 1097 442 1122 q 374 1035 382 1072 l 311 1049 q 365 1157 315 1113 q 486 1201 414 1201 z "},"Ā":{"ha":972,"x_min":14,"x_max":958,"o":"m 861 65 q 910 53 886 60 q 958 40 935 47 l 958 0 l 588 0 l 588 40 l 729 67 l 650 296 l 283 296 l 203 71 q 285 58 244 65 q 367 40 326 50 l 367 0 l 14 0 l 14 40 l 108 72 l 419 900 l 556 900 l 861 65 m 311 371 l 624 371 l 471 815 l 311 371 m 315 1089 l 315 1167 l 656 1167 l 656 1089 l 315 1089 z "},"Ą":{"ha":972,"x_min":14,"x_max":958,"o":"m 861 65 q 910 53 886 60 q 958 40 935 47 l 958 0 l 588 0 l 588 40 l 729 67 l 650 296 l 283 296 l 203 71 q 285 58 244 65 q 367 40 326 50 l 367 0 l 14 0 l 14 40 l 108 72 l 419 900 l 556 900 l 861 65 m 311 371 l 624 371 l 471 815 l 311 371 m 772 -287 q 688 -257 717 -287 q 665 -183 660 -226 q 713 -104 669 -140 l 844 24 l 879 24 l 781 -107 q 758 -176 750 -147 q 810 -206 767 -206 q 904 -161 861 -206 l 917 -193 q 772 -287 867 -287 z "},"Å":{"ha":972,"x_min":14,"x_max":958,"o":"m 861 65 q 910 53 886 60 q 958 40 935 47 l 958 0 l 588 0 l 588 40 l 729 67 l 650 296 l 283 296 l 203 71 q 285 58 244 65 q 367 40 326 50 l 367 0 l 14 0 l 14 40 l 108 72 l 419 900 l 556 900 l 861 65 m 311 371 l 624 371 l 471 815 l 311 371 m 485 1003 q 396 1038 431 1003 q 361 1126 361 1074 q 396 1215 361 1181 q 485 1250 431 1250 q 574 1215 539 1250 q 608 1126 608 1181 q 574 1038 608 1074 q 485 1003 539 1003 m 485 1058 q 534 1078 514 1058 q 554 1126 554 1097 q 534 1176 554 1157 q 485 1196 514 1196 q 435 1176 456 1196 q 415 1126 415 1157 q 435 1078 415 1097 q 485 1058 456 1058 z "},"Ǻ":{"ha":972,"x_min":14,"x_max":958,"o":"m 861 65 q 910 53 886 60 q 958 40 935 47 l 958 0 l 588 0 l 588 40 l 729 67 l 650 296 l 283 296 l 203 71 q 285 58 244 65 q 367 40 326 50 l 367 0 l 14 0 l 14 40 l 108 72 l 419 900 l 556 900 l 861 65 m 311 371 l 624 371 l 471 815 l 311 371 m 485 847 q 396 883 431 847 q 361 971 361 918 q 396 1060 361 1025 q 485 1094 431 1094 q 574 1060 539 1094 q 608 971 608 1025 q 574 883 608 918 q 485 847 539 847 m 485 903 q 534 922 514 903 q 554 971 554 942 q 534 1021 554 1001 q 485 1040 514 1040 q 435 1021 456 1040 q 415 971 415 1001 q 435 922 415 942 q 485 903 456 903 m 378 1113 l 357 1149 l 594 1344 l 610 1344 l 654 1267 q 518 1185 588 1224 q 378 1113 449 1147 z "},"Ã":{"ha":972,"x_min":14,"x_max":958,"o":"m 861 65 q 910 53 886 60 q 958 40 935 47 l 958 0 l 588 0 l 588 40 l 729 67 l 650 296 l 283 296 l 203 71 q 285 58 244 65 q 367 40 326 50 l 367 0 l 14 0 l 14 40 l 108 72 l 419 900 l 556 900 l 861 65 m 311 371 l 624 371 l 471 815 l 311 371 m 296 1040 l 272 1061 q 343 1159 318 1131 q 385 1191 368 1188 q 424 1189 403 1194 l 589 1147 l 672 1219 l 696 1197 q 628 1102 653 1131 q 585 1069 603 1074 q 546 1069 568 1064 l 381 1113 l 296 1040 z "},"Æ":{"ha":1319,"x_min":14,"x_max":1210,"o":"m 993 310 l 949 426 l 742 426 l 832 79 l 1118 79 l 1168 300 l 1210 300 l 1210 0 l 565 0 l 565 40 l 715 69 l 660 296 l 288 296 l 181 67 q 336 39 261 56 l 336 0 l 14 0 l 14 40 l 86 72 l 450 832 l 301 860 l 301 900 l 1169 900 l 1169 628 l 1128 628 l 1079 821 l 640 821 l 722 504 l 949 504 l 993 619 l 1029 619 l 1029 310 l 993 310 m 321 371 l 642 371 l 531 822 l 321 371 z "},"Ǽ":{"ha":1319,"x_min":14,"x_max":1210,"o":"m 993 310 l 949 426 l 742 426 l 832 79 l 1118 79 l 1168 300 l 1210 300 l 1210 0 l 565 0 l 565 40 l 715 69 l 660 296 l 288 296 l 181 67 q 336 39 261 56 l 336 0 l 14 0 l 14 40 l 86 72 l 450 832 l 301 860 l 301 900 l 1169 900 l 1169 628 l 1128 628 l 1079 821 l 640 821 l 722 504 l 949 504 l 993 619 l 1029 619 l 1029 310 l 993 310 m 321 371 l 642 371 l 531 822 l 321 371 m 660 1006 l 639 1042 l 876 1238 l 892 1238 l 936 1160 q 800 1078 869 1117 q 660 1006 731 1040 z "},"B":{"ha":943,"x_min":51,"x_max":857,"o":"m 621 469 q 794 390 732 449 q 857 246 857 331 q 768 66 857 132 q 525 0 679 0 l 51 0 l 51 39 q 199 71 94 60 l 211 828 l 51 858 l 51 900 l 538 900 q 741 844 665 900 q 817 693 817 788 q 763 556 817 615 q 621 469 710 496 m 511 821 l 324 821 l 324 500 l 540 500 q 694 672 694 556 q 646 781 694 742 q 511 821 597 821 m 515 421 l 324 421 l 324 79 l 586 79 q 696 140 657 96 q 735 246 735 183 q 675 373 735 325 q 515 421 615 421 z "},"C":{"ha":914,"x_min":85,"x_max":786,"o":"m 526 -11 q 199 107 314 -11 q 85 447 85 225 q 141 698 85 593 q 301 859 197 803 q 547 915 404 915 q 661 907 600 915 q 786 883 722 899 l 786 613 l 740 613 l 683 807 q 528 824 604 824 q 301 781 411 824 q 210 443 210 631 q 296 171 210 265 q 538 76 382 76 q 682 94 604 76 l 740 296 l 786 296 l 786 25 q 526 -11 640 -11 z "},"Ć":{"ha":914,"x_min":85,"x_max":786,"o":"m 526 -11 q 199 107 314 -11 q 85 447 85 225 q 141 698 85 593 q 301 859 197 803 q 547 915 404 915 q 661 907 600 915 q 786 883 722 899 l 786 613 l 740 613 l 683 807 q 528 824 604 824 q 301 781 411 824 q 210 443 210 631 q 296 171 210 265 q 538 76 382 76 q 682 94 604 76 l 740 296 l 786 296 l 786 25 q 526 -11 640 -11 m 419 1006 l 399 1042 l 636 1238 l 651 1238 l 696 1160 q 560 1078 629 1117 q 419 1006 490 1040 z "},"Č":{"ha":914,"x_min":85,"x_max":786,"o":"m 526 -11 q 199 107 314 -11 q 85 447 85 225 q 141 698 85 593 q 301 859 197 803 q 547 915 404 915 q 661 907 600 915 q 786 883 722 899 l 786 613 l 740 613 l 683 807 q 528 824 604 824 q 301 781 411 824 q 210 443 210 631 q 296 171 210 265 q 538 76 382 76 q 682 94 604 76 l 740 296 l 786 296 l 786 25 q 526 -11 640 -11 m 494 1028 l 339 1183 l 379 1224 l 528 1111 l 674 1224 l 714 1183 l 558 1028 l 494 1028 z "},"Ç":{"ha":914,"x_min":85,"x_max":786,"o":"m 526 -11 q 199 107 314 -11 q 85 447 85 225 q 141 698 85 593 q 301 859 197 803 q 547 915 404 915 q 661 907 600 915 q 786 883 722 899 l 786 613 l 740 613 l 683 807 q 528 824 604 824 q 301 781 411 824 q 210 443 210 631 q 296 171 210 265 q 538 76 382 76 q 682 94 604 76 l 740 296 l 786 296 l 786 25 q 526 -11 640 -11 m 508 19 l 557 19 l 539 -60 q 663 -115 625 -83 q 701 -193 701 -147 q 662 -275 701 -244 q 558 -310 622 -306 q 415 -290 493 -315 l 424 -212 q 517 -236 474 -228 q 607 -246 560 -244 q 622 -228 617 -240 q 628 -206 628 -215 q 597 -164 628 -182 q 478 -118 565 -146 l 508 19 z "},"Ḉ":{"ha":914,"x_min":85,"x_max":786,"o":"m 526 -11 q 199 107 314 -11 q 85 447 85 225 q 141 698 85 593 q 301 859 197 803 q 547 915 404 915 q 661 907 600 915 q 786 883 722 899 l 786 613 l 740 613 l 683 807 q 528 824 604 824 q 301 781 411 824 q 210 443 210 631 q 296 171 210 265 q 538 76 382 76 q 682 94 604 76 l 740 296 l 786 296 l 786 25 q 526 -11 640 -11 m 508 19 l 557 19 l 539 -60 q 663 -115 625 -83 q 701 -193 701 -147 q 662 -275 701 -244 q 558 -310 622 -306 q 415 -290 493 -315 l 424 -212 q 517 -236 474 -228 q 607 -246 560 -244 q 622 -228 617 -240 q 628 -206 628 -215 q 597 -164 628 -182 q 478 -118 565 -146 l 508 19 m 419 1006 l 399 1042 l 636 1238 l 651 1238 l 696 1160 q 560 1078 629 1117 q 419 1006 490 1040 z "},"Ĉ":{"ha":914,"x_min":85,"x_max":786,"o":"m 526 -11 q 199 107 314 -11 q 85 447 85 225 q 141 698 85 593 q 301 859 197 803 q 547 915 404 915 q 661 907 600 915 q 786 883 722 899 l 786 613 l 740 613 l 683 807 q 528 824 604 824 q 301 781 411 824 q 210 443 210 631 q 296 171 210 265 q 538 76 382 76 q 682 94 604 76 l 740 296 l 786 296 l 786 25 q 526 -11 640 -11 m 579 1228 l 733 1072 l 693 1033 l 546 1144 l 400 1033 l 360 1072 l 514 1228 l 579 1228 z "},"Ċ":{"ha":914,"x_min":85,"x_max":786,"o":"m 526 -11 q 199 107 314 -11 q 85 447 85 225 q 141 698 85 593 q 301 859 197 803 q 547 915 404 915 q 661 907 600 915 q 786 883 722 899 l 786 613 l 740 613 l 683 807 q 528 824 604 824 q 301 781 411 824 q 210 443 210 631 q 296 171 210 265 q 538 76 382 76 q 682 94 604 76 l 740 296 l 786 296 l 786 25 q 526 -11 640 -11 m 550 1211 q 588 1163 572 1190 q 608 1106 604 1135 q 561 1067 589 1083 q 504 1047 533 1050 q 444 1151 457 1088 q 492 1190 464 1174 q 550 1211 519 1206 z "},"D":{"ha":1019,"x_min":51,"x_max":936,"o":"m 540 900 q 750 847 661 900 q 888 694 839 793 q 936 463 936 596 q 885 221 936 325 q 740 58 833 117 q 525 0 647 0 l 51 0 l 51 39 q 199 71 113 61 l 211 828 l 51 858 l 51 900 l 540 900 m 604 81 q 813 450 813 172 q 774 660 813 578 q 672 781 736 742 q 525 821 607 821 l 324 821 l 324 81 l 604 81 z "},"Ǆ":{"ha":1889,"x_min":51,"x_max":1801,"o":"m 540 900 q 750 847 661 900 q 888 694 839 793 q 936 463 936 596 q 885 221 936 325 q 740 58 833 117 q 525 0 647 0 l 51 0 l 51 39 q 199 71 113 61 l 211 828 l 51 858 l 51 900 l 540 900 m 604 81 q 813 450 813 172 q 774 660 813 578 q 672 781 736 742 q 525 821 607 821 l 324 821 l 324 81 l 604 81 z "},"Ð":{"ha":1051,"x_min":83,"x_max":968,"o":"m 572 900 q 782 847 693 900 q 919 694 871 793 q 968 463 968 596 q 917 221 968 325 q 772 58 865 117 q 557 0 679 0 l 83 0 l 83 39 q 231 71 144 61 l 243 828 l 83 858 l 83 900 l 572 900 m 636 81 q 844 450 844 172 q 806 660 844 578 q 703 781 768 742 q 557 821 639 821 l 356 821 l 356 81 l 636 81 m 89 496 l 560 496 l 560 428 l 89 428 l 89 496 z "},"Ď":{"ha":1019,"x_min":51,"x_max":936,"o":"m 540 900 q 750 847 661 900 q 888 694 839 793 q 936 463 936 596 q 885 221 936 325 q 740 58 833 117 q 525 0 647 0 l 51 0 l 51 39 q 199 71 113 61 l 211 828 l 51 858 l 51 900 l 540 900 m 604 81 q 813 450 813 172 q 774 660 813 578 q 672 781 736 742 q 525 821 607 821 l 324 821 l 324 81 l 604 81 m 463 1028 l 307 1183 l 347 1224 l 496 1111 l 642 1224 l 682 1183 l 526 1028 l 463 1028 z "},"Đ":{"ha":1051,"x_min":83,"x_max":968,"o":"m 572 900 q 782 847 693 900 q 919 694 871 793 q 968 463 968 596 q 917 221 968 325 q 772 58 865 117 q 557 0 679 0 l 83 0 l 83 39 q 231 71 144 61 l 243 828 l 83 858 l 83 900 l 572 900 m 636 81 q 844 450 844 172 q 806 660 844 578 q 703 781 768 742 q 557 821 639 821 l 356 821 l 356 81 l 636 81 m 89 496 l 560 496 l 560 428 l 89 428 l 89 496 z "},"Ḍ":{"ha":1019,"x_min":51,"x_max":936,"o":"m 540 900 q 750 847 661 900 q 888 694 839 793 q 936 463 936 596 q 885 221 936 325 q 740 58 833 117 q 525 0 647 0 l 51 0 l 51 39 q 199 71 113 61 l 211 828 l 51 858 l 51 900 l 540 900 m 604 81 q 813 450 813 172 q 774 660 813 578 q 672 781 736 742 q 525 821 607 821 l 324 821 l 324 81 l 604 81 m 439 -101 q 475 -147 460 -121 q 494 -201 490 -174 q 450 -237 476 -222 q 396 -256 424 -251 q 339 -158 353 -219 q 439 -101 381 -112 z "},"Ḏ":{"ha":1019,"x_min":51,"x_max":936,"o":"m 540 900 q 750 847 661 900 q 888 694 839 793 q 936 463 936 596 q 885 221 936 325 q 740 58 833 117 q 525 0 647 0 l 51 0 l 51 39 q 199 71 113 61 l 211 828 l 51 858 l 51 900 l 540 900 m 604 81 q 813 450 813 172 q 774 660 813 578 q 672 781 736 742 q 525 821 607 821 l 324 821 l 324 81 l 604 81 z "},"ǅ":{"ha":1692,"x_min":51,"x_max":1633,"o":"m 540 900 q 750 847 661 900 q 888 694 839 793 q 936 463 936 596 q 885 221 936 325 q 740 58 833 117 q 525 0 647 0 l 51 0 l 51 39 q 199 71 113 61 l 211 828 l 51 858 l 51 900 l 540 900 m 604 81 q 813 450 813 172 q 774 660 813 578 q 672 781 736 742 q 525 821 607 821 l 324 821 l 324 81 l 604 81 z "},"E":{"ha":947,"x_min":51,"x_max":824,"o":"m 782 301 l 824 301 l 824 0 l 51 0 l 51 39 q 126 59 89 51 q 199 71 163 67 l 211 828 l 51 858 l 51 900 l 810 900 l 810 628 l 768 628 l 719 821 l 324 821 l 324 503 l 578 503 l 619 619 l 658 619 l 658 306 l 619 306 l 576 424 l 324 424 l 324 81 l 731 81 l 782 301 z "},"É":{"ha":947,"x_min":51,"x_max":824,"o":"m 782 301 l 824 301 l 824 0 l 51 0 l 51 39 q 126 59 89 51 q 199 71 163 67 l 211 828 l 51 858 l 51 900 l 810 900 l 810 628 l 768 628 l 719 821 l 324 821 l 324 503 l 578 503 l 619 619 l 658 619 l 658 306 l 619 306 l 576 424 l 324 424 l 324 81 l 731 81 l 782 301 m 383 1006 l 363 1042 l 600 1238 l 615 1238 l 660 1160 q 524 1078 593 1117 q 383 1006 454 1040 z "},"Ĕ":{"ha":947,"x_min":51,"x_max":824,"o":"m 782 301 l 824 301 l 824 0 l 51 0 l 51 39 q 126 59 89 51 q 199 71 163 67 l 211 828 l 51 858 l 51 900 l 810 900 l 810 628 l 768 628 l 719 821 l 324 821 l 324 503 l 578 503 l 619 619 l 658 619 l 658 306 l 619 306 l 576 424 l 324 424 l 324 81 l 731 81 l 782 301 m 490 1035 q 368 1078 417 1035 q 315 1186 319 1122 l 378 1201 q 416 1138 385 1163 q 490 1114 447 1114 q 564 1138 533 1114 q 601 1201 594 1163 l 664 1186 q 612 1078 661 1122 q 490 1035 563 1035 z "},"Ě":{"ha":947,"x_min":51,"x_max":824,"o":"m 782 301 l 824 301 l 824 0 l 51 0 l 51 39 q 126 59 89 51 q 199 71 163 67 l 211 828 l 51 858 l 51 900 l 810 900 l 810 628 l 768 628 l 719 821 l 324 821 l 324 503 l 578 503 l 619 619 l 658 619 l 658 306 l 619 306 l 576 424 l 324 424 l 324 81 l 731 81 l 782 301 m 458 1028 l 303 1183 l 343 1224 l 492 1111 l 638 1224 l 678 1183 l 522 1028 l 458 1028 z "},"Ḝ":{"ha":947,"x_min":51,"x_max":824,"o":"m 782 301 l 824 301 l 824 0 l 51 0 l 51 39 q 126 59 89 51 q 199 71 163 67 l 211 828 l 51 858 l 51 900 l 810 900 l 810 628 l 768 628 l 719 821 l 324 821 l 324 503 l 578 503 l 619 619 l 658 619 l 658 306 l 619 306 l 576 424 l 324 424 l 324 81 l 731 81 l 782 301 m 463 19 l 511 19 l 493 -60 q 617 -115 579 -83 q 656 -193 656 -147 q 616 -275 656 -244 q 512 -310 576 -306 q 369 -290 447 -315 l 378 -212 q 471 -236 428 -228 q 561 -246 514 -244 q 576 -228 571 -240 q 582 -206 582 -215 q 551 -164 582 -182 q 432 -118 519 -146 l 463 19 m 490 1035 q 368 1078 417 1035 q 315 1186 319 1122 l 378 1201 q 416 1138 385 1163 q 490 1114 447 1114 q 564 1138 533 1114 q 601 1201 594 1163 l 664 1186 q 612 1078 661 1122 q 490 1035 563 1035 z "},"Ê":{"ha":947,"x_min":51,"x_max":824,"o":"m 782 301 l 824 301 l 824 0 l 51 0 l 51 39 q 126 59 89 51 q 199 71 163 67 l 211 828 l 51 858 l 51 900 l 810 900 l 810 628 l 768 628 l 719 821 l 324 821 l 324 503 l 578 503 l 619 619 l 658 619 l 658 306 l 619 306 l 576 424 l 324 424 l 324 81 l 731 81 l 782 301 m 543 1228 l 697 1072 l 657 1033 l 510 1144 l 364 1033 l 324 1072 l 478 1228 l 543 1228 z "},"Ế":{"ha":947,"x_min":51,"x_max":824,"o":"m 782 301 l 824 301 l 824 0 l 51 0 l 51 39 q 126 59 89 51 q 199 71 163 67 l 211 828 l 51 858 l 51 900 l 810 900 l 810 628 l 768 628 l 719 821 l 324 821 l 324 503 l 578 503 l 619 619 l 658 619 l 658 306 l 619 306 l 576 424 l 324 424 l 324 81 l 731 81 l 782 301 m 353 1176 l 342 1219 l 613 1340 l 628 1335 l 649 1251 q 501 1210 575 1228 q 353 1176 426 1192 m 349 992 l 313 1028 l 456 1153 l 518 1153 l 661 1028 l 625 992 l 488 1076 l 349 992 z "},"Ệ":{"ha":947,"x_min":51,"x_max":824,"o":"m 782 301 l 824 301 l 824 0 l 51 0 l 51 39 q 126 59 89 51 q 199 71 163 67 l 211 828 l 51 858 l 51 900 l 810 900 l 810 628 l 768 628 l 719 821 l 324 821 l 324 503 l 578 503 l 619 619 l 658 619 l 658 306 l 619 306 l 576 424 l 324 424 l 324 81 l 731 81 l 782 301 m 503 -101 q 539 -147 524 -121 q 558 -201 554 -174 q 514 -237 540 -222 q 460 -256 488 -251 q 403 -158 417 -219 q 503 -101 444 -112 m 543 1228 l 697 1072 l 657 1033 l 510 1144 l 364 1033 l 324 1072 l 478 1228 l 543 1228 z "},"Ề":{"ha":947,"x_min":51,"x_max":824,"o":"m 782 301 l 824 301 l 824 0 l 51 0 l 51 39 q 126 59 89 51 q 199 71 163 67 l 211 828 l 51 858 l 51 900 l 810 900 l 810 628 l 768 628 l 719 821 l 324 821 l 324 503 l 578 503 l 619 619 l 658 619 l 658 306 l 619 306 l 576 424 l 324 424 l 324 81 l 731 81 l 782 301 m 626 1176 q 478 1210 553 1192 q 331 1251 404 1228 l 351 1335 l 365 1340 l 638 1219 l 626 1176 m 353 992 l 317 1028 l 461 1153 l 524 1153 l 667 1028 l 631 992 l 492 1076 l 353 992 z "},"Ể":{"ha":947,"x_min":51,"x_max":824,"o":"m 782 301 l 824 301 l 824 0 l 51 0 l 51 39 q 126 59 89 51 q 199 71 163 67 l 211 828 l 51 858 l 51 900 l 810 900 l 810 628 l 768 628 l 719 821 l 324 821 l 324 503 l 578 503 l 619 619 l 658 619 l 658 306 l 619 306 l 576 424 l 324 424 l 324 81 l 731 81 l 782 301 m 594 1118 l 594 1144 q 612 1184 594 1169 q 647 1211 629 1199 q 664 1242 664 1224 q 617 1268 664 1268 q 583 1266 601 1268 q 543 1258 565 1264 l 533 1310 q 581 1320 557 1317 q 628 1324 606 1324 q 712 1305 681 1324 q 743 1253 743 1286 q 722 1201 743 1219 q 677 1169 700 1183 q 649 1136 654 1156 l 643 1118 l 594 1118 m 353 990 l 313 1028 l 460 1154 l 524 1154 l 671 1028 l 632 990 l 490 1078 l 353 990 z "},"Ễ":{"ha":947,"x_min":51,"x_max":824,"o":"m 782 301 l 824 301 l 824 0 l 51 0 l 51 39 q 126 59 89 51 q 199 71 163 67 l 211 828 l 51 858 l 51 900 l 810 900 l 810 628 l 768 628 l 719 821 l 324 821 l 324 503 l 578 503 l 619 619 l 658 619 l 658 306 l 619 306 l 576 424 l 324 424 l 324 81 l 731 81 l 782 301 m 300 1188 l 279 1207 q 345 1278 321 1254 q 389 1308 369 1301 q 433 1308 408 1314 l 589 1276 l 681 1328 l 700 1310 q 635 1239 660 1263 q 590 1210 610 1215 q 544 1208 569 1204 l 392 1240 l 300 1188 m 350 990 l 314 1026 l 458 1153 l 519 1153 l 663 1026 l 626 990 l 489 1075 l 350 990 z "},"Ȅ":{"ha":947,"x_min":51,"x_max":824,"o":"m 782 301 l 824 301 l 824 0 l 51 0 l 51 39 q 126 59 89 51 q 199 71 163 67 l 211 828 l 51 858 l 51 900 l 810 900 l 810 628 l 768 628 l 719 821 l 324 821 l 324 503 l 578 503 l 619 619 l 658 619 l 658 306 l 619 306 l 576 424 l 324 424 l 324 81 l 731 81 l 782 301 m 461 1006 q 356 1099 407 1051 q 256 1199 304 1147 l 311 1249 l 324 1247 l 490 1031 l 461 1006 m 642 1006 q 535 1099 588 1051 q 436 1199 483 1147 l 490 1249 l 504 1247 l 669 1031 l 642 1006 z "},"Ë":{"ha":947,"x_min":51,"x_max":824,"o":"m 782 301 l 824 301 l 824 0 l 51 0 l 51 39 q 126 59 89 51 q 199 71 163 67 l 211 828 l 51 858 l 51 900 l 810 900 l 810 628 l 768 628 l 719 821 l 324 821 l 324 503 l 578 503 l 619 619 l 658 619 l 658 306 l 619 306 l 576 424 l 324 424 l 324 81 l 731 81 l 782 301 m 394 1200 q 446 1106 439 1158 q 404 1072 429 1086 q 353 1053 379 1057 q 319 1095 333 1071 q 297 1147 304 1119 q 342 1181 317 1167 q 394 1200 367 1196 m 629 1200 q 663 1156 649 1181 q 682 1106 678 1132 q 640 1072 664 1086 q 589 1053 615 1057 q 533 1147 546 1089 q 576 1181 551 1167 q 629 1200 601 1196 z "},"Ė":{"ha":947,"x_min":51,"x_max":824,"o":"m 782 301 l 824 301 l 824 0 l 51 0 l 51 39 q 126 59 89 51 q 199 71 163 67 l 211 828 l 51 858 l 51 900 l 810 900 l 810 628 l 768 628 l 719 821 l 324 821 l 324 503 l 578 503 l 619 619 l 658 619 l 658 306 l 619 306 l 576 424 l 324 424 l 324 81 l 731 81 l 782 301 m 514 1211 q 552 1163 536 1190 q 572 1106 568 1135 q 525 1067 553 1083 q 468 1047 497 1050 q 408 1151 421 1088 q 456 1190 428 1174 q 514 1211 483 1206 z "},"Ẹ":{"ha":947,"x_min":51,"x_max":824,"o":"m 782 301 l 824 301 l 824 0 l 51 0 l 51 39 q 126 59 89 51 q 199 71 163 67 l 211 828 l 51 858 l 51 900 l 810 900 l 810 628 l 768 628 l 719 821 l 324 821 l 324 503 l 578 503 l 619 619 l 658 619 l 658 306 l 619 306 l 576 424 l 324 424 l 324 81 l 731 81 l 782 301 m 503 -101 q 539 -147 524 -121 q 558 -201 554 -174 q 514 -237 540 -222 q 460 -256 488 -251 q 403 -158 417 -219 q 503 -101 444 -112 z "},"È":{"ha":947,"x_min":51,"x_max":824,"o":"m 782 301 l 824 301 l 824 0 l 51 0 l 51 39 q 126 59 89 51 q 199 71 163 67 l 211 828 l 51 858 l 51 900 l 810 900 l 810 628 l 768 628 l 719 821 l 324 821 l 324 503 l 578 503 l 619 619 l 658 619 l 658 306 l 619 306 l 576 424 l 324 424 l 324 81 l 731 81 l 782 301 m 617 1006 q 477 1078 546 1040 q 342 1160 408 1117 l 385 1238 l 401 1238 l 639 1042 l 617 1006 z "},"Ẻ":{"ha":947,"x_min":51,"x_max":824,"o":"m 782 301 l 824 301 l 824 0 l 51 0 l 51 39 q 126 59 89 51 q 199 71 163 67 l 211 828 l 51 858 l 51 900 l 810 900 l 810 628 l 768 628 l 719 821 l 324 821 l 324 503 l 578 503 l 619 619 l 658 619 l 658 306 l 619 306 l 576 424 l 324 424 l 324 81 l 731 81 l 782 301 m 456 972 l 456 1007 q 468 1047 456 1031 q 497 1076 481 1063 q 524 1103 513 1089 q 536 1135 536 1117 q 481 1172 536 1172 q 443 1169 464 1172 q 397 1160 422 1167 l 388 1218 q 493 1233 443 1233 q 585 1210 550 1233 q 619 1144 619 1188 q 605 1094 619 1114 q 571 1059 590 1074 q 535 1031 551 1044 q 514 997 518 1017 l 510 971 l 456 972 z "},"Ȇ":{"ha":947,"x_min":51,"x_max":824,"o":"m 782 301 l 824 301 l 824 0 l 51 0 l 51 39 q 126 59 89 51 q 199 71 163 67 l 211 828 l 51 858 l 51 900 l 810 900 l 810 628 l 768 628 l 719 821 l 324 821 l 324 503 l 578 503 l 619 619 l 658 619 l 658 306 l 619 306 l 576 424 l 324 424 l 324 81 l 731 81 l 782 301 m 490 1201 q 611 1157 563 1201 q 664 1049 660 1113 l 601 1035 q 564 1097 594 1072 q 490 1122 533 1122 q 416 1097 446 1122 q 378 1035 386 1072 l 315 1049 q 369 1157 319 1113 q 490 1201 418 1201 z "},"Ē":{"ha":947,"x_min":51,"x_max":824,"o":"m 782 301 l 824 301 l 824 0 l 51 0 l 51 39 q 126 59 89 51 q 199 71 163 67 l 211 828 l 51 858 l 51 900 l 810 900 l 810 628 l 768 628 l 719 821 l 324 821 l 324 503 l 578 503 l 619 619 l 658 619 l 658 306 l 619 306 l 576 424 l 324 424 l 324 81 l 731 81 l 782 301 m 319 1089 l 319 1167 l 660 1167 l 660 1089 l 319 1089 z "},"Ḗ":{"ha":947,"x_min":51,"x_max":824,"o":"m 782 301 l 824 301 l 824 0 l 51 0 l 51 39 q 126 59 89 51 q 199 71 163 67 l 211 828 l 51 858 l 51 900 l 810 900 l 810 628 l 768 628 l 719 821 l 324 821 l 324 503 l 578 503 l 619 619 l 658 619 l 658 306 l 619 306 l 576 424 l 324 424 l 324 81 l 731 81 l 782 301 m 343 1150 l 331 1189 l 610 1313 l 625 1311 l 651 1229 q 499 1185 576 1204 q 343 1150 422 1165 m 313 1010 l 313 1082 l 671 1082 l 671 1010 l 313 1010 z "},"Ḕ":{"ha":947,"x_min":51,"x_max":824,"o":"m 782 301 l 824 301 l 824 0 l 51 0 l 51 39 q 126 59 89 51 q 199 71 163 67 l 211 828 l 51 858 l 51 900 l 810 900 l 810 628 l 768 628 l 719 821 l 324 821 l 324 503 l 578 503 l 619 619 l 658 619 l 658 306 l 619 306 l 576 424 l 324 424 l 324 81 l 731 81 l 782 301 m 636 1150 q 481 1185 558 1165 q 328 1229 404 1204 l 356 1311 l 371 1313 l 650 1189 l 636 1150 m 308 1010 l 308 1082 l 668 1082 l 668 1010 l 308 1010 z "},"Ę":{"ha":947,"x_min":51,"x_max":828,"o":"m 782 301 l 824 301 l 824 0 l 51 0 l 51 39 q 126 59 89 51 q 199 71 163 67 l 211 828 l 51 858 l 51 900 l 810 900 l 810 628 l 768 628 l 719 821 l 324 821 l 324 503 l 578 503 l 619 619 l 658 619 l 658 306 l 619 306 l 576 424 l 324 424 l 324 81 l 731 81 l 782 301 m 683 -283 q 599 -253 628 -283 q 576 -179 571 -222 q 624 -100 581 -136 l 756 28 l 790 28 l 692 -103 q 669 -172 661 -143 q 721 -201 678 -201 q 815 -157 772 -201 l 828 -189 q 683 -283 778 -283 z "},"Ẽ":{"ha":947,"x_min":51,"x_max":824,"o":"m 782 301 l 824 301 l 824 0 l 51 0 l 51 39 q 126 59 89 51 q 199 71 163 67 l 211 828 l 51 858 l 51 900 l 810 900 l 810 628 l 768 628 l 719 821 l 324 821 l 324 503 l 578 503 l 619 619 l 658 619 l 658 306 l 619 306 l 576 424 l 324 424 l 324 81 l 731 81 l 782 301 m 301 1040 l 278 1061 q 349 1159 324 1131 q 391 1191 374 1188 q 429 1189 408 1194 l 594 1147 l 678 1219 l 701 1197 q 633 1102 658 1131 q 591 1069 608 1074 q 551 1069 574 1064 l 386 1113 l 301 1040 z "},"F":{"ha":840,"x_min":51,"x_max":778,"o":"m 778 900 l 778 625 l 736 625 l 686 821 l 324 821 l 324 478 l 556 478 l 597 594 l 635 594 l 635 282 l 597 282 l 554 399 l 324 399 l 324 71 l 511 43 l 511 0 l 51 0 l 51 39 q 126 59 89 51 q 199 71 163 67 l 211 828 l 51 858 l 51 900 l 778 900 z "},"G":{"ha":988,"x_min":83,"x_max":933,"o":"m 546 -11 q 203 107 324 -11 q 83 447 83 225 q 142 698 83 593 q 309 859 200 803 q 571 915 418 915 q 688 907 625 915 q 814 883 750 899 l 814 614 l 769 614 l 713 804 q 536 822 625 822 q 314 789 422 822 q 234 626 261 713 q 207 443 207 540 q 299 169 207 264 q 557 74 392 74 q 693 89 621 74 l 699 379 l 510 410 l 510 453 l 933 453 l 933 414 q 877 396 907 404 q 814 382 847 388 l 814 25 q 546 -11 667 -11 z "},"Ğ":{"ha":988,"x_min":83,"x_max":933,"o":"m 546 -11 q 203 107 324 -11 q 83 447 83 225 q 142 698 83 593 q 309 859 200 803 q 571 915 418 915 q 688 907 625 915 q 814 883 750 899 l 814 614 l 769 614 l 713 804 q 536 822 625 822 q 314 789 422 822 q 234 626 261 713 q 207 443 207 540 q 299 169 207 264 q 557 74 392 74 q 693 89 621 74 l 699 379 l 510 410 l 510 453 l 933 453 l 933 414 q 877 396 907 404 q 814 382 847 388 l 814 25 q 546 -11 667 -11 m 563 1035 q 440 1078 489 1035 q 388 1186 392 1122 l 450 1201 q 488 1138 457 1163 q 563 1114 519 1114 q 636 1138 606 1114 q 674 1201 667 1163 l 736 1186 q 684 1078 733 1122 q 563 1035 635 1035 z "},"Ǧ":{"ha":988,"x_min":83,"x_max":933,"o":"m 546 -11 q 203 107 324 -11 q 83 447 83 225 q 142 698 83 593 q 309 859 200 803 q 571 915 418 915 q 688 907 625 915 q 814 883 750 899 l 814 614 l 769 614 l 713 804 q 536 822 625 822 q 314 789 422 822 q 234 626 261 713 q 207 443 207 540 q 299 169 207 264 q 557 74 392 74 q 693 89 621 74 l 699 379 l 510 410 l 510 453 l 933 453 l 933 414 q 877 396 907 404 q 814 382 847 388 l 814 25 q 546 -11 667 -11 m 531 1028 l 375 1183 l 415 1224 l 564 1111 l 710 1224 l 750 1183 l 594 1028 l 531 1028 z "},"Ĝ":{"ha":988,"x_min":83,"x_max":933,"o":"m 546 -11 q 203 107 324 -11 q 83 447 83 225 q 142 698 83 593 q 309 859 200 803 q 571 915 418 915 q 688 907 625 915 q 814 883 750 899 l 814 614 l 769 614 l 713 804 q 536 822 625 822 q 314 789 422 822 q 234 626 261 713 q 207 443 207 540 q 299 169 207 264 q 557 74 392 74 q 693 89 621 74 l 699 379 l 510 410 l 510 453 l 933 453 l 933 414 q 877 396 907 404 q 814 382 847 388 l 814 25 q 546 -11 667 -11 m 615 1228 l 769 1072 l 729 1033 l 582 1144 l 436 1033 l 396 1072 l 550 1228 l 615 1228 z "},"Ģ":{"ha":988,"x_min":83,"x_max":933,"o":"m 546 -11 q 203 107 324 -11 q 83 447 83 225 q 142 698 83 593 q 309 859 200 803 q 571 915 418 915 q 688 907 625 915 q 814 883 750 899 l 814 614 l 769 614 l 713 804 q 536 822 625 822 q 314 789 422 822 q 234 626 261 713 q 207 443 207 540 q 299 169 207 264 q 557 74 392 74 q 693 89 621 74 l 699 379 l 510 410 l 510 453 l 933 453 l 933 414 q 877 396 907 404 q 814 382 847 388 l 814 25 q 546 -11 667 -11 m 475 -299 l 499 -151 l 471 -97 q 560 -49 511 -62 q 586 -85 575 -65 q 603 -129 597 -104 q 563 -217 586 -174 q 508 -306 539 -261 l 475 -299 z "},"Ġ":{"ha":988,"x_min":83,"x_max":933,"o":"m 546 -11 q 203 107 324 -11 q 83 447 83 225 q 142 698 83 593 q 309 859 200 803 q 571 915 418 915 q 688 907 625 915 q 814 883 750 899 l 814 614 l 769 614 l 713 804 q 536 822 625 822 q 314 789 422 822 q 234 626 261 713 q 207 443 207 540 q 299 169 207 264 q 557 74 392 74 q 693 89 621 74 l 699 379 l 510 410 l 510 453 l 933 453 l 933 414 q 877 396 907 404 q 814 382 847 388 l 814 25 q 546 -11 667 -11 m 586 1211 q 624 1163 608 1190 q 644 1106 640 1135 q 597 1067 625 1083 q 540 1047 569 1050 q 481 1151 493 1088 q 528 1190 500 1174 q 586 1211 556 1206 z "},"Ḡ":{"ha":988,"x_min":83,"x_max":933,"o":"m 546 -11 q 203 107 324 -11 q 83 447 83 225 q 142 698 83 593 q 309 859 200 803 q 571 915 418 915 q 688 907 625 915 q 814 883 750 899 l 814 614 l 769 614 l 713 804 q 536 822 625 822 q 314 789 422 822 q 234 626 261 713 q 207 443 207 540 q 299 169 207 264 q 557 74 392 74 q 693 89 621 74 l 699 379 l 510 410 l 510 453 l 933 453 l 933 414 q 877 396 907 404 q 814 382 847 388 l 814 25 q 546 -11 667 -11 m 392 1089 l 392 1167 l 732 1167 l 732 1089 l 392 1089 z "},"H":{"ha":1106,"x_min":51,"x_max":1050,"o":"m 51 0 l 51 39 q 126 59 89 51 q 199 71 163 67 l 211 828 l 51 858 l 51 900 l 467 900 l 467 864 q 399 844 435 853 q 324 831 363 836 l 324 499 l 786 499 l 792 828 l 635 858 l 635 900 l 1050 900 l 1050 864 q 981 844 1018 853 q 904 831 944 836 l 904 71 l 1050 43 l 1050 0 l 635 0 l 635 36 q 708 58 672 49 q 778 71 743 67 l 785 419 l 324 419 l 324 71 l 467 43 l 467 0 l 51 0 z "},"Ħ":{"ha":1142,"x_min":71,"x_max":1068,"o":"m 71 0 l 71 38 q 147 57 110 49 q 218 69 183 65 l 228 651 l 97 651 l 97 711 l 229 711 l 232 831 l 71 860 l 71 900 l 485 900 l 485 865 q 340 832 417 843 l 340 711 l 810 711 l 813 831 l 654 860 l 654 900 l 1068 900 l 1068 865 q 998 846 1035 854 q 921 832 961 838 l 921 711 l 1047 711 l 1047 651 l 921 651 l 921 68 l 1068 42 l 1068 0 l 654 0 l 654 35 q 728 56 692 47 q 799 69 764 65 l 804 408 l 340 408 l 340 68 l 485 42 l 485 0 l 71 0 m 340 486 l 806 486 l 808 651 l 340 651 l 340 486 z "},"Ḫ":{"ha":1106,"x_min":51,"x_max":1050,"o":"m 51 0 l 51 39 q 126 59 89 51 q 199 71 163 67 l 211 828 l 51 858 l 51 900 l 467 900 l 467 864 q 399 844 435 853 q 324 831 363 836 l 324 499 l 786 499 l 792 828 l 635 858 l 635 900 l 1050 900 l 1050 864 q 981 844 1018 853 q 904 831 944 836 l 904 71 l 1050 43 l 1050 0 l 635 0 l 635 36 q 708 58 672 49 q 778 71 743 67 l 785 419 l 324 419 l 324 71 l 467 43 l 467 0 l 51 0 z "},"Ĥ":{"ha":1106,"x_min":51,"x_max":1050,"o":"m 51 0 l 51 39 q 126 59 89 51 q 199 71 163 67 l 211 828 l 51 858 l 51 900 l 467 900 l 467 864 q 399 844 435 853 q 324 831 363 836 l 324 499 l 786 499 l 792 828 l 635 858 l 635 900 l 1050 900 l 1050 864 q 981 844 1018 853 q 904 831 944 836 l 904 71 l 1050 43 l 1050 0 l 635 0 l 635 36 q 708 58 672 49 q 778 71 743 67 l 785 419 l 324 419 l 324 71 l 467 43 l 467 0 l 51 0 m 606 1228 l 760 1072 l 719 1033 l 572 1144 l 426 1033 l 386 1072 l 540 1228 l 606 1228 z "},"Ḥ":{"ha":1106,"x_min":51,"x_max":1050,"o":"m 51 0 l 51 39 q 126 59 89 51 q 199 71 163 67 l 211 828 l 51 858 l 51 900 l 467 900 l 467 864 q 399 844 435 853 q 324 831 363 836 l 324 499 l 786 499 l 792 828 l 635 858 l 635 900 l 1050 900 l 1050 864 q 981 844 1018 853 q 904 831 944 836 l 904 71 l 1050 43 l 1050 0 l 635 0 l 635 36 q 708 58 672 49 q 778 71 743 67 l 785 419 l 324 419 l 324 71 l 467 43 l 467 0 l 51 0 m 575 -101 q 611 -147 596 -121 q 631 -201 626 -174 q 586 -237 613 -222 q 532 -256 560 -251 q 475 -158 489 -219 q 575 -101 517 -112 z "},"I":{"ha":526,"x_min":51,"x_max":471,"o":"m 51 0 l 51 39 q 126 59 89 51 q 199 71 163 67 l 211 828 l 51 858 l 51 900 l 471 900 l 471 864 q 401 844 438 853 q 324 831 364 836 l 324 71 l 471 43 l 471 0 l 51 0 z "},"Ĳ":{"ha":1218,"x_min":51,"x_max":1186,"o":"m 51 0 l 51 39 q 126 59 89 51 q 199 71 163 67 l 211 828 l 51 858 l 51 900 l 471 900 l 471 864 q 401 844 438 853 q 324 831 364 836 l 324 71 l 471 43 l 471 0 l 51 0 m 589 1 l 589 306 l 629 306 l 685 81 q 743 75 717 75 q 858 96 817 75 q 928 165 900 117 l 935 828 l 732 858 l 732 900 l 1186 900 l 1186 864 q 1124 844 1158 853 q 1049 831 1090 836 l 1049 297 q 728 -12 1049 -12 q 589 1 667 -12 z "},"Í":{"ha":526,"x_min":51,"x_max":471,"o":"m 51 0 l 51 39 q 126 59 89 51 q 199 71 163 67 l 211 828 l 51 858 l 51 900 l 471 900 l 471 864 q 401 844 438 853 q 324 831 364 836 l 324 71 l 471 43 l 471 0 l 51 0 m 157 1006 l 136 1042 l 374 1238 l 389 1238 l 433 1160 q 297 1078 367 1117 q 157 1006 228 1040 z "},"Ĭ":{"ha":526,"x_min":51,"x_max":471,"o":"m 51 0 l 51 39 q 126 59 89 51 q 199 71 163 67 l 211 828 l 51 858 l 51 900 l 471 900 l 471 864 q 401 844 438 853 q 324 831 364 836 l 324 71 l 471 43 l 471 0 l 51 0 m 264 1035 q 142 1078 190 1035 q 89 1186 93 1122 l 151 1201 q 190 1138 158 1163 q 264 1114 221 1114 q 338 1138 307 1114 q 375 1201 368 1163 l 438 1186 q 385 1078 435 1122 q 264 1035 336 1035 z "},"Ǐ":{"ha":526,"x_min":51,"x_max":471,"o":"m 51 0 l 51 39 q 126 59 89 51 q 199 71 163 67 l 211 828 l 51 858 l 51 900 l 471 900 l 471 864 q 401 844 438 853 q 324 831 364 836 l 324 71 l 471 43 l 471 0 l 51 0 m 232 1028 l 76 1183 l 117 1224 l 265 1111 l 411 1224 l 451 1183 l 296 1028 l 232 1028 z "},"Î":{"ha":526,"x_min":51,"x_max":471,"o":"m 51 0 l 51 39 q 126 59 89 51 q 199 71 163 67 l 211 828 l 51 858 l 51 900 l 471 900 l 471 864 q 401 844 438 853 q 324 831 364 836 l 324 71 l 471 43 l 471 0 l 51 0 m 315 1228 l 469 1072 l 429 1033 l 282 1144 l 136 1033 l 96 1072 l 250 1228 l 315 1228 z "},"Ȉ":{"ha":526,"x_min":28,"x_max":471,"o":"m 51 0 l 51 39 q 126 59 89 51 q 199 71 163 67 l 211 828 l 51 858 l 51 900 l 471 900 l 471 864 q 401 844 438 853 q 324 831 364 836 l 324 71 l 471 43 l 471 0 l 51 0 m 233 1006 q 128 1099 179 1051 q 28 1199 76 1147 l 83 1249 l 96 1247 l 263 1031 l 233 1006 m 414 1006 q 308 1099 360 1051 q 208 1199 256 1147 l 263 1249 l 276 1247 l 442 1031 l 414 1006 z "},"Ï":{"ha":526,"x_min":51,"x_max":471,"o":"m 51 0 l 51 39 q 126 59 89 51 q 199 71 163 67 l 211 828 l 51 858 l 51 900 l 471 900 l 471 864 q 401 844 438 853 q 324 831 364 836 l 324 71 l 471 43 l 471 0 l 51 0 m 167 1200 q 218 1106 211 1158 q 176 1072 201 1086 q 125 1053 151 1057 q 91 1095 106 1071 q 69 1147 76 1119 q 114 1181 89 1167 q 167 1200 139 1196 m 401 1200 q 435 1156 421 1181 q 454 1106 450 1132 q 412 1072 436 1086 q 361 1053 388 1057 q 306 1147 318 1089 q 349 1181 324 1167 q 401 1200 374 1196 z "},"Ḯ":{"ha":526,"x_min":51,"x_max":471,"o":"m 51 0 l 51 39 q 126 59 89 51 q 199 71 163 67 l 211 828 l 51 858 l 51 900 l 471 900 l 471 864 q 401 844 438 853 q 324 831 364 836 l 324 71 l 471 43 l 471 0 l 51 0 m 115 1176 l 104 1219 l 375 1340 l 389 1335 l 410 1251 q 263 1210 336 1228 q 115 1176 189 1192 m 115 994 q 63 1083 74 1032 q 105 1117 81 1103 q 156 1135 129 1132 q 207 1044 199 1097 q 166 1013 190 1026 q 115 994 142 999 m 353 994 q 300 1083 311 1031 q 342 1117 317 1103 q 393 1135 367 1132 q 426 1094 413 1118 q 444 1044 440 1071 q 403 1013 428 1026 q 353 994 379 999 z "},"İ":{"ha":526,"x_min":51,"x_max":471,"o":"m 51 0 l 51 39 q 126 59 89 51 q 199 71 163 67 l 211 828 l 51 858 l 51 900 l 471 900 l 471 864 q 401 844 438 853 q 324 831 364 836 l 324 71 l 471 43 l 471 0 l 51 0 m 288 1211 q 326 1163 310 1190 q 346 1106 342 1135 q 299 1067 326 1083 q 242 1047 271 1050 q 182 1151 194 1088 q 229 1190 201 1174 q 288 1211 257 1206 z "},"Ị":{"ha":526,"x_min":51,"x_max":471,"o":"m 51 0 l 51 39 q 126 59 89 51 q 199 71 163 67 l 211 828 l 51 858 l 51 900 l 471 900 l 471 864 q 401 844 438 853 q 324 831 364 836 l 324 71 l 471 43 l 471 0 l 51 0 m 286 -101 q 322 -147 307 -121 q 342 -201 338 -174 q 297 -237 324 -222 q 243 -256 271 -251 q 186 -158 200 -219 q 286 -101 228 -112 z "},"Ì":{"ha":526,"x_min":51,"x_max":471,"o":"m 51 0 l 51 39 q 126 59 89 51 q 199 71 163 67 l 211 828 l 51 858 l 51 900 l 471 900 l 471 864 q 401 844 438 853 q 324 831 364 836 l 324 71 l 471 43 l 471 0 l 51 0 m 389 1006 q 249 1078 318 1040 q 114 1160 181 1117 l 157 1238 l 174 1238 l 411 1042 l 389 1006 z "},"Ỉ":{"ha":526,"x_min":51,"x_max":471,"o":"m 51 0 l 51 39 q 126 59 89 51 q 199 71 163 67 l 211 828 l 51 858 l 51 900 l 471 900 l 471 864 q 401 844 438 853 q 324 831 364 836 l 324 71 l 471 43 l 471 0 l 51 0 m 229 972 l 229 1007 q 242 1047 229 1031 q 270 1076 254 1063 q 298 1103 286 1089 q 310 1135 310 1117 q 254 1172 310 1172 q 217 1169 238 1172 q 171 1160 196 1167 l 161 1218 q 267 1233 217 1233 q 358 1210 324 1233 q 393 1144 393 1188 q 378 1094 393 1114 q 344 1059 364 1074 q 308 1031 325 1044 q 288 997 292 1017 l 283 971 l 229 972 z "},"Ȋ":{"ha":526,"x_min":51,"x_max":471,"o":"m 51 0 l 51 39 q 126 59 89 51 q 199 71 163 67 l 211 828 l 51 858 l 51 900 l 471 900 l 471 864 q 401 844 438 853 q 324 831 364 836 l 324 71 l 471 43 l 471 0 l 51 0 m 264 1201 q 385 1157 336 1201 q 438 1049 433 1113 l 375 1035 q 338 1097 368 1072 q 264 1122 307 1122 q 190 1097 219 1122 q 151 1035 160 1072 l 89 1049 q 142 1157 93 1113 q 264 1201 192 1201 z "},"Ī":{"ha":526,"x_min":51,"x_max":471,"o":"m 51 0 l 51 39 q 126 59 89 51 q 199 71 163 67 l 211 828 l 51 858 l 51 900 l 471 900 l 471 864 q 401 844 438 853 q 324 831 364 836 l 324 71 l 471 43 l 471 0 l 51 0 m 92 1089 l 92 1167 l 432 1167 l 432 1089 l 92 1089 z "},"Į":{"ha":526,"x_min":51,"x_max":471,"o":"m 51 0 l 51 39 q 126 59 89 51 q 199 71 163 67 l 211 828 l 51 858 l 51 900 l 471 900 l 471 864 q 401 844 438 853 q 324 831 364 836 l 324 71 l 471 43 l 471 0 l 51 0 m 290 -283 q 206 -253 235 -283 q 183 -179 178 -222 q 231 -100 188 -136 l 363 28 l 397 28 l 299 -103 q 276 -172 268 -143 q 328 -201 285 -201 q 422 -157 379 -201 l 435 -189 q 290 -283 385 -283 z "},"Ĩ":{"ha":526,"x_min":51,"x_max":475,"o":"m 51 0 l 51 39 q 126 59 89 51 q 199 71 163 67 l 211 828 l 51 858 l 51 900 l 471 900 l 471 864 q 401 844 438 853 q 324 831 364 836 l 324 71 l 471 43 l 471 0 l 51 0 m 75 1040 l 51 1061 q 122 1159 97 1131 q 165 1191 147 1188 q 203 1189 182 1194 l 368 1147 l 451 1219 l 475 1197 q 407 1102 432 1131 q 365 1069 382 1074 q 325 1069 347 1064 l 160 1113 l 75 1040 z "},"J":{"ha":692,"x_min":63,"x_max":660,"o":"m 63 1 l 63 306 l 103 306 l 158 81 q 217 75 190 75 q 332 96 290 75 q 401 165 374 117 l 408 828 l 206 858 l 206 900 l 660 900 l 660 864 q 598 844 632 853 q 522 831 564 836 l 522 297 q 201 -12 522 -12 q 63 1 140 -12 z "},"Ĵ":{"ha":692,"x_min":63,"x_max":672,"o":"m 63 1 l 63 306 l 103 306 l 158 81 q 217 75 190 75 q 332 96 290 75 q 401 165 374 117 l 408 828 l 206 858 l 206 900 l 660 900 l 660 864 q 598 844 632 853 q 522 831 564 836 l 522 297 q 201 -12 522 -12 q 63 1 140 -12 m 518 1228 l 672 1072 l 632 1033 l 485 1144 l 339 1033 l 299 1072 l 453 1228 l 518 1228 z "},"K":{"ha":1035,"x_min":51,"x_max":1003,"o":"m 51 0 l 51 39 q 126 59 89 51 q 199 71 163 67 l 211 828 l 51 858 l 51 900 l 471 900 l 471 864 q 401 844 438 853 q 324 831 364 836 l 324 71 l 471 43 l 471 0 l 51 0 m 592 0 l 592 36 q 714 72 651 58 l 371 458 l 715 826 l 589 857 l 589 900 l 976 900 l 976 865 q 833 819 907 833 l 513 482 l 879 76 l 1003 43 l 1003 0 l 592 0 z "},"Ķ":{"ha":1035,"x_min":51,"x_max":1003,"o":"m 51 0 l 51 39 q 126 59 89 51 q 199 71 163 67 l 211 828 l 51 858 l 51 900 l 471 900 l 471 864 q 401 844 438 853 q 324 831 364 836 l 324 71 l 471 43 l 471 0 l 51 0 m 592 0 l 592 36 q 714 72 651 58 l 371 458 l 715 826 l 589 857 l 589 900 l 976 900 l 976 865 q 833 819 907 833 l 513 482 l 879 76 l 1003 43 l 1003 0 l 592 0 m 458 -299 l 482 -151 l 454 -97 q 543 -49 494 -62 q 569 -85 558 -65 q 586 -129 581 -104 q 546 -217 569 -174 q 492 -306 522 -261 l 458 -299 z "},"L":{"ha":819,"x_min":51,"x_max":757,"o":"m 715 364 l 757 364 l 757 0 l 51 0 l 51 39 q 126 59 89 51 q 199 71 163 67 l 211 828 l 51 858 l 51 900 l 492 900 l 492 864 q 413 844 456 853 q 324 831 369 836 l 324 79 l 663 79 l 715 364 z "},"Ǉ":{"ha":1519,"x_min":51,"x_max":1488,"o":"m 715 364 l 757 364 l 757 0 l 51 0 l 51 39 q 126 59 89 51 q 199 71 163 67 l 211 828 l 51 858 l 51 900 l 492 900 l 492 864 q 413 844 456 853 q 324 831 369 836 l 324 79 l 663 79 l 715 364 m 890 1 l 890 306 l 931 306 l 986 81 q 1044 75 1018 75 q 1160 96 1118 75 q 1229 165 1201 117 l 1236 828 l 1033 858 l 1033 900 l 1488 900 l 1488 864 q 1426 844 1460 853 q 1350 831 1392 836 l 1350 297 q 1029 -12 1350 -12 q 890 1 968 -12 z "},"Ĺ":{"ha":819,"x_min":51,"x_max":757,"o":"m 715 364 l 757 364 l 757 0 l 51 0 l 51 39 q 126 59 89 51 q 199 71 163 67 l 211 828 l 51 858 l 51 900 l 492 900 l 492 864 q 413 844 456 853 q 324 831 369 836 l 324 79 l 663 79 l 715 364 m 169 1006 l 149 1042 l 386 1238 l 401 1238 l 446 1160 q 310 1078 379 1117 q 169 1006 240 1040 z "},"Ľ":{"ha":883,"x_min":46,"x_max":751,"o":"m 710 364 l 751 364 l 751 0 l 46 0 l 46 39 q 120 59 83 51 q 193 71 157 67 l 206 828 l 46 858 l 46 900 l 486 900 l 486 864 q 407 844 450 853 q 318 831 364 836 l 318 79 l 657 79 l 710 364 m 622 757 l 597 990 q 707 990 653 999 l 682 757 l 622 757 z "},"Ļ":{"ha":819,"x_min":51,"x_max":757,"o":"m 715 364 l 757 364 l 757 0 l 51 0 l 51 39 q 126 59 89 51 q 199 71 163 67 l 211 828 l 51 858 l 51 900 l 492 900 l 492 864 q 413 844 456 853 q 324 831 369 836 l 324 79 l 663 79 l 715 364 m 365 -299 l 389 -151 l 361 -97 q 450 -49 401 -62 q 476 -85 465 -65 q 493 -129 488 -104 q 453 -217 476 -174 q 399 -306 429 -261 l 365 -299 z "},"Ŀ":{"ha":860,"x_min":51,"x_max":757,"o":"m 715 364 l 757 364 l 757 0 l 51 0 l 51 39 q 126 59 89 51 q 199 71 163 67 l 211 828 l 51 858 l 51 900 l 492 900 l 492 864 q 413 844 456 853 q 324 831 369 836 l 324 79 l 663 79 l 715 364 z "},"Ḷ":{"ha":819,"x_min":51,"x_max":757,"o":"m 715 364 l 757 364 l 757 0 l 51 0 l 51 39 q 126 59 89 51 q 199 71 163 67 l 211 828 l 51 858 l 51 900 l 492 900 l 492 864 q 413 844 456 853 q 324 831 369 836 l 324 79 l 663 79 l 715 364 m 447 -101 q 483 -147 468 -121 q 503 -201 499 -174 q 458 -237 485 -222 q 404 -256 432 -251 q 347 -158 361 -219 q 447 -101 389 -112 z "},"ǈ":{"ha":1163,"x_min":51,"x_max":1069,"o":"m 715 364 l 757 364 l 757 0 l 51 0 l 51 39 q 126 59 89 51 q 199 71 163 67 l 211 828 l 51 858 l 51 900 l 492 900 l 492 864 q 413 844 456 853 q 324 831 369 836 l 324 79 l 663 79 l 715 364 z "},"Ḻ":{"ha":819,"x_min":51,"x_max":757,"o":"m 715 364 l 757 364 l 757 0 l 51 0 l 51 39 q 126 59 89 51 q 199 71 163 67 l 211 828 l 51 858 l 51 900 l 492 900 l 492 864 q 413 844 456 853 q 324 831 369 836 l 324 79 l 663 79 l 715 364 z "},"Ł":{"ha":868,"x_min":71,"x_max":776,"o":"m 735 364 l 776 364 l 776 0 l 71 0 l 71 39 q 145 59 108 51 q 218 71 182 67 l 231 828 l 71 858 l 71 900 l 511 900 l 511 864 q 432 844 475 853 q 343 831 389 836 l 343 79 l 682 79 l 735 364 m 111 314 l 75 371 l 500 686 l 536 629 l 111 314 z "},"M":{"ha":1321,"x_min":44,"x_max":1275,"o":"m 1122 71 l 1275 43 l 1275 0 l 851 0 l 851 39 q 1000 71 924 63 l 1000 813 l 671 0 l 610 0 l 297 797 l 286 71 l 456 43 l 456 0 l 44 0 l 44 39 q 194 71 119 63 l 221 828 l 56 858 l 56 900 l 375 900 l 653 182 l 947 900 l 1263 900 l 1263 864 q 1191 844 1229 853 q 1111 831 1153 836 l 1122 71 z "},"Ṃ":{"ha":1321,"x_min":44,"x_max":1275,"o":"m 1122 71 l 1275 43 l 1275 0 l 851 0 l 851 39 q 1000 71 924 63 l 1000 813 l 671 0 l 610 0 l 297 797 l 286 71 l 456 43 l 456 0 l 44 0 l 44 39 q 194 71 119 63 l 221 828 l 56 858 l 56 900 l 375 900 l 653 182 l 947 900 l 1263 900 l 1263 864 q 1191 844 1229 853 q 1111 831 1153 836 l 1122 71 m 658 -101 q 694 -147 679 -121 q 714 -201 710 -174 q 669 -237 696 -222 q 615 -256 643 -251 q 558 -158 572 -219 q 658 -101 600 -112 z "},"N":{"ha":1088,"x_min":51,"x_max":1054,"o":"m 663 900 l 1054 900 l 1054 864 q 910 831 982 839 l 908 0 l 785 0 l 289 751 l 289 71 l 458 43 l 458 0 l 53 0 l 53 39 q 197 71 124 63 l 210 828 l 51 858 l 51 900 l 332 900 l 829 147 l 817 832 l 663 858 l 663 900 z "},"Ǌ":{"ha":1779,"x_min":51,"x_max":1747,"o":"m 663 900 l 1054 900 l 1054 864 q 910 831 982 839 l 908 0 l 785 0 l 289 751 l 289 71 l 458 43 l 458 0 l 53 0 l 53 39 q 197 71 124 63 l 210 828 l 51 858 l 51 900 l 332 900 l 829 147 l 817 832 l 663 858 l 663 900 m 1150 1 l 1150 306 l 1190 306 l 1246 81 q 1304 75 1278 75 q 1419 96 1378 75 q 1489 165 1461 117 l 1496 828 l 1293 858 l 1293 900 l 1747 900 l 1747 864 q 1685 844 1719 853 q 1610 831 1651 836 l 1610 297 q 1289 -12 1610 -12 q 1150 1 1228 -12 z "},"Ń":{"ha":1088,"x_min":51,"x_max":1054,"o":"m 663 900 l 1054 900 l 1054 864 q 910 831 982 839 l 908 0 l 785 0 l 289 751 l 289 71 l 458 43 l 458 0 l 53 0 l 53 39 q 197 71 124 63 l 210 828 l 51 858 l 51 900 l 332 900 l 829 147 l 817 832 l 663 858 l 663 900 m 440 1006 l 419 1042 l 657 1238 l 672 1238 l 717 1160 q 581 1078 650 1117 q 440 1006 511 1040 z "},"Ň":{"ha":1088,"x_min":51,"x_max":1054,"o":"m 663 900 l 1054 900 l 1054 864 q 910 831 982 839 l 908 0 l 785 0 l 289 751 l 289 71 l 458 43 l 458 0 l 53 0 l 53 39 q 197 71 124 63 l 210 828 l 51 858 l 51 900 l 332 900 l 829 147 l 817 832 l 663 858 l 663 900 m 515 1028 l 360 1183 l 400 1224 l 549 1111 l 694 1224 l 735 1183 l 579 1028 l 515 1028 z "},"Ņ":{"ha":1088,"x_min":51,"x_max":1054,"o":"m 663 900 l 1054 900 l 1054 864 q 910 831 982 839 l 908 0 l 785 0 l 289 751 l 289 71 l 458 43 l 458 0 l 53 0 l 53 39 q 197 71 124 63 l 210 828 l 51 858 l 51 900 l 332 900 l 829 147 l 817 832 l 663 858 l 663 900 m 488 -299 l 511 -151 l 483 -97 q 572 -49 524 -62 q 599 -85 588 -65 q 615 -129 610 -104 q 575 -217 599 -174 q 521 -306 551 -261 l 488 -299 z "},"Ṅ":{"ha":1088,"x_min":51,"x_max":1054,"o":"m 663 900 l 1054 900 l 1054 864 q 910 831 982 839 l 908 0 l 785 0 l 289 751 l 289 71 l 458 43 l 458 0 l 53 0 l 53 39 q 197 71 124 63 l 210 828 l 51 858 l 51 900 l 332 900 l 829 147 l 817 832 l 663 858 l 663 900 m 571 1211 q 609 1163 593 1190 q 629 1106 625 1135 q 582 1067 610 1083 q 525 1047 554 1050 q 465 1151 478 1088 q 513 1190 485 1174 q 571 1211 540 1206 z "},"Ṇ":{"ha":1088,"x_min":51,"x_max":1054,"o":"m 663 900 l 1054 900 l 1054 864 q 910 831 982 839 l 908 0 l 785 0 l 289 751 l 289 71 l 458 43 l 458 0 l 53 0 l 53 39 q 197 71 124 63 l 210 828 l 51 858 l 51 900 l 332 900 l 829 147 l 817 832 l 663 858 l 663 900 m 569 -101 q 606 -147 590 -121 q 625 -201 621 -174 q 581 -237 607 -222 q 526 -256 554 -251 q 469 -158 483 -219 q 569 -101 511 -112 z "},"Ŋ":{"ha":1089,"x_min":51,"x_max":1054,"o":"m 667 900 l 1054 900 l 1054 864 q 910 831 982 839 l 908 11 q 846 -159 908 -89 q 669 -275 783 -229 l 657 -254 l 813 -60 l 289 751 l 289 71 l 454 43 l 454 0 l 53 0 l 53 39 q 197 71 124 63 l 210 828 l 51 858 l 51 900 l 332 900 l 829 139 l 817 832 l 667 858 l 667 900 z "},"ǋ":{"ha":1431,"x_min":51,"x_max":1338,"o":"m 663 900 l 1054 900 l 1054 864 q 910 831 982 839 l 908 0 l 785 0 l 289 751 l 289 71 l 458 43 l 458 0 l 53 0 l 53 39 q 197 71 124 63 l 210 828 l 51 858 l 51 900 l 332 900 l 829 147 l 817 832 l 663 858 l 663 900 z "},"Ṉ":{"ha":1088,"x_min":51,"x_max":1054,"o":"m 663 900 l 1054 900 l 1054 864 q 910 831 982 839 l 908 0 l 785 0 l 289 751 l 289 71 l 458 43 l 458 0 l 53 0 l 53 39 q 197 71 124 63 l 210 828 l 51 858 l 51 900 l 332 900 l 829 147 l 817 832 l 663 858 l 663 900 z "},"Ñ":{"ha":1088,"x_min":51,"x_max":1054,"o":"m 663 900 l 1054 900 l 1054 864 q 910 831 982 839 l 908 0 l 785 0 l 289 751 l 289 71 l 458 43 l 458 0 l 53 0 l 53 39 q 197 71 124 63 l 210 828 l 51 858 l 51 900 l 332 900 l 829 147 l 817 832 l 663 858 l 663 900 m 358 1040 l 335 1061 q 406 1159 381 1131 q 448 1191 431 1188 q 486 1189 465 1194 l 651 1147 l 735 1219 l 758 1197 q 690 1102 715 1131 q 648 1069 665 1074 q 608 1069 631 1064 l 443 1113 l 358 1040 z "},"O":{"ha":993,"x_min":85,"x_max":910,"o":"m 486 -12 q 276 44 367 -12 q 135 201 186 100 q 85 439 85 303 q 139 685 85 578 q 288 852 193 792 q 504 913 383 913 q 716 856 625 913 q 858 699 807 800 q 910 463 910 597 q 856 215 910 322 q 708 48 803 108 q 486 -12 613 -12 m 496 68 q 647 117 582 68 q 749 252 713 165 q 785 456 785 339 q 749 651 785 568 q 649 781 714 735 q 494 826 583 826 q 392 810 443 826 q 294 763 340 794 q 208 442 208 611 q 244 247 208 331 q 346 115 281 163 q 496 68 411 68 z "},"Ó":{"ha":993,"x_min":85,"x_max":910,"o":"m 486 -12 q 276 44 367 -12 q 135 201 186 100 q 85 439 85 303 q 139 685 85 578 q 288 852 193 792 q 504 913 383 913 q 716 856 625 913 q 858 699 807 800 q 910 463 910 597 q 856 215 910 322 q 708 48 803 108 q 486 -12 613 -12 m 496 68 q 647 117 582 68 q 749 252 713 165 q 785 456 785 339 q 749 651 785 568 q 649 781 714 735 q 494 826 583 826 q 392 810 443 826 q 294 763 340 794 q 208 442 208 611 q 244 247 208 331 q 346 115 281 163 q 496 68 411 68 m 392 1006 l 371 1042 l 608 1238 l 624 1238 l 668 1160 q 532 1078 601 1117 q 392 1006 463 1040 z "},"Ŏ":{"ha":993,"x_min":85,"x_max":910,"o":"m 486 -12 q 276 44 367 -12 q 135 201 186 100 q 85 439 85 303 q 139 685 85 578 q 288 852 193 792 q 504 913 383 913 q 716 856 625 913 q 858 699 807 800 q 910 463 910 597 q 856 215 910 322 q 708 48 803 108 q 486 -12 613 -12 m 496 68 q 647 117 582 68 q 749 252 713 165 q 785 456 785 339 q 749 651 785 568 q 649 781 714 735 q 494 826 583 826 q 392 810 443 826 q 294 763 340 794 q 208 442 208 611 q 244 247 208 331 q 346 115 281 163 q 496 68 411 68 m 497 1035 q 375 1078 424 1035 q 322 1186 326 1122 l 385 1201 q 423 1138 392 1163 q 497 1114 454 1114 q 571 1138 540 1114 q 608 1201 601 1163 l 671 1186 q 619 1078 668 1122 q 497 1035 569 1035 z "},"Ǒ":{"ha":993,"x_min":85,"x_max":910,"o":"m 486 -12 q 276 44 367 -12 q 135 201 186 100 q 85 439 85 303 q 139 685 85 578 q 288 852 193 792 q 504 913 383 913 q 716 856 625 913 q 858 699 807 800 q 910 463 910 597 q 856 215 910 322 q 708 48 803 108 q 486 -12 613 -12 m 496 68 q 647 117 582 68 q 749 252 713 165 q 785 456 785 339 q 749 651 785 568 q 649 781 714 735 q 494 826 583 826 q 392 810 443 826 q 294 763 340 794 q 208 442 208 611 q 244 247 208 331 q 346 115 281 163 q 496 68 411 68 m 467 1028 l 311 1183 l 351 1224 l 500 1111 l 646 1224 l 686 1183 l 531 1028 l 467 1028 z "},"Ô":{"ha":993,"x_min":85,"x_max":910,"o":"m 486 -12 q 276 44 367 -12 q 135 201 186 100 q 85 439 85 303 q 139 685 85 578 q 288 852 193 792 q 504 913 383 913 q 716 856 625 913 q 858 699 807 800 q 910 463 910 597 q 856 215 910 322 q 708 48 803 108 q 486 -12 613 -12 m 496 68 q 647 117 582 68 q 749 252 713 165 q 785 456 785 339 q 749 651 785 568 q 649 781 714 735 q 494 826 583 826 q 392 810 443 826 q 294 763 340 794 q 208 442 208 611 q 244 247 208 331 q 346 115 281 163 q 496 68 411 68 m 550 1228 l 704 1072 l 664 1033 l 517 1144 l 371 1033 l 331 1072 l 485 1228 l 550 1228 z "},"Ố":{"ha":993,"x_min":85,"x_max":910,"o":"m 486 -12 q 276 44 367 -12 q 135 201 186 100 q 85 439 85 303 q 139 685 85 578 q 288 852 193 792 q 504 913 383 913 q 716 856 625 913 q 858 699 807 800 q 910 463 910 597 q 856 215 910 322 q 708 48 803 108 q 486 -12 613 -12 m 496 68 q 647 117 582 68 q 749 252 713 165 q 785 456 785 339 q 749 651 785 568 q 649 781 714 735 q 494 826 583 826 q 392 810 443 826 q 294 763 340 794 q 208 442 208 611 q 244 247 208 331 q 346 115 281 163 q 496 68 411 68 m 361 1176 l 350 1219 l 621 1340 l 636 1335 l 657 1251 q 509 1210 583 1228 q 361 1176 435 1192 m 357 992 l 321 1028 l 464 1153 l 526 1153 l 669 1028 l 633 992 l 496 1076 l 357 992 z "},"Ộ":{"ha":993,"x_min":85,"x_max":910,"o":"m 486 -12 q 276 44 367 -12 q 135 201 186 100 q 85 439 85 303 q 139 685 85 578 q 288 852 193 792 q 504 913 383 913 q 716 856 625 913 q 858 699 807 800 q 910 463 910 597 q 856 215 910 322 q 708 48 803 108 q 486 -12 613 -12 m 496 68 q 647 117 582 68 q 749 252 713 165 q 785 456 785 339 q 749 651 785 568 q 649 781 714 735 q 494 826 583 826 q 392 810 443 826 q 294 763 340 794 q 208 442 208 611 q 244 247 208 331 q 346 115 281 163 q 496 68 411 68 m 519 -101 q 556 -147 540 -121 q 575 -201 571 -174 q 531 -237 557 -222 q 476 -256 504 -251 q 419 -158 433 -219 q 519 -101 461 -112 m 550 1228 l 704 1072 l 664 1033 l 517 1144 l 371 1033 l 331 1072 l 485 1228 l 550 1228 z "},"Ồ":{"ha":993,"x_min":85,"x_max":910,"o":"m 486 -12 q 276 44 367 -12 q 135 201 186 100 q 85 439 85 303 q 139 685 85 578 q 288 852 193 792 q 504 913 383 913 q 716 856 625 913 q 858 699 807 800 q 910 463 910 597 q 856 215 910 322 q 708 48 803 108 q 486 -12 613 -12 m 496 68 q 647 117 582 68 q 749 252 713 165 q 785 456 785 339 q 749 651 785 568 q 649 781 714 735 q 494 826 583 826 q 392 810 443 826 q 294 763 340 794 q 208 442 208 611 q 244 247 208 331 q 346 115 281 163 q 496 68 411 68 m 635 1176 q 487 1210 561 1192 q 339 1251 413 1228 l 360 1335 l 374 1340 l 646 1219 l 635 1176 m 361 992 l 325 1028 l 469 1153 l 532 1153 l 675 1028 l 639 992 l 500 1076 l 361 992 z "},"Ổ":{"ha":993,"x_min":85,"x_max":910,"o":"m 486 -12 q 276 44 367 -12 q 135 201 186 100 q 85 439 85 303 q 139 685 85 578 q 288 852 193 792 q 504 913 383 913 q 716 856 625 913 q 858 699 807 800 q 910 463 910 597 q 856 215 910 322 q 708 48 803 108 q 486 -12 613 -12 m 496 68 q 647 117 582 68 q 749 252 713 165 q 785 456 785 339 q 749 651 785 568 q 649 781 714 735 q 494 826 583 826 q 392 810 443 826 q 294 763 340 794 q 208 442 208 611 q 244 247 208 331 q 346 115 281 163 q 496 68 411 68 m 601 1118 l 601 1144 q 619 1184 601 1169 q 653 1211 636 1199 q 671 1242 671 1224 q 624 1268 671 1268 q 590 1266 608 1268 q 550 1258 572 1264 l 540 1310 q 588 1320 564 1317 q 635 1324 613 1324 q 719 1305 688 1324 q 750 1253 750 1286 q 728 1201 750 1219 q 684 1169 707 1183 q 656 1136 661 1156 l 650 1118 l 601 1118 m 360 990 l 319 1028 l 467 1154 l 531 1154 l 678 1028 l 639 990 l 497 1078 l 360 990 z "},"Ỗ":{"ha":993,"x_min":85,"x_max":910,"o":"m 486 -12 q 276 44 367 -12 q 135 201 186 100 q 85 439 85 303 q 139 685 85 578 q 288 852 193 792 q 504 913 383 913 q 716 856 625 913 q 858 699 807 800 q 910 463 910 597 q 856 215 910 322 q 708 48 803 108 q 486 -12 613 -12 m 496 68 q 647 117 582 68 q 749 252 713 165 q 785 456 785 339 q 749 651 785 568 q 649 781 714 735 q 494 826 583 826 q 392 810 443 826 q 294 763 340 794 q 208 442 208 611 q 244 247 208 331 q 346 115 281 163 q 496 68 411 68 m 307 1188 l 286 1207 q 352 1278 328 1254 q 396 1308 376 1301 q 440 1308 415 1314 l 596 1276 l 688 1328 l 707 1310 q 642 1239 667 1263 q 597 1210 617 1215 q 551 1208 576 1204 l 399 1240 l 307 1188 m 357 990 l 321 1026 l 465 1153 l 526 1153 l 669 1026 l 633 990 l 496 1075 l 357 990 z "},"Ȍ":{"ha":993,"x_min":85,"x_max":910,"o":"m 486 -12 q 276 44 367 -12 q 135 201 186 100 q 85 439 85 303 q 139 685 85 578 q 288 852 193 792 q 504 913 383 913 q 716 856 625 913 q 858 699 807 800 q 910 463 910 597 q 856 215 910 322 q 708 48 803 108 q 486 -12 613 -12 m 496 68 q 647 117 582 68 q 749 252 713 165 q 785 456 785 339 q 749 651 785 568 q 649 781 714 735 q 494 826 583 826 q 392 810 443 826 q 294 763 340 794 q 208 442 208 611 q 244 247 208 331 q 346 115 281 163 q 496 68 411 68 m 468 1006 q 363 1099 414 1051 q 263 1199 311 1147 l 318 1249 l 331 1247 l 497 1031 l 468 1006 m 649 1006 q 542 1099 594 1051 q 443 1199 490 1147 l 497 1249 l 511 1247 l 676 1031 l 649 1006 z "},"Ö":{"ha":993,"x_min":85,"x_max":910,"o":"m 486 -12 q 276 44 367 -12 q 135 201 186 100 q 85 439 85 303 q 139 685 85 578 q 288 852 193 792 q 504 913 383 913 q 716 856 625 913 q 858 699 807 800 q 910 463 910 597 q 856 215 910 322 q 708 48 803 108 q 486 -12 613 -12 m 496 68 q 647 117 582 68 q 749 252 713 165 q 785 456 785 339 q 749 651 785 568 q 649 781 714 735 q 494 826 583 826 q 392 810 443 826 q 294 763 340 794 q 208 442 208 611 q 244 247 208 331 q 346 115 281 163 q 496 68 411 68 m 401 1200 q 453 1106 446 1158 q 411 1072 436 1086 q 360 1053 386 1057 q 326 1095 340 1071 q 304 1147 311 1119 q 349 1181 324 1167 q 401 1200 374 1196 m 636 1200 q 670 1156 656 1181 q 689 1106 685 1132 q 647 1072 671 1086 q 596 1053 622 1057 q 540 1147 553 1089 q 583 1181 558 1167 q 636 1200 608 1196 z "},"Ȫ":{"ha":993,"x_min":85,"x_max":910,"o":"m 486 -12 q 276 44 367 -12 q 135 201 186 100 q 85 439 85 303 q 139 685 85 578 q 288 852 193 792 q 504 913 383 913 q 716 856 625 913 q 858 699 807 800 q 910 463 910 597 q 856 215 910 322 q 708 48 803 108 q 486 -12 613 -12 m 496 68 q 647 117 582 68 q 749 252 713 165 q 785 456 785 339 q 749 651 785 568 q 649 781 714 735 q 494 826 583 826 q 392 810 443 826 q 294 763 340 794 q 208 442 208 611 q 244 247 208 331 q 346 115 281 163 q 496 68 411 68 m 319 1213 l 319 1285 l 678 1285 l 678 1213 l 319 1213 m 401 1131 q 453 1040 444 1094 q 411 1008 436 1022 q 361 992 386 994 q 307 1081 319 1028 q 351 1114 326 1100 q 401 1131 375 1128 m 639 1131 q 672 1090 658 1114 q 690 1040 686 1067 q 649 1008 674 1022 q 599 992 624 994 q 544 1081 557 1026 q 588 1114 563 1100 q 639 1131 613 1128 z "},"Ȱ":{"ha":993,"x_min":85,"x_max":910,"o":"m 486 -12 q 276 44 367 -12 q 135 201 186 100 q 85 439 85 303 q 139 685 85 578 q 288 852 193 792 q 504 913 383 913 q 716 856 625 913 q 858 699 807 800 q 910 463 910 597 q 856 215 910 322 q 708 48 803 108 q 486 -12 613 -12 m 496 68 q 647 117 582 68 q 749 252 713 165 q 785 456 785 339 q 749 651 785 568 q 649 781 714 735 q 494 826 583 826 q 392 810 443 826 q 294 763 340 794 q 208 442 208 611 q 244 247 208 331 q 346 115 281 163 q 496 68 411 68 m 333 1213 l 333 1286 l 664 1286 l 664 1213 l 333 1213 m 518 1135 q 571 1040 563 1096 q 529 1006 554 1021 q 479 989 504 992 q 424 1081 436 1025 q 518 1135 463 1125 z "},"Ọ":{"ha":993,"x_min":85,"x_max":910,"o":"m 486 -12 q 276 44 367 -12 q 135 201 186 100 q 85 439 85 303 q 139 685 85 578 q 288 852 193 792 q 504 913 383 913 q 716 856 625 913 q 858 699 807 800 q 910 463 910 597 q 856 215 910 322 q 708 48 803 108 q 486 -12 613 -12 m 496 68 q 647 117 582 68 q 749 252 713 165 q 785 456 785 339 q 749 651 785 568 q 649 781 714 735 q 494 826 583 826 q 392 810 443 826 q 294 763 340 794 q 208 442 208 611 q 244 247 208 331 q 346 115 281 163 q 496 68 411 68 m 519 -101 q 556 -147 540 -121 q 575 -201 571 -174 q 531 -237 557 -222 q 476 -256 504 -251 q 419 -158 433 -219 q 519 -101 461 -112 z "},"Ò":{"ha":993,"x_min":85,"x_max":910,"o":"m 486 -12 q 276 44 367 -12 q 135 201 186 100 q 85 439 85 303 q 139 685 85 578 q 288 852 193 792 q 504 913 383 913 q 716 856 625 913 q 858 699 807 800 q 910 463 910 597 q 856 215 910 322 q 708 48 803 108 q 486 -12 613 -12 m 496 68 q 647 117 582 68 q 749 252 713 165 q 785 456 785 339 q 749 651 785 568 q 649 781 714 735 q 494 826 583 826 q 392 810 443 826 q 294 763 340 794 q 208 442 208 611 q 244 247 208 331 q 346 115 281 163 q 496 68 411 68 m 624 1006 q 484 1078 553 1040 q 349 1160 415 1117 l 392 1238 l 408 1238 l 646 1042 l 624 1006 z "},"Ỏ":{"ha":993,"x_min":85,"x_max":910,"o":"m 486 -12 q 276 44 367 -12 q 135 201 186 100 q 85 439 85 303 q 139 685 85 578 q 288 852 193 792 q 504 913 383 913 q 716 856 625 913 q 858 699 807 800 q 910 463 910 597 q 856 215 910 322 q 708 48 803 108 q 486 -12 613 -12 m 496 68 q 647 117 582 68 q 749 252 713 165 q 785 456 785 339 q 749 651 785 568 q 649 781 714 735 q 494 826 583 826 q 392 810 443 826 q 294 763 340 794 q 208 442 208 611 q 244 247 208 331 q 346 115 281 163 q 496 68 411 68 m 464 972 l 464 1007 q 476 1047 464 1031 q 505 1076 489 1063 q 533 1103 521 1089 q 544 1135 544 1117 q 489 1172 544 1172 q 451 1169 472 1172 q 406 1160 431 1167 l 396 1218 q 501 1233 451 1233 q 593 1210 558 1233 q 628 1144 628 1188 q 613 1094 628 1114 q 579 1059 599 1074 q 543 1031 560 1044 q 522 997 526 1017 l 518 971 l 464 972 z "},"Ơ":{"ha":1014,"x_min":85,"x_max":910,"o":"m 486 -12 q 275 44 365 -12 q 135 201 185 100 q 85 439 85 303 q 138 684 85 576 q 285 852 192 792 q 501 913 379 913 q 622 908 561 913 q 734 898 682 903 q 821 893 786 893 l 786 1026 l 875 1049 q 910 918 910 969 q 813 839 910 828 l 715 851 q 857 690 804 793 q 910 458 910 588 q 856 215 910 321 q 706 48 801 108 q 486 -12 611 -12 m 496 68 q 647 117 582 68 q 749 252 713 165 q 785 456 785 339 q 749 653 785 569 q 649 781 714 736 q 494 826 583 826 q 300 765 383 826 q 208 443 208 625 q 245 247 208 331 q 347 115 282 163 q 496 68 411 68 z "},"Ớ":{"ha":1014,"x_min":85,"x_max":910,"o":"m 486 -12 q 275 44 365 -12 q 135 201 185 100 q 85 439 85 303 q 138 684 85 576 q 285 852 192 792 q 501 913 379 913 q 622 908 561 913 q 734 898 682 903 q 821 893 786 893 l 786 1026 l 875 1049 q 910 918 910 969 q 813 839 910 828 l 715 851 q 857 690 804 793 q 910 458 910 588 q 856 215 910 321 q 706 48 801 108 q 486 -12 611 -12 m 496 68 q 647 117 582 68 q 749 252 713 165 q 785 456 785 339 q 749 653 785 569 q 649 781 714 736 q 494 826 583 826 q 300 765 383 826 q 208 443 208 625 q 245 247 208 331 q 347 115 282 163 q 496 68 411 68 m 392 1006 l 371 1042 l 608 1238 l 624 1238 l 668 1160 q 532 1078 601 1117 q 392 1006 463 1040 z "},"Ợ":{"ha":1014,"x_min":85,"x_max":910,"o":"m 486 -12 q 275 44 365 -12 q 135 201 185 100 q 85 439 85 303 q 138 684 85 576 q 285 852 192 792 q 501 913 379 913 q 622 908 561 913 q 734 898 682 903 q 821 893 786 893 l 786 1026 l 875 1049 q 910 918 910 969 q 813 839 910 828 l 715 851 q 857 690 804 793 q 910 458 910 588 q 856 215 910 321 q 706 48 801 108 q 486 -12 611 -12 m 496 68 q 647 117 582 68 q 749 252 713 165 q 785 456 785 339 q 749 653 785 569 q 649 781 714 736 q 494 826 583 826 q 300 765 383 826 q 208 443 208 625 q 245 247 208 331 q 347 115 282 163 q 496 68 411 68 m 519 -101 q 556 -147 540 -121 q 575 -201 571 -174 q 531 -237 557 -222 q 476 -256 504 -251 q 419 -158 433 -219 q 519 -101 461 -112 z "},"Ờ":{"ha":1014,"x_min":85,"x_max":910,"o":"m 486 -12 q 275 44 365 -12 q 135 201 185 100 q 85 439 85 303 q 138 684 85 576 q 285 852 192 792 q 501 913 379 913 q 622 908 561 913 q 734 898 682 903 q 821 893 786 893 l 786 1026 l 875 1049 q 910 918 910 969 q 813 839 910 828 l 715 851 q 857 690 804 793 q 910 458 910 588 q 856 215 910 321 q 706 48 801 108 q 486 -12 611 -12 m 496 68 q 647 117 582 68 q 749 252 713 165 q 785 456 785 339 q 749 653 785 569 q 649 781 714 736 q 494 826 583 826 q 300 765 383 826 q 208 443 208 625 q 245 247 208 331 q 347 115 282 163 q 496 68 411 68 m 624 1006 q 484 1078 553 1040 q 349 1160 415 1117 l 392 1238 l 408 1238 l 646 1042 l 624 1006 z "},"Ở":{"ha":1014,"x_min":85,"x_max":910,"o":"m 486 -12 q 275 44 365 -12 q 135 201 185 100 q 85 439 85 303 q 138 684 85 576 q 285 852 192 792 q 501 913 379 913 q 622 908 561 913 q 734 898 682 903 q 821 893 786 893 l 786 1026 l 875 1049 q 910 918 910 969 q 813 839 910 828 l 715 851 q 857 690 804 793 q 910 458 910 588 q 856 215 910 321 q 706 48 801 108 q 486 -12 611 -12 m 496 68 q 647 117 582 68 q 749 252 713 165 q 785 456 785 339 q 749 653 785 569 q 649 781 714 736 q 494 826 583 826 q 300 765 383 826 q 208 443 208 625 q 245 247 208 331 q 347 115 282 163 q 496 68 411 68 m 464 972 l 464 1007 q 476 1047 464 1031 q 505 1076 489 1063 q 533 1103 521 1089 q 544 1135 544 1117 q 489 1172 544 1172 q 451 1169 472 1172 q 406 1160 431 1167 l 396 1218 q 501 1233 451 1233 q 593 1210 558 1233 q 628 1144 628 1188 q 613 1094 628 1114 q 579 1059 599 1074 q 543 1031 560 1044 q 522 997 526 1017 l 518 971 l 464 972 z "},"Ỡ":{"ha":1014,"x_min":85,"x_max":910,"o":"m 486 -12 q 275 44 365 -12 q 135 201 185 100 q 85 439 85 303 q 138 684 85 576 q 285 852 192 792 q 501 913 379 913 q 622 908 561 913 q 734 898 682 903 q 821 893 786 893 l 786 1026 l 875 1049 q 910 918 910 969 q 813 839 910 828 l 715 851 q 857 690 804 793 q 910 458 910 588 q 856 215 910 321 q 706 48 801 108 q 486 -12 611 -12 m 496 68 q 647 117 582 68 q 749 252 713 165 q 785 456 785 339 q 749 653 785 569 q 649 781 714 736 q 494 826 583 826 q 300 765 383 826 q 208 443 208 625 q 245 247 208 331 q 347 115 282 163 q 496 68 411 68 m 308 1040 l 285 1061 q 356 1159 331 1131 q 398 1191 381 1188 q 436 1189 415 1194 l 601 1147 l 685 1219 l 708 1197 q 640 1102 665 1131 q 598 1069 615 1074 q 558 1069 581 1064 l 393 1113 l 308 1040 z "},"Ő":{"ha":993,"x_min":85,"x_max":910,"o":"m 486 -12 q 276 44 367 -12 q 135 201 186 100 q 85 439 85 303 q 139 685 85 578 q 288 852 193 792 q 504 913 383 913 q 716 856 625 913 q 858 699 807 800 q 910 463 910 597 q 856 215 910 322 q 708 48 803 108 q 486 -12 613 -12 m 496 68 q 647 117 582 68 q 749 252 713 165 q 785 456 785 339 q 749 651 785 568 q 649 781 714 735 q 494 826 583 826 q 392 810 443 826 q 294 763 340 794 q 208 442 208 611 q 244 247 208 331 q 346 115 281 163 q 496 68 411 68 m 306 1031 l 435 1246 l 450 1251 l 524 1201 q 438 1101 482 1151 q 349 1003 394 1051 l 306 1031 m 535 1031 l 664 1246 l 679 1251 l 751 1201 q 667 1101 711 1151 q 578 1003 622 1051 l 535 1031 z "},"Ȏ":{"ha":993,"x_min":85,"x_max":910,"o":"m 486 -12 q 276 44 367 -12 q 135 201 186 100 q 85 439 85 303 q 139 685 85 578 q 288 852 193 792 q 504 913 383 913 q 716 856 625 913 q 858 699 807 800 q 910 463 910 597 q 856 215 910 322 q 708 48 803 108 q 486 -12 613 -12 m 496 68 q 647 117 582 68 q 749 252 713 165 q 785 456 785 339 q 749 651 785 568 q 649 781 714 735 q 494 826 583 826 q 392 810 443 826 q 294 763 340 794 q 208 442 208 611 q 244 247 208 331 q 346 115 281 163 q 496 68 411 68 m 499 1201 q 619 1157 571 1201 q 672 1049 668 1113 l 610 1035 q 572 1097 603 1072 q 499 1122 542 1122 q 424 1097 454 1122 q 386 1035 394 1072 l 324 1049 q 377 1157 328 1113 q 499 1201 426 1201 z "},"Ō":{"ha":993,"x_min":85,"x_max":910,"o":"m 486 -12 q 276 44 367 -12 q 135 201 186 100 q 85 439 85 303 q 139 685 85 578 q 288 852 193 792 q 504 913 383 913 q 716 856 625 913 q 858 699 807 800 q 910 463 910 597 q 856 215 910 322 q 708 48 803 108 q 486 -12 613 -12 m 496 68 q 647 117 582 68 q 749 252 713 165 q 785 456 785 339 q 749 651 785 568 q 649 781 714 735 q 494 826 583 826 q 392 810 443 826 q 294 763 340 794 q 208 442 208 611 q 244 247 208 331 q 346 115 281 163 q 496 68 411 68 m 328 1089 l 328 1167 l 668 1167 l 668 1089 l 328 1089 z "},"Ṓ":{"ha":993,"x_min":85,"x_max":910,"o":"m 486 -12 q 276 44 367 -12 q 135 201 186 100 q 85 439 85 303 q 139 685 85 578 q 288 852 193 792 q 504 913 383 913 q 716 856 625 913 q 858 699 807 800 q 910 463 910 597 q 856 215 910 322 q 708 48 803 108 q 486 -12 613 -12 m 496 68 q 647 117 582 68 q 749 252 713 165 q 785 456 785 339 q 749 651 785 568 q 649 781 714 735 q 494 826 583 826 q 392 810 443 826 q 294 763 340 794 q 208 442 208 611 q 244 247 208 331 q 346 115 281 163 q 496 68 411 68 m 350 1150 l 338 1189 l 617 1313 l 632 1311 l 658 1229 q 506 1185 583 1204 q 350 1150 429 1165 m 319 1010 l 319 1082 l 678 1082 l 678 1010 l 319 1010 z "},"Ṑ":{"ha":993,"x_min":85,"x_max":910,"o":"m 486 -12 q 276 44 367 -12 q 135 201 186 100 q 85 439 85 303 q 139 685 85 578 q 288 852 193 792 q 504 913 383 913 q 716 856 625 913 q 858 699 807 800 q 910 463 910 597 q 856 215 910 322 q 708 48 803 108 q 486 -12 613 -12 m 496 68 q 647 117 582 68 q 749 252 713 165 q 785 456 785 339 q 749 651 785 568 q 649 781 714 735 q 494 826 583 826 q 392 810 443 826 q 294 763 340 794 q 208 442 208 611 q 244 247 208 331 q 346 115 281 163 q 496 68 411 68 m 644 1150 q 490 1185 567 1165 q 336 1229 413 1204 l 364 1311 l 379 1313 l 658 1189 l 644 1150 m 317 1010 l 317 1082 l 676 1082 l 676 1010 l 317 1010 z "},"Ǫ":{"ha":993,"x_min":85,"x_max":910,"o":"m 486 -12 q 276 44 367 -12 q 135 201 186 100 q 85 439 85 303 q 139 685 85 578 q 288 852 193 792 q 504 913 383 913 q 716 856 625 913 q 858 699 807 800 q 910 463 910 597 q 856 215 910 322 q 708 48 803 108 q 486 -12 613 -12 m 496 68 q 647 117 582 68 q 749 252 713 165 q 785 456 785 339 q 749 651 785 568 q 649 781 714 735 q 494 826 583 826 q 392 810 443 826 q 294 763 340 794 q 208 442 208 611 q 244 247 208 331 q 346 115 281 163 q 496 68 411 68 m 607 -262 q 523 -232 551 -262 q 499 -158 494 -201 q 547 -79 504 -115 l 679 49 l 714 49 l 615 -82 q 593 -151 585 -122 q 644 -181 601 -181 q 739 -136 696 -181 l 751 -168 q 607 -262 701 -262 z "},"Ø":{"ha":997,"x_min":88,"x_max":913,"o":"m 489 -12 q 319 22 397 -12 l 253 -118 l 192 -92 l 261 56 q 134 211 181 113 q 88 439 88 310 q 141 685 88 578 q 289 852 194 792 q 507 913 383 913 q 656 888 586 913 l 715 1013 l 778 988 l 717 857 q 860 700 808 803 q 913 463 913 597 q 859 215 913 322 q 710 48 806 108 q 489 -12 615 -12 m 211 442 q 237 276 211 350 q 307 153 263 201 l 615 801 q 497 826 561 826 q 396 810 446 826 q 303 765 346 794 q 211 442 211 613 m 499 68 q 650 117 585 68 q 751 252 715 165 q 788 456 788 339 q 758 638 788 560 q 672 764 728 717 l 361 108 q 499 68 422 68 z "},"Ǿ":{"ha":997,"x_min":88,"x_max":913,"o":"m 489 -12 q 319 22 397 -12 l 253 -118 l 192 -92 l 261 56 q 134 211 181 113 q 88 439 88 310 q 141 685 88 578 q 289 852 194 792 q 507 913 383 913 q 656 888 586 913 l 715 1013 l 778 988 l 717 857 q 860 700 808 803 q 913 463 913 597 q 859 215 913 322 q 710 48 806 108 q 489 -12 615 -12 m 211 442 q 237 276 211 350 q 307 153 263 201 l 615 801 q 497 826 561 826 q 396 810 446 826 q 303 765 346 794 q 211 442 211 613 m 499 68 q 650 117 585 68 q 751 252 715 165 q 788 456 788 339 q 758 638 788 560 q 672 764 728 717 l 361 108 q 499 68 422 68 m 383 1006 l 363 1042 l 600 1238 l 615 1238 l 660 1160 q 524 1078 593 1117 q 383 1006 454 1040 z "},"Õ":{"ha":993,"x_min":85,"x_max":910,"o":"m 486 -12 q 276 44 367 -12 q 135 201 186 100 q 85 439 85 303 q 139 685 85 578 q 288 852 193 792 q 504 913 383 913 q 716 856 625 913 q 858 699 807 800 q 910 463 910 597 q 856 215 910 322 q 708 48 803 108 q 486 -12 613 -12 m 496 68 q 647 117 582 68 q 749 252 713 165 q 785 456 785 339 q 749 651 785 568 q 649 781 714 735 q 494 826 583 826 q 392 810 443 826 q 294 763 340 794 q 208 442 208 611 q 244 247 208 331 q 346 115 281 163 q 496 68 411 68 m 308 1040 l 285 1061 q 356 1159 331 1131 q 398 1191 381 1188 q 436 1189 415 1194 l 601 1147 l 685 1219 l 708 1197 q 640 1102 665 1131 q 598 1069 615 1074 q 558 1069 581 1064 l 393 1113 l 308 1040 z "},"Ṍ":{"ha":993,"x_min":85,"x_max":910,"o":"m 486 -12 q 276 44 367 -12 q 135 201 186 100 q 85 439 85 303 q 139 685 85 578 q 288 852 193 792 q 504 913 383 913 q 716 856 625 913 q 858 699 807 800 q 910 463 910 597 q 856 215 910 322 q 708 48 803 108 q 486 -12 613 -12 m 496 68 q 647 117 582 68 q 749 252 713 165 q 785 456 785 339 q 749 651 785 568 q 649 781 714 735 q 494 826 583 826 q 392 810 443 826 q 294 763 340 794 q 208 442 208 611 q 244 247 208 331 q 346 115 281 163 q 496 68 411 68 m 344 1154 l 331 1193 l 610 1317 l 625 1315 l 653 1233 q 499 1189 576 1208 q 344 1154 422 1169 m 308 994 l 288 1015 q 353 1085 328 1061 q 397 1115 378 1108 q 442 1115 417 1121 l 597 1085 l 688 1135 l 708 1118 q 642 1046 667 1069 q 597 1017 617 1022 q 553 1017 578 1011 l 399 1049 l 308 994 z "},"Ṏ":{"ha":993,"x_min":85,"x_max":910,"o":"m 486 -12 q 276 44 367 -12 q 135 201 186 100 q 85 439 85 303 q 139 685 85 578 q 288 852 193 792 q 504 913 383 913 q 716 856 625 913 q 858 699 807 800 q 910 463 910 597 q 856 215 910 322 q 708 48 803 108 q 486 -12 613 -12 m 496 68 q 647 117 582 68 q 749 252 713 165 q 785 456 785 339 q 749 651 785 568 q 649 781 714 735 q 494 826 583 826 q 392 810 443 826 q 294 763 340 794 q 208 442 208 611 q 244 247 208 331 q 346 115 281 163 q 496 68 411 68 m 443 1164 q 392 1254 400 1201 q 433 1287 408 1272 q 482 1304 457 1301 q 496 1292 489 1299 q 536 1304 517 1301 q 570 1264 556 1288 q 590 1214 585 1240 q 548 1182 572 1196 q 497 1164 524 1168 q 483 1176 490 1169 q 443 1164 464 1167 m 307 994 l 286 1015 q 353 1085 328 1061 q 397 1115 378 1108 q 440 1115 417 1121 l 596 1085 l 688 1135 l 708 1118 q 642 1046 667 1069 q 597 1017 617 1022 q 551 1017 576 1011 l 397 1049 l 307 994 z "},"Ȭ":{"ha":993,"x_min":85,"x_max":910,"o":"m 486 -12 q 276 44 367 -12 q 135 201 186 100 q 85 439 85 303 q 139 685 85 578 q 288 852 193 792 q 504 913 383 913 q 716 856 625 913 q 858 699 807 800 q 910 463 910 597 q 856 215 910 322 q 708 48 803 108 q 486 -12 613 -12 m 496 68 q 647 117 582 68 q 749 252 713 165 q 785 456 785 339 q 749 651 785 568 q 649 781 714 735 q 494 826 583 826 q 392 810 443 826 q 294 763 340 794 q 208 442 208 611 q 244 247 208 331 q 346 115 281 163 q 496 68 411 68 m 325 1213 l 325 1286 l 656 1286 l 656 1213 l 325 1213 m 307 994 l 288 1015 q 353 1085 328 1061 q 397 1115 378 1108 q 442 1115 417 1121 l 597 1085 l 688 1135 l 708 1118 q 642 1046 667 1069 q 597 1017 617 1022 q 551 1017 578 1011 l 399 1049 l 307 994 z "},"Œ":{"ha":1382,"x_min":83,"x_max":1258,"o":"m 1057 306 l 1015 422 l 854 422 q 806 222 847 310 q 699 82 765 135 l 1167 82 l 1215 301 l 1258 301 l 1258 0 l 468 0 q 267 56 354 0 q 132 210 181 111 q 83 438 83 308 q 135 677 83 572 q 277 841 186 782 q 486 900 368 900 l 1244 900 l 1244 628 l 1201 628 l 1156 819 l 713 819 q 810 688 772 769 q 853 504 847 607 l 1015 504 l 1057 619 l 1097 619 l 1097 306 l 1057 306 m 207 456 q 242 260 207 344 q 338 128 276 176 q 478 81 399 81 q 613 126 556 81 q 703 255 671 172 q 735 450 735 338 q 658 757 735 615 q 483 817 581 817 q 337 772 399 817 q 241 647 275 728 q 207 456 207 565 z "},"P":{"ha":869,"x_min":51,"x_max":815,"o":"m 529 900 q 739 832 663 900 q 815 643 815 764 q 775 490 815 556 q 661 390 735 425 q 489 354 588 354 l 324 354 l 324 71 l 514 43 l 514 0 l 51 0 l 51 39 q 199 71 97 63 l 211 828 l 51 858 l 51 900 l 529 900 m 501 821 l 324 821 l 324 432 l 578 432 q 667 521 639 472 q 694 633 694 569 q 644 773 694 725 q 501 821 594 821 z "},"Þ":{"ha":869,"x_min":51,"x_max":817,"o":"m 51 0 l 51 39 q 126 59 89 51 q 199 71 163 67 l 211 828 l 51 858 l 51 900 l 471 900 l 471 865 q 401 845 438 854 q 324 832 364 836 l 324 729 l 529 729 q 740 663 664 729 q 817 481 817 597 q 776 332 817 394 q 663 235 736 269 q 490 200 589 200 l 324 200 l 324 69 l 471 43 l 471 0 l 51 0 m 506 650 l 324 650 l 324 278 l 583 278 q 672 363 644 317 q 700 469 700 408 q 650 604 700 558 q 506 650 600 650 z "},"Q":{"ha":1001,"x_min":83,"x_max":1019,"o":"m 485 -11 q 275 45 365 -11 q 134 202 185 101 q 83 439 83 303 q 137 685 83 578 q 285 853 190 793 q 503 914 379 914 q 715 857 624 914 q 857 699 806 800 q 908 464 908 597 q 839 187 908 304 q 650 19 769 69 q 796 -21 718 4 l 1019 -92 q 978 -137 999 -117 q 931 -176 957 -157 l 524 -10 q 485 -11 504 -11 m 494 69 q 646 117 581 69 q 748 252 711 165 q 785 457 785 339 q 749 653 785 569 q 647 781 713 736 q 493 826 582 826 q 394 812 444 826 q 299 767 343 797 q 207 443 207 613 q 243 247 207 331 q 344 116 279 163 q 494 69 410 69 z "},"R":{"ha":972,"x_min":51,"x_max":947,"o":"m 815 72 l 947 43 l 947 0 l 701 0 l 657 250 q 608 361 643 329 q 499 393 572 393 l 324 393 l 324 71 l 471 43 l 471 0 l 51 0 l 51 39 q 199 71 94 61 l 211 828 l 51 858 l 51 900 l 542 900 q 749 840 671 900 q 826 681 826 779 q 771 529 826 596 q 624 436 715 463 q 727 376 690 421 q 781 247 764 331 l 815 72 m 519 821 l 324 821 l 324 472 l 558 472 q 669 553 635 508 q 704 657 704 597 q 655 777 704 733 q 519 821 606 821 z "},"Ŕ":{"ha":972,"x_min":51,"x_max":947,"o":"m 815 72 l 947 43 l 947 0 l 701 0 l 657 250 q 608 361 643 329 q 499 393 572 393 l 324 393 l 324 71 l 471 43 l 471 0 l 51 0 l 51 39 q 199 71 94 61 l 211 828 l 51 858 l 51 900 l 542 900 q 749 840 671 900 q 826 681 826 779 q 771 529 826 596 q 624 436 715 463 q 727 376 690 421 q 781 247 764 331 l 815 72 m 519 821 l 324 821 l 324 472 l 558 472 q 669 553 635 508 q 704 657 704 597 q 655 777 704 733 q 519 821 606 821 m 385 1006 l 364 1042 l 601 1238 l 617 1238 l 661 1160 q 525 1078 594 1117 q 385 1006 456 1040 z "},"Ř":{"ha":972,"x_min":51,"x_max":947,"o":"m 815 72 l 947 43 l 947 0 l 701 0 l 657 250 q 608 361 643 329 q 499 393 572 393 l 324 393 l 324 71 l 471 43 l 471 0 l 51 0 l 51 39 q 199 71 94 61 l 211 828 l 51 858 l 51 900 l 542 900 q 749 840 671 900 q 826 681 826 779 q 771 529 826 596 q 624 436 715 463 q 727 376 690 421 q 781 247 764 331 l 815 72 m 519 821 l 324 821 l 324 472 l 558 472 q 669 553 635 508 q 704 657 704 597 q 655 777 704 733 q 519 821 606 821 m 460 1028 l 304 1183 l 344 1224 l 493 1111 l 639 1224 l 679 1183 l 524 1028 l 460 1028 z "},"Ŗ":{"ha":972,"x_min":51,"x_max":947,"o":"m 815 72 l 947 43 l 947 0 l 701 0 l 657 250 q 608 361 643 329 q 499 393 572 393 l 324 393 l 324 71 l 471 43 l 471 0 l 51 0 l 51 39 q 199 71 94 61 l 211 828 l 51 858 l 51 900 l 542 900 q 749 840 671 900 q 826 681 826 779 q 771 529 826 596 q 624 436 715 463 q 727 376 690 421 q 781 247 764 331 l 815 72 m 519 821 l 324 821 l 324 472 l 558 472 q 669 553 635 508 q 704 657 704 597 q 655 777 704 733 q 519 821 606 821 m 432 -299 l 456 -151 l 428 -97 q 517 -49 468 -62 q 543 -85 532 -65 q 560 -129 554 -104 q 519 -217 543 -174 q 465 -306 496 -261 l 432 -299 z "},"Ȑ":{"ha":972,"x_min":51,"x_max":947,"o":"m 815 72 l 947 43 l 947 0 l 701 0 l 657 250 q 608 361 643 329 q 499 393 572 393 l 324 393 l 324 71 l 471 43 l 471 0 l 51 0 l 51 39 q 199 71 94 61 l 211 828 l 51 858 l 51 900 l 542 900 q 749 840 671 900 q 826 681 826 779 q 771 529 826 596 q 624 436 715 463 q 727 376 690 421 q 781 247 764 331 l 815 72 m 519 821 l 324 821 l 324 472 l 558 472 q 669 553 635 508 q 704 657 704 597 q 655 777 704 733 q 519 821 606 821 m 463 1006 q 357 1099 408 1051 q 257 1199 306 1147 l 313 1249 l 325 1247 l 492 1031 l 463 1006 m 643 1006 q 537 1099 589 1051 q 438 1199 485 1147 l 492 1249 l 506 1247 l 671 1031 l 643 1006 z "},"Ṛ":{"ha":972,"x_min":51,"x_max":947,"o":"m 815 72 l 947 43 l 947 0 l 701 0 l 657 250 q 608 361 643 329 q 499 393 572 393 l 324 393 l 324 71 l 471 43 l 471 0 l 51 0 l 51 39 q 199 71 94 61 l 211 828 l 51 858 l 51 900 l 542 900 q 749 840 671 900 q 826 681 826 779 q 771 529 826 596 q 624 436 715 463 q 727 376 690 421 q 781 247 764 331 l 815 72 m 519 821 l 324 821 l 324 472 l 558 472 q 669 553 635 508 q 704 657 704 597 q 655 777 704 733 q 519 821 606 821 m 514 -101 q 550 -147 535 -121 q 569 -201 565 -174 q 525 -237 551 -222 q 471 -256 499 -251 q 414 -158 428 -219 q 514 -101 456 -112 z "},"Ȓ":{"ha":972,"x_min":51,"x_max":947,"o":"m 815 72 l 947 43 l 947 0 l 701 0 l 657 250 q 608 361 643 329 q 499 393 572 393 l 324 393 l 324 71 l 471 43 l 471 0 l 51 0 l 51 39 q 199 71 94 61 l 211 828 l 51 858 l 51 900 l 542 900 q 749 840 671 900 q 826 681 826 779 q 771 529 826 596 q 624 436 715 463 q 727 376 690 421 q 781 247 764 331 l 815 72 m 519 821 l 324 821 l 324 472 l 558 472 q 669 553 635 508 q 704 657 704 597 q 655 777 704 733 q 519 821 606 821 m 492 1201 q 613 1157 564 1201 q 665 1049 661 1113 l 603 1035 q 565 1097 596 1072 q 492 1122 535 1122 q 417 1097 447 1122 q 379 1035 388 1072 l 317 1049 q 370 1157 321 1113 q 492 1201 419 1201 z "},"Ṟ":{"ha":972,"x_min":51,"x_max":947,"o":"m 815 72 l 947 43 l 947 0 l 701 0 l 657 250 q 608 361 643 329 q 499 393 572 393 l 324 393 l 324 71 l 471 43 l 471 0 l 51 0 l 51 39 q 199 71 94 61 l 211 828 l 51 858 l 51 900 l 542 900 q 749 840 671 900 q 826 681 826 779 q 771 529 826 596 q 624 436 715 463 q 727 376 690 421 q 781 247 764 331 l 815 72 m 519 821 l 324 821 l 324 472 l 558 472 q 669 553 635 508 q 704 657 704 597 q 655 777 704 733 q 519 821 606 821 z "},"S":{"ha":850,"x_min":103,"x_max":757,"o":"m 378 -14 q 103 28 247 -14 l 110 293 l 156 293 l 206 96 q 421 74 311 74 q 490 76 456 74 q 561 83 525 78 q 618 138 594 104 q 642 207 642 171 q 604 285 642 251 q 507 349 567 319 q 381 408 447 378 q 256 474 315 438 q 158 560 196 511 q 121 679 121 610 q 219 850 121 788 q 483 913 317 913 q 722 881 606 913 l 714 624 l 668 624 l 621 810 q 531 821 576 817 q 438 825 485 825 q 306 817 372 825 q 256 765 275 796 q 238 700 238 735 q 275 615 238 651 q 372 548 313 578 q 497 488 431 518 q 623 423 564 458 q 719 340 682 388 q 757 228 757 293 q 710 100 757 154 q 577 16 663 46 q 378 -14 492 -14 z "},"Ś":{"ha":850,"x_min":103,"x_max":757,"o":"m 378 -14 q 103 28 247 -14 l 110 293 l 156 293 l 206 96 q 421 74 311 74 q 490 76 456 74 q 561 83 525 78 q 618 138 594 104 q 642 207 642 171 q 604 285 642 251 q 507 349 567 319 q 381 408 447 378 q 256 474 315 438 q 158 560 196 511 q 121 679 121 610 q 219 850 121 788 q 483 913 317 913 q 722 881 606 913 l 714 624 l 668 624 l 621 810 q 531 821 576 817 q 438 825 485 825 q 306 817 372 825 q 256 765 275 796 q 238 700 238 735 q 275 615 238 651 q 372 548 313 578 q 497 488 431 518 q 623 423 564 458 q 719 340 682 388 q 757 228 757 293 q 710 100 757 154 q 577 16 663 46 q 378 -14 492 -14 m 342 1004 l 321 1040 l 558 1236 l 574 1236 l 618 1158 q 482 1077 551 1115 q 342 1004 413 1039 z "},"Ṥ":{"ha":850,"x_min":103,"x_max":757,"o":"m 378 -14 q 103 28 247 -14 l 110 293 l 156 293 l 206 96 q 421 74 311 74 q 490 76 456 74 q 561 83 525 78 q 618 138 594 104 q 642 207 642 171 q 604 285 642 251 q 507 349 567 319 q 381 408 447 378 q 256 474 315 438 q 158 560 196 511 q 121 679 121 610 q 219 850 121 788 q 483 913 317 913 q 722 881 606 913 l 714 624 l 668 624 l 621 810 q 531 821 576 817 q 438 825 485 825 q 306 817 372 825 q 256 765 275 796 q 238 700 238 735 q 275 615 238 651 q 372 548 313 578 q 497 488 431 518 q 623 423 564 458 q 719 340 682 388 q 757 228 757 293 q 710 100 757 154 q 577 16 663 46 q 378 -14 492 -14 m 446 1329 q 499 1236 490 1292 q 457 1201 482 1215 q 407 1183 432 1186 q 351 1276 364 1219 q 394 1310 369 1296 q 446 1329 419 1325 m 306 993 l 296 1038 l 567 1157 l 581 1153 l 601 1069 q 454 1027 528 1046 q 306 993 381 1008 z "},"Ꞌ":{"ha":306,"x_min":108,"x_max":221,"o":"m 108 468 l 108 903 q 126 904 118 904 q 143 904 135 904 q 221 896 183 904 l 169 465 l 108 468 z "},"Š":{"ha":850,"x_min":103,"x_max":757,"o":"m 378 -14 q 103 28 247 -14 l 110 293 l 156 293 l 206 96 q 421 74 311 74 q 490 76 456 74 q 561 83 525 78 q 618 138 594 104 q 642 207 642 171 q 604 285 642 251 q 507 349 567 319 q 381 408 447 378 q 256 474 315 438 q 158 560 196 511 q 121 679 121 610 q 219 850 121 788 q 483 913 317 913 q 722 881 606 913 l 714 624 l 668 624 l 621 810 q 531 821 576 817 q 438 825 485 825 q 306 817 372 825 q 256 765 275 796 q 238 700 238 735 q 275 615 238 651 q 372 548 313 578 q 497 488 431 518 q 623 423 564 458 q 719 340 682 388 q 757 228 757 293 q 710 100 757 154 q 577 16 663 46 q 378 -14 492 -14 m 417 1026 l 261 1182 l 301 1222 l 450 1110 l 596 1222 l 636 1182 l 481 1026 l 417 1026 z "},"Ṧ":{"ha":850,"x_min":103,"x_max":757,"o":"m 378 -14 q 103 28 247 -14 l 110 293 l 156 293 l 206 96 q 421 74 311 74 q 490 76 456 74 q 561 83 525 78 q 618 138 594 104 q 642 207 642 171 q 604 285 642 251 q 507 349 567 319 q 381 408 447 378 q 256 474 315 438 q 158 560 196 511 q 121 679 121 610 q 219 850 121 788 q 483 913 317 913 q 722 881 606 913 l 714 624 l 668 624 l 621 810 q 531 821 576 817 q 438 825 485 825 q 306 817 372 825 q 256 765 275 796 q 238 700 238 735 q 275 615 238 651 q 372 548 313 578 q 497 488 431 518 q 623 423 564 458 q 719 340 682 388 q 757 228 757 293 q 710 100 757 154 q 577 16 663 46 q 378 -14 492 -14 m 472 1331 q 507 1286 493 1311 q 525 1236 521 1261 q 483 1201 508 1215 q 432 1183 458 1186 q 378 1276 390 1219 q 421 1310 396 1296 q 472 1331 446 1325 m 588 1153 l 624 1117 l 481 992 l 418 992 l 275 1117 l 311 1153 l 449 1068 l 588 1153 z "},"Ş":{"ha":850,"x_min":103,"x_max":757,"o":"m 378 -14 q 103 28 247 -14 l 110 293 l 156 293 l 206 96 q 421 74 311 74 q 490 76 456 74 q 561 83 525 78 q 618 138 594 104 q 642 207 642 171 q 604 285 642 251 q 507 349 567 319 q 381 408 447 378 q 256 474 315 438 q 158 560 196 511 q 121 679 121 610 q 219 850 121 788 q 483 913 317 913 q 722 881 606 913 l 714 624 l 668 624 l 621 810 q 531 821 576 817 q 438 825 485 825 q 306 817 372 825 q 256 765 275 796 q 238 700 238 735 q 275 615 238 651 q 372 548 313 578 q 497 488 431 518 q 623 423 564 458 q 719 340 682 388 q 757 228 757 293 q 710 100 757 154 q 577 16 663 46 q 378 -14 492 -14 m 392 19 l 440 19 l 422 -60 q 547 -115 508 -83 q 585 -193 585 -147 q 545 -275 585 -244 q 441 -310 506 -306 q 299 -290 376 -315 l 307 -212 q 400 -236 357 -228 q 490 -246 443 -244 q 506 -228 500 -240 q 511 -206 511 -215 q 480 -164 511 -182 q 361 -118 449 -146 l 392 19 z "},"Ŝ":{"ha":850,"x_min":103,"x_max":757,"o":"m 378 -14 q 103 28 247 -14 l 110 293 l 156 293 l 206 96 q 421 74 311 74 q 490 76 456 74 q 561 83 525 78 q 618 138 594 104 q 642 207 642 171 q 604 285 642 251 q 507 349 567 319 q 381 408 447 378 q 256 474 315 438 q 158 560 196 511 q 121 679 121 610 q 219 850 121 788 q 483 913 317 913 q 722 881 606 913 l 714 624 l 668 624 l 621 810 q 531 821 576 817 q 438 825 485 825 q 306 817 372 825 q 256 765 275 796 q 238 700 238 735 q 275 615 238 651 q 372 548 313 578 q 497 488 431 518 q 623 423 564 458 q 719 340 682 388 q 757 228 757 293 q 710 100 757 154 q 577 16 663 46 q 378 -14 492 -14 m 501 1226 l 656 1071 l 615 1032 l 468 1143 l 322 1032 l 282 1071 l 436 1226 l 501 1226 z "},"Ș":{"ha":850,"x_min":103,"x_max":757,"o":"m 378 -14 q 103 28 247 -14 l 110 293 l 156 293 l 206 96 q 421 74 311 74 q 490 76 456 74 q 561 83 525 78 q 618 138 594 104 q 642 207 642 171 q 604 285 642 251 q 507 349 567 319 q 381 408 447 378 q 256 474 315 438 q 158 560 196 511 q 121 679 121 610 q 219 850 121 788 q 483 913 317 913 q 722 881 606 913 l 714 624 l 668 624 l 621 810 q 531 821 576 817 q 438 825 485 825 q 306 817 372 825 q 256 765 275 796 q 238 700 238 735 q 275 615 238 651 q 372 548 313 578 q 497 488 431 518 q 623 423 564 458 q 719 340 682 388 q 757 228 757 293 q 710 100 757 154 q 577 16 663 46 q 378 -14 492 -14 m 350 -299 l 374 -151 l 346 -97 q 435 -49 386 -62 q 461 -85 450 -65 q 478 -129 472 -104 q 438 -217 461 -174 q 383 -306 414 -261 l 350 -299 z "},"Ṡ":{"ha":850,"x_min":103,"x_max":757,"o":"m 378 -14 q 103 28 247 -14 l 110 293 l 156 293 l 206 96 q 421 74 311 74 q 490 76 456 74 q 561 83 525 78 q 618 138 594 104 q 642 207 642 171 q 604 285 642 251 q 507 349 567 319 q 381 408 447 378 q 256 474 315 438 q 158 560 196 511 q 121 679 121 610 q 219 850 121 788 q 483 913 317 913 q 722 881 606 913 l 714 624 l 668 624 l 621 810 q 531 821 576 817 q 438 825 485 825 q 306 817 372 825 q 256 765 275 796 q 238 700 238 735 q 275 615 238 651 q 372 548 313 578 q 497 488 431 518 q 623 423 564 458 q 719 340 682 388 q 757 228 757 293 q 710 100 757 154 q 577 16 663 46 q 378 -14 492 -14 m 472 1210 q 510 1161 494 1189 q 531 1104 526 1133 q 483 1065 511 1082 q 426 1046 456 1049 q 367 1150 379 1086 q 414 1188 386 1172 q 472 1210 442 1204 z "},"Ṣ":{"ha":850,"x_min":103,"x_max":757,"o":"m 378 -14 q 103 28 247 -14 l 110 293 l 156 293 l 206 96 q 421 74 311 74 q 490 76 456 74 q 561 83 525 78 q 618 138 594 104 q 642 207 642 171 q 604 285 642 251 q 507 349 567 319 q 381 408 447 378 q 256 474 315 438 q 158 560 196 511 q 121 679 121 610 q 219 850 121 788 q 483 913 317 913 q 722 881 606 913 l 714 624 l 668 624 l 621 810 q 531 821 576 817 q 438 825 485 825 q 306 817 372 825 q 256 765 275 796 q 238 700 238 735 q 275 615 238 651 q 372 548 313 578 q 497 488 431 518 q 623 423 564 458 q 719 340 682 388 q 757 228 757 293 q 710 100 757 154 q 577 16 663 46 q 378 -14 492 -14 m 432 -101 q 468 -147 453 -121 q 488 -201 483 -174 q 443 -237 469 -222 q 389 -256 417 -251 q 332 -158 346 -219 q 432 -101 374 -112 z "},"Ṩ":{"ha":850,"x_min":103,"x_max":757,"o":"m 378 -14 q 103 28 247 -14 l 110 293 l 156 293 l 206 96 q 421 74 311 74 q 490 76 456 74 q 561 83 525 78 q 618 138 594 104 q 642 207 642 171 q 604 285 642 251 q 507 349 567 319 q 381 408 447 378 q 256 474 315 438 q 158 560 196 511 q 121 679 121 610 q 219 850 121 788 q 483 913 317 913 q 722 881 606 913 l 714 624 l 668 624 l 621 810 q 531 821 576 817 q 438 825 485 825 q 306 817 372 825 q 256 765 275 796 q 238 700 238 735 q 275 615 238 651 q 372 548 313 578 q 497 488 431 518 q 623 423 564 458 q 719 340 682 388 q 757 228 757 293 q 710 100 757 154 q 577 16 663 46 q 378 -14 492 -14 m 432 -101 q 468 -147 453 -121 q 488 -201 483 -174 q 443 -237 469 -222 q 389 -256 417 -251 q 332 -158 346 -219 q 432 -101 374 -112 m 472 1210 q 510 1161 494 1189 q 531 1104 526 1133 q 483 1065 511 1082 q 426 1046 456 1049 q 367 1150 379 1086 q 414 1188 386 1172 q 472 1210 442 1204 z "},"ẞ":{"ha":1035,"x_min":51,"x_max":971,"o":"m 421 21 l 426 257 l 471 257 l 519 82 q 581 76 550 78 q 643 75 613 75 q 724 78 683 75 q 803 89 764 82 q 861 267 861 169 q 633 450 861 450 l 496 450 l 496 528 l 749 819 l 324 819 l 324 0 l 51 0 l 51 39 q 199 71 97 63 l 211 828 l 51 858 l 51 900 l 864 900 l 864 819 l 611 532 l 651 532 q 890 466 808 532 q 971 274 971 400 q 883 65 971 139 q 635 -8 794 -8 q 421 21 539 -8 z "},"Ə":{"ha":972,"x_min":64,"x_max":886,"o":"m 463 -12 q 253 44 343 -12 q 114 203 164 101 q 64 442 64 306 l 81 461 l 761 461 q 675 724 758 631 q 435 817 592 817 q 301 800 372 817 q 157 754 231 783 l 142 797 q 303 883 215 853 q 481 913 390 913 q 694 856 603 913 q 835 697 785 799 q 886 458 886 594 q 833 213 886 319 q 683 47 779 107 q 463 -12 588 -12 m 671 133 q 758 386 744 249 l 188 386 q 277 157 200 239 q 474 75 354 75 q 671 133 576 75 z "},"T":{"ha":950,"x_min":68,"x_max":882,"o":"m 882 900 l 882 553 l 840 553 l 788 821 l 533 821 l 533 72 l 719 43 l 719 0 l 221 0 l 221 39 q 315 60 269 51 q 407 72 361 68 l 419 821 l 163 821 l 110 553 l 68 553 l 68 900 l 882 900 z "},"Ŧ":{"ha":950,"x_min":68,"x_max":882,"o":"m 882 900 l 882 553 l 840 553 l 788 821 l 533 821 l 533 72 l 719 43 l 719 0 l 221 0 l 221 39 q 315 60 269 51 q 407 72 361 68 l 419 821 l 163 821 l 110 553 l 68 553 l 68 900 l 882 900 m 239 478 l 710 478 l 710 410 l 239 410 l 239 478 z "},"Ť":{"ha":950,"x_min":68,"x_max":882,"o":"m 882 900 l 882 553 l 840 553 l 788 821 l 533 821 l 533 72 l 719 43 l 719 0 l 221 0 l 221 39 q 315 60 269 51 q 407 72 361 68 l 419 821 l 163 821 l 110 553 l 68 553 l 68 900 l 882 900 m 444 1028 l 289 1183 l 329 1224 l 478 1111 l 624 1224 l 664 1183 l 508 1028 l 444 1028 z "},"Ţ":{"ha":950,"x_min":68,"x_max":882,"o":"m 882 900 l 882 553 l 840 553 l 788 821 l 533 821 l 533 72 l 719 43 l 719 0 l 221 0 l 221 39 q 315 60 269 51 q 407 72 361 68 l 419 821 l 163 821 l 110 553 l 68 553 l 68 900 l 882 900 m 458 19 l 507 19 l 489 -60 q 613 -115 575 -83 q 651 -193 651 -147 q 612 -275 651 -244 q 508 -310 572 -306 q 365 -290 443 -315 l 374 -212 q 467 -236 424 -228 q 557 -246 510 -244 q 572 -228 567 -240 q 578 -206 578 -215 q 547 -164 578 -182 q 428 -118 515 -146 l 458 19 z "},"Ț":{"ha":950,"x_min":68,"x_max":882,"o":"m 882 900 l 882 553 l 840 553 l 788 821 l 533 821 l 533 72 l 719 43 l 719 0 l 221 0 l 221 39 q 315 60 269 51 q 407 72 361 68 l 419 821 l 163 821 l 110 553 l 68 553 l 68 900 l 882 900 m 415 -299 l 439 -151 l 411 -97 q 500 -49 451 -62 q 526 -85 515 -65 q 543 -129 538 -104 q 503 -217 526 -174 q 449 -306 479 -261 l 415 -299 z "},"Ṭ":{"ha":950,"x_min":68,"x_max":882,"o":"m 882 900 l 882 553 l 840 553 l 788 821 l 533 821 l 533 72 l 719 43 l 719 0 l 221 0 l 221 39 q 315 60 269 51 q 407 72 361 68 l 419 821 l 163 821 l 110 553 l 68 553 l 68 900 l 882 900 m 497 -101 q 533 -147 518 -121 q 553 -201 549 -174 q 508 -237 535 -222 q 454 -256 482 -251 q 397 -158 411 -219 q 497 -101 439 -112 z "},"Ṯ":{"ha":950,"x_min":68,"x_max":882,"o":"m 882 900 l 882 553 l 840 553 l 788 821 l 533 821 l 533 72 l 719 43 l 719 0 l 221 0 l 221 39 q 315 60 269 51 q 407 72 361 68 l 419 821 l 163 821 l 110 553 l 68 553 l 68 900 l 882 900 z "},"U":{"ha":1046,"x_min":25,"x_max":1018,"o":"m 522 -14 q 265 63 354 -14 q 175 281 175 139 l 185 828 l 25 858 l 25 900 l 440 900 l 440 864 q 297 831 390 842 l 297 275 q 358 123 297 175 q 535 71 418 71 q 676 97 619 71 q 775 181 732 122 l 782 828 l 628 858 l 628 900 l 1018 900 l 1018 864 q 871 831 958 840 l 872 294 q 780 67 872 147 q 522 -14 688 -14 z "},"Ú":{"ha":1046,"x_min":25,"x_max":1018,"o":"m 522 -14 q 265 63 354 -14 q 175 281 175 139 l 185 828 l 25 858 l 25 900 l 440 900 l 440 864 q 297 831 390 842 l 297 275 q 358 123 297 175 q 535 71 418 71 q 676 97 619 71 q 775 181 732 122 l 782 828 l 628 858 l 628 900 l 1018 900 l 1018 864 q 871 831 958 840 l 872 294 q 780 67 872 147 q 522 -14 688 -14 m 429 1006 l 408 1042 l 646 1238 l 661 1238 l 706 1160 q 569 1078 639 1117 q 429 1006 500 1040 z "},"Ŭ":{"ha":1046,"x_min":25,"x_max":1018,"o":"m 522 -14 q 265 63 354 -14 q 175 281 175 139 l 185 828 l 25 858 l 25 900 l 440 900 l 440 864 q 297 831 390 842 l 297 275 q 358 123 297 175 q 535 71 418 71 q 676 97 619 71 q 775 181 732 122 l 782 828 l 628 858 l 628 900 l 1018 900 l 1018 864 q 871 831 958 840 l 872 294 q 780 67 872 147 q 522 -14 688 -14 m 535 1035 q 413 1078 461 1035 q 360 1186 364 1122 l 422 1201 q 460 1138 429 1163 q 535 1114 492 1114 q 608 1138 578 1114 q 646 1201 639 1163 l 708 1186 q 656 1078 706 1122 q 535 1035 607 1035 z "},"Ǔ":{"ha":1046,"x_min":25,"x_max":1018,"o":"m 522 -14 q 265 63 354 -14 q 175 281 175 139 l 185 828 l 25 858 l 25 900 l 440 900 l 440 864 q 297 831 390 842 l 297 275 q 358 123 297 175 q 535 71 418 71 q 676 97 619 71 q 775 181 732 122 l 782 828 l 628 858 l 628 900 l 1018 900 l 1018 864 q 871 831 958 840 l 872 294 q 780 67 872 147 q 522 -14 688 -14 m 504 1028 l 349 1183 l 389 1224 l 538 1111 l 683 1224 l 724 1183 l 568 1028 l 504 1028 z "},"Û":{"ha":1046,"x_min":25,"x_max":1018,"o":"m 522 -14 q 265 63 354 -14 q 175 281 175 139 l 185 828 l 25 858 l 25 900 l 440 900 l 440 864 q 297 831 390 842 l 297 275 q 358 123 297 175 q 535 71 418 71 q 676 97 619 71 q 775 181 732 122 l 782 828 l 628 858 l 628 900 l 1018 900 l 1018 864 q 871 831 958 840 l 872 294 q 780 67 872 147 q 522 -14 688 -14 m 588 1228 l 742 1072 l 701 1033 l 554 1144 l 408 1033 l 368 1072 l 522 1228 l 588 1228 z "},"Ȕ":{"ha":1046,"x_min":25,"x_max":1018,"o":"m 522 -14 q 265 63 354 -14 q 175 281 175 139 l 185 828 l 25 858 l 25 900 l 440 900 l 440 864 q 297 831 390 842 l 297 275 q 358 123 297 175 q 535 71 418 71 q 676 97 619 71 q 775 181 732 122 l 782 828 l 628 858 l 628 900 l 1018 900 l 1018 864 q 871 831 958 840 l 872 294 q 780 67 872 147 q 522 -14 688 -14 m 506 1006 q 400 1099 451 1051 q 300 1199 349 1147 l 356 1249 l 368 1247 l 535 1031 l 506 1006 m 686 1006 q 580 1099 632 1051 q 481 1199 528 1147 l 535 1249 l 549 1247 l 714 1031 l 686 1006 z "},"Ü":{"ha":1046,"x_min":25,"x_max":1018,"o":"m 522 -14 q 265 63 354 -14 q 175 281 175 139 l 185 828 l 25 858 l 25 900 l 440 900 l 440 864 q 297 831 390 842 l 297 275 q 358 123 297 175 q 535 71 418 71 q 676 97 619 71 q 775 181 732 122 l 782 828 l 628 858 l 628 900 l 1018 900 l 1018 864 q 871 831 958 840 l 872 294 q 780 67 872 147 q 522 -14 688 -14 m 439 1200 q 490 1106 483 1158 q 449 1072 474 1086 q 397 1053 424 1057 q 363 1095 378 1071 q 342 1147 349 1119 q 386 1181 361 1167 q 439 1200 411 1196 m 674 1200 q 708 1156 693 1181 q 726 1106 722 1132 q 684 1072 708 1086 q 633 1053 660 1057 q 578 1147 590 1089 q 621 1181 596 1167 q 674 1200 646 1196 z "},"Ǘ":{"ha":1046,"x_min":25,"x_max":1018,"o":"m 522 -14 q 265 63 354 -14 q 175 281 175 139 l 185 828 l 25 858 l 25 900 l 440 900 l 440 864 q 297 831 390 842 l 297 275 q 358 123 297 175 q 535 71 418 71 q 676 97 619 71 q 775 181 732 122 l 782 828 l 628 858 l 628 900 l 1018 900 l 1018 864 q 871 831 958 840 l 872 294 q 780 67 872 147 q 522 -14 688 -14 m 388 1176 l 376 1219 l 647 1340 l 661 1335 l 682 1251 q 535 1210 608 1228 q 388 1176 461 1192 m 388 994 q 335 1083 346 1032 q 377 1117 353 1103 q 428 1135 401 1132 q 479 1044 471 1097 q 438 1013 463 1026 q 388 994 414 999 m 625 994 q 572 1083 583 1031 q 614 1117 589 1103 q 665 1135 639 1132 q 699 1094 685 1118 q 717 1044 713 1071 q 676 1013 700 1026 q 625 994 651 999 z "},"Ǚ":{"ha":1046,"x_min":25,"x_max":1018,"o":"m 522 -14 q 265 63 354 -14 q 175 281 175 139 l 185 828 l 25 858 l 25 900 l 440 900 l 440 864 q 297 831 390 842 l 297 275 q 358 123 297 175 q 535 71 418 71 q 676 97 619 71 q 775 181 732 122 l 782 828 l 628 858 l 628 900 l 1018 900 l 1018 864 q 871 831 958 840 l 872 294 q 780 67 872 147 q 522 -14 688 -14 m 674 1318 l 708 1283 l 568 1163 l 510 1163 l 369 1283 l 403 1318 l 538 1236 l 674 1318 m 440 1133 q 492 1043 483 1096 q 451 1010 476 1024 q 400 992 426 996 q 367 1033 382 1010 q 347 1082 353 1057 q 390 1115 365 1101 q 440 1133 414 1129 m 678 1133 q 711 1092 697 1115 q 729 1043 725 1068 q 688 1010 713 1024 q 638 992 664 996 q 585 1082 596 1028 q 626 1115 601 1101 q 678 1133 651 1129 z "},"Ǜ":{"ha":1046,"x_min":25,"x_max":1018,"o":"m 522 -14 q 265 63 354 -14 q 175 281 175 139 l 185 828 l 25 858 l 25 900 l 440 900 l 440 864 q 297 831 390 842 l 297 275 q 358 123 297 175 q 535 71 418 71 q 676 97 619 71 q 775 181 732 122 l 782 828 l 628 858 l 628 900 l 1018 900 l 1018 864 q 871 831 958 840 l 872 294 q 780 67 872 147 q 522 -14 688 -14 m 683 1176 q 535 1210 610 1192 q 388 1251 461 1228 l 408 1335 l 422 1340 l 694 1219 l 683 1176 m 407 994 q 353 1083 365 1032 q 396 1117 371 1103 q 447 1135 421 1132 q 499 1044 490 1097 q 457 1013 482 1026 q 407 994 432 999 m 644 994 q 590 1083 603 1031 q 633 1117 608 1103 q 685 1135 658 1132 q 718 1094 704 1118 q 736 1044 732 1071 q 694 1013 719 1026 q 644 994 669 999 z "},"Ǖ":{"ha":1046,"x_min":25,"x_max":1018,"o":"m 522 -14 q 265 63 354 -14 q 175 281 175 139 l 185 828 l 25 858 l 25 900 l 440 900 l 440 864 q 297 831 390 842 l 297 275 q 358 123 297 175 q 535 71 418 71 q 676 97 619 71 q 775 181 732 122 l 782 828 l 628 858 l 628 900 l 1018 900 l 1018 864 q 871 831 958 840 l 872 294 q 780 67 872 147 q 522 -14 688 -14 m 357 1213 l 357 1285 l 715 1285 l 715 1213 l 357 1213 m 439 1131 q 490 1040 482 1094 q 449 1008 474 1022 q 399 992 424 994 q 344 1081 357 1028 q 388 1114 364 1100 q 439 1131 413 1128 m 676 1131 q 710 1090 696 1114 q 728 1040 724 1067 q 686 1008 711 1022 q 636 992 661 994 q 582 1081 594 1026 q 625 1114 600 1100 q 676 1131 650 1128 z "},"Ụ":{"ha":1046,"x_min":25,"x_max":1018,"o":"m 522 -14 q 265 63 354 -14 q 175 281 175 139 l 185 828 l 25 858 l 25 900 l 440 900 l 440 864 q 297 831 390 842 l 297 275 q 358 123 297 175 q 535 71 418 71 q 676 97 619 71 q 775 181 732 122 l 782 828 l 628 858 l 628 900 l 1018 900 l 1018 864 q 871 831 958 840 l 872 294 q 780 67 872 147 q 522 -14 688 -14 m 543 -101 q 579 -147 564 -121 q 599 -201 594 -174 q 554 -237 581 -222 q 500 -256 528 -251 q 443 -158 457 -219 q 543 -101 485 -112 z "},"Ù":{"ha":1046,"x_min":25,"x_max":1018,"o":"m 522 -14 q 265 63 354 -14 q 175 281 175 139 l 185 828 l 25 858 l 25 900 l 440 900 l 440 864 q 297 831 390 842 l 297 275 q 358 123 297 175 q 535 71 418 71 q 676 97 619 71 q 775 181 732 122 l 782 828 l 628 858 l 628 900 l 1018 900 l 1018 864 q 871 831 958 840 l 872 294 q 780 67 872 147 q 522 -14 688 -14 m 661 1006 q 522 1078 590 1040 q 386 1160 453 1117 l 429 1238 l 446 1238 l 683 1042 l 661 1006 z "},"Ủ":{"ha":1046,"x_min":25,"x_max":1018,"o":"m 522 -14 q 265 63 354 -14 q 175 281 175 139 l 185 828 l 25 858 l 25 900 l 440 900 l 440 864 q 297 831 390 842 l 297 275 q 358 123 297 175 q 535 71 418 71 q 676 97 619 71 q 775 181 732 122 l 782 828 l 628 858 l 628 900 l 1018 900 l 1018 864 q 871 831 958 840 l 872 294 q 780 67 872 147 q 522 -14 688 -14 m 501 972 l 501 1007 q 514 1047 501 1031 q 542 1076 526 1063 q 570 1103 558 1089 q 582 1135 582 1117 q 526 1172 582 1172 q 489 1169 510 1172 q 443 1160 468 1167 l 433 1218 q 539 1233 489 1233 q 631 1210 596 1233 q 665 1144 665 1188 q 651 1094 665 1114 q 617 1059 636 1074 q 581 1031 597 1044 q 560 997 564 1017 l 556 971 l 501 972 z "},"Ư":{"ha":1053,"x_min":25,"x_max":1044,"o":"m 1013 1058 q 1036 991 1028 1021 q 1044 938 1044 961 q 1003 868 1044 889 q 871 840 961 847 l 872 294 q 780 67 872 147 q 522 -14 688 -14 q 265 63 354 -14 q 175 281 175 139 l 185 828 l 25 858 l 25 900 l 440 900 l 440 864 q 297 831 390 842 l 297 275 q 358 123 297 175 q 535 71 418 71 q 676 97 619 71 q 775 181 732 122 l 782 828 l 628 858 l 628 900 l 954 900 l 924 1038 l 1013 1058 z "},"Ứ":{"ha":1053,"x_min":25,"x_max":1044,"o":"m 1013 1058 q 1036 991 1028 1021 q 1044 938 1044 961 q 1003 868 1044 889 q 871 840 961 847 l 872 294 q 780 67 872 147 q 522 -14 688 -14 q 265 63 354 -14 q 175 281 175 139 l 185 828 l 25 858 l 25 900 l 440 900 l 440 864 q 297 831 390 842 l 297 275 q 358 123 297 175 q 535 71 418 71 q 676 97 619 71 q 775 181 732 122 l 782 828 l 628 858 l 628 900 l 954 900 l 924 1038 l 1013 1058 m 428 1006 l 407 1042 l 644 1238 l 660 1238 l 704 1160 q 568 1078 638 1117 q 428 1006 499 1040 z "},"Ự":{"ha":1053,"x_min":25,"x_max":1044,"o":"m 1013 1058 q 1036 991 1028 1021 q 1044 938 1044 961 q 1003 868 1044 889 q 871 840 961 847 l 872 294 q 780 67 872 147 q 522 -14 688 -14 q 265 63 354 -14 q 175 281 175 139 l 185 828 l 25 858 l 25 900 l 440 900 l 440 864 q 297 831 390 842 l 297 275 q 358 123 297 175 q 535 71 418 71 q 676 97 619 71 q 775 181 732 122 l 782 828 l 628 858 l 628 900 l 954 900 l 924 1038 l 1013 1058 m 557 -101 q 593 -147 578 -121 q 613 -201 608 -174 q 568 -237 594 -222 q 514 -256 542 -251 q 457 -158 471 -219 q 557 -101 499 -112 z "},"Ừ":{"ha":1053,"x_min":25,"x_max":1044,"o":"m 1013 1058 q 1036 991 1028 1021 q 1044 938 1044 961 q 1003 868 1044 889 q 871 840 961 847 l 872 294 q 780 67 872 147 q 522 -14 688 -14 q 265 63 354 -14 q 175 281 175 139 l 185 828 l 25 858 l 25 900 l 440 900 l 440 864 q 297 831 390 842 l 297 275 q 358 123 297 175 q 535 71 418 71 q 676 97 619 71 q 775 181 732 122 l 782 828 l 628 858 l 628 900 l 954 900 l 924 1038 l 1013 1058 m 660 1006 q 520 1078 589 1040 q 385 1160 451 1117 l 428 1238 l 444 1238 l 682 1042 l 660 1006 z "},"Ử":{"ha":1053,"x_min":25,"x_max":1044,"o":"m 1013 1058 q 1036 991 1028 1021 q 1044 938 1044 961 q 1003 868 1044 889 q 871 840 961 847 l 872 294 q 780 67 872 147 q 522 -14 688 -14 q 265 63 354 -14 q 175 281 175 139 l 185 828 l 25 858 l 25 900 l 440 900 l 440 864 q 297 831 390 842 l 297 275 q 358 123 297 175 q 535 71 418 71 q 676 97 619 71 q 775 181 732 122 l 782 828 l 628 858 l 628 900 l 954 900 l 924 1038 l 1013 1058 m 500 972 l 500 1007 q 513 1047 500 1031 q 541 1076 525 1063 q 569 1103 557 1089 q 581 1135 581 1117 q 525 1172 581 1172 q 488 1169 508 1172 q 442 1160 467 1167 l 432 1218 q 538 1233 488 1233 q 629 1210 594 1233 q 664 1144 664 1188 q 649 1094 664 1114 q 615 1059 635 1074 q 579 1031 596 1044 q 558 997 563 1017 l 554 971 l 500 972 z "},"Ữ":{"ha":1053,"x_min":25,"x_max":1044,"o":"m 1013 1058 q 1036 991 1028 1021 q 1044 938 1044 961 q 1003 868 1044 889 q 871 840 961 847 l 872 294 q 780 67 872 147 q 522 -14 688 -14 q 265 63 354 -14 q 175 281 175 139 l 185 828 l 25 858 l 25 900 l 440 900 l 440 864 q 297 831 390 842 l 297 275 q 358 123 297 175 q 535 71 418 71 q 676 97 619 71 q 775 181 732 122 l 782 828 l 628 858 l 628 900 l 954 900 l 924 1038 l 1013 1058 m 344 1040 l 321 1061 q 392 1159 367 1131 q 434 1191 417 1188 q 472 1189 451 1194 l 638 1147 l 721 1219 l 744 1197 q 676 1102 701 1131 q 634 1069 651 1074 q 594 1069 617 1064 l 429 1113 l 344 1040 z "},"Ű":{"ha":1046,"x_min":25,"x_max":1018,"o":"m 522 -14 q 265 63 354 -14 q 175 281 175 139 l 185 828 l 25 858 l 25 900 l 440 900 l 440 864 q 297 831 390 842 l 297 275 q 358 123 297 175 q 535 71 418 71 q 676 97 619 71 q 775 181 732 122 l 782 828 l 628 858 l 628 900 l 1018 900 l 1018 864 q 871 831 958 840 l 872 294 q 780 67 872 147 q 522 -14 688 -14 m 343 1031 l 472 1246 l 488 1251 l 561 1201 q 476 1101 519 1151 q 386 1003 432 1051 l 343 1031 m 572 1031 l 701 1246 l 717 1251 l 789 1201 q 704 1101 749 1151 q 615 1003 660 1051 l 572 1031 z "},"Ȗ":{"ha":1046,"x_min":25,"x_max":1018,"o":"m 522 -14 q 265 63 354 -14 q 175 281 175 139 l 185 828 l 25 858 l 25 900 l 440 900 l 440 864 q 297 831 390 842 l 297 275 q 358 123 297 175 q 535 71 418 71 q 676 97 619 71 q 775 181 732 122 l 782 828 l 628 858 l 628 900 l 1018 900 l 1018 864 q 871 831 958 840 l 872 294 q 780 67 872 147 q 522 -14 688 -14 m 536 1201 q 657 1157 608 1201 q 710 1049 706 1113 l 647 1035 q 610 1097 640 1072 q 536 1122 579 1122 q 462 1097 492 1122 q 424 1035 432 1072 l 361 1049 q 415 1157 365 1113 q 536 1201 464 1201 z "},"Ū":{"ha":1046,"x_min":25,"x_max":1018,"o":"m 522 -14 q 265 63 354 -14 q 175 281 175 139 l 185 828 l 25 858 l 25 900 l 440 900 l 440 864 q 297 831 390 842 l 297 275 q 358 123 297 175 q 535 71 418 71 q 676 97 619 71 q 775 181 732 122 l 782 828 l 628 858 l 628 900 l 1018 900 l 1018 864 q 871 831 958 840 l 872 294 q 780 67 872 147 q 522 -14 688 -14 m 365 1089 l 365 1167 l 706 1167 l 706 1089 l 365 1089 z "},"Ṻ":{"ha":1046,"x_min":25,"x_max":1018,"o":"m 522 -14 q 265 63 354 -14 q 175 281 175 139 l 185 828 l 25 858 l 25 900 l 440 900 l 440 864 q 297 831 390 842 l 297 275 q 358 123 297 175 q 535 71 418 71 q 676 97 619 71 q 775 181 732 122 l 782 828 l 628 858 l 628 900 l 1018 900 l 1018 864 q 871 831 958 840 l 872 294 q 780 67 872 147 q 522 -14 688 -14 m 394 1164 q 361 1205 375 1181 q 343 1254 347 1229 q 385 1287 360 1272 q 435 1304 410 1301 q 488 1214 476 1268 q 446 1182 471 1196 q 394 1164 421 1168 m 632 1164 q 581 1254 589 1200 q 622 1287 597 1272 q 672 1304 647 1301 q 706 1264 692 1288 q 725 1214 719 1240 q 683 1182 707 1196 q 632 1164 658 1168 m 356 1010 l 356 1082 l 714 1082 l 714 1010 l 356 1010 z "},"Ų":{"ha":1046,"x_min":25,"x_max":1018,"o":"m 522 -14 q 265 63 354 -14 q 175 281 175 139 l 185 828 l 25 858 l 25 900 l 440 900 l 440 864 q 297 831 390 842 l 297 275 q 358 123 297 175 q 535 71 418 71 q 676 97 619 71 q 775 181 732 122 l 782 828 l 628 858 l 628 900 l 1018 900 l 1018 864 q 871 831 958 840 l 872 294 q 780 67 872 147 q 522 -14 688 -14 m 589 -283 q 505 -253 533 -283 q 481 -179 476 -222 q 529 -100 486 -136 l 661 28 l 696 28 l 597 -103 q 575 -172 567 -143 q 626 -201 583 -201 q 721 -157 678 -201 l 733 -189 q 589 -283 683 -283 z "},"Ů":{"ha":1046,"x_min":25,"x_max":1018,"o":"m 522 -14 q 265 63 354 -14 q 175 281 175 139 l 185 828 l 25 858 l 25 900 l 440 900 l 440 864 q 297 831 390 842 l 297 275 q 358 123 297 175 q 535 71 418 71 q 676 97 619 71 q 775 181 732 122 l 782 828 l 628 858 l 628 900 l 1018 900 l 1018 864 q 871 831 958 840 l 872 294 q 780 67 872 147 q 522 -14 688 -14 m 535 1003 q 446 1038 481 1003 q 411 1126 411 1074 q 446 1215 411 1181 q 535 1250 481 1250 q 624 1215 589 1250 q 658 1126 658 1181 q 624 1038 658 1074 q 535 1003 589 1003 m 535 1058 q 584 1078 564 1058 q 604 1126 604 1097 q 584 1176 604 1157 q 535 1196 564 1196 q 485 1176 506 1196 q 465 1126 465 1157 q 485 1078 465 1097 q 535 1058 506 1058 z "},"Ũ":{"ha":1046,"x_min":25,"x_max":1018,"o":"m 522 -14 q 265 63 354 -14 q 175 281 175 139 l 185 828 l 25 858 l 25 900 l 440 900 l 440 864 q 297 831 390 842 l 297 275 q 358 123 297 175 q 535 71 418 71 q 676 97 619 71 q 775 181 732 122 l 782 828 l 628 858 l 628 900 l 1018 900 l 1018 864 q 871 831 958 840 l 872 294 q 780 67 872 147 q 522 -14 688 -14 m 346 1040 l 322 1061 q 393 1159 368 1131 q 435 1191 418 1188 q 474 1189 453 1194 l 639 1147 l 722 1219 l 746 1197 q 678 1102 703 1131 q 635 1069 653 1074 q 596 1069 618 1064 l 431 1113 l 346 1040 z "},"Ṹ":{"ha":1046,"x_min":25,"x_max":1018,"o":"m 522 -14 q 265 63 354 -14 q 175 281 175 139 l 185 828 l 25 858 l 25 900 l 440 900 l 440 864 q 297 831 390 842 l 297 275 q 358 123 297 175 q 535 71 418 71 q 676 97 619 71 q 775 181 732 122 l 782 828 l 628 858 l 628 900 l 1018 900 l 1018 864 q 871 831 958 840 l 872 294 q 780 67 872 147 q 522 -14 688 -14 m 382 1154 l 368 1193 l 647 1317 l 663 1315 l 690 1233 q 537 1189 614 1208 q 382 1154 460 1169 m 346 994 l 325 1015 q 390 1085 365 1061 q 435 1115 415 1108 q 479 1115 454 1121 l 635 1085 l 725 1135 l 746 1118 q 679 1046 704 1069 q 635 1017 654 1022 q 590 1017 615 1011 l 436 1049 l 346 994 z "},"V":{"ha":971,"x_min":13,"x_max":957,"o":"m 418 0 l 114 831 q 13 863 61 843 l 13 900 l 383 900 l 383 861 l 247 829 l 501 92 l 764 825 q 606 863 682 839 l 606 900 l 957 900 l 957 861 l 863 825 l 553 0 l 418 0 z "},"W":{"ha":1421,"x_min":15,"x_max":1406,"o":"m 375 0 l 106 832 q 15 863 58 844 l 15 900 l 376 900 l 376 861 l 238 828 l 457 94 l 668 774 l 651 829 q 542 863 594 842 l 542 900 l 897 900 l 897 861 l 765 826 l 988 94 l 1215 825 q 1063 863 1136 839 l 1063 900 l 1406 900 l 1406 861 l 1313 826 l 1039 0 l 907 0 l 710 638 l 507 0 l 375 0 z "},"Ẃ":{"ha":1421,"x_min":15,"x_max":1406,"o":"m 375 0 l 106 832 q 15 863 58 844 l 15 900 l 376 900 l 376 861 l 238 828 l 457 94 l 668 774 l 651 829 q 542 863 594 842 l 542 900 l 897 900 l 897 861 l 765 826 l 988 94 l 1215 825 q 1063 863 1136 839 l 1063 900 l 1406 900 l 1406 861 l 1313 826 l 1039 0 l 907 0 l 710 638 l 507 0 l 375 0 m 604 1006 l 583 1042 l 821 1238 l 836 1238 l 881 1160 q 744 1078 814 1117 q 604 1006 675 1040 z "},"Ŵ":{"ha":1421,"x_min":15,"x_max":1406,"o":"m 375 0 l 106 832 q 15 863 58 844 l 15 900 l 376 900 l 376 861 l 238 828 l 457 94 l 668 774 l 651 829 q 542 863 594 842 l 542 900 l 897 900 l 897 861 l 765 826 l 988 94 l 1215 825 q 1063 863 1136 839 l 1063 900 l 1406 900 l 1406 861 l 1313 826 l 1039 0 l 907 0 l 710 638 l 507 0 l 375 0 m 764 1228 l 918 1072 l 878 1033 l 731 1144 l 585 1033 l 544 1072 l 699 1228 l 764 1228 z "},"Ẅ":{"ha":1421,"x_min":15,"x_max":1406,"o":"m 375 0 l 106 832 q 15 863 58 844 l 15 900 l 376 900 l 376 861 l 238 828 l 457 94 l 668 774 l 651 829 q 542 863 594 842 l 542 900 l 897 900 l 897 861 l 765 826 l 988 94 l 1215 825 q 1063 863 1136 839 l 1063 900 l 1406 900 l 1406 861 l 1313 826 l 1039 0 l 907 0 l 710 638 l 507 0 l 375 0 m 615 1200 q 667 1106 660 1158 q 625 1072 650 1086 q 574 1053 600 1057 q 540 1095 554 1071 q 518 1147 525 1119 q 563 1181 538 1167 q 615 1200 588 1196 m 850 1200 q 884 1156 869 1181 q 903 1106 899 1132 q 860 1072 885 1086 q 810 1053 836 1057 q 754 1147 767 1089 q 797 1181 772 1167 q 850 1200 822 1196 z "},"Ẁ":{"ha":1421,"x_min":15,"x_max":1406,"o":"m 375 0 l 106 832 q 15 863 58 844 l 15 900 l 376 900 l 376 861 l 238 828 l 457 94 l 668 774 l 651 829 q 542 863 594 842 l 542 900 l 897 900 l 897 861 l 765 826 l 988 94 l 1215 825 q 1063 863 1136 839 l 1063 900 l 1406 900 l 1406 861 l 1313 826 l 1039 0 l 907 0 l 710 638 l 507 0 l 375 0 m 838 1006 q 698 1078 767 1040 q 563 1160 629 1117 l 606 1238 l 622 1238 l 860 1042 l 838 1006 z "},"X":{"ha":1053,"x_min":28,"x_max":1018,"o":"m 28 0 l 28 36 q 157 79 90 65 l 450 479 l 203 825 l 76 857 l 76 900 l 501 900 l 501 865 q 354 825 431 839 l 551 540 l 750 822 l 608 857 l 608 900 l 994 900 l 994 865 q 860 821 929 835 l 611 481 l 900 72 l 1018 43 l 1018 0 l 593 0 l 593 36 q 746 78 667 64 l 511 418 l 268 78 l 419 43 l 419 0 l 28 0 z "},"Y":{"ha":939,"x_min":11,"x_max":929,"o":"m 231 0 l 231 39 q 399 71 315 63 l 403 349 l 132 826 l 11 857 l 11 900 l 435 900 l 435 865 q 276 824 358 838 l 485 436 l 697 819 l 542 857 l 542 900 l 929 900 l 929 865 q 800 822 867 836 l 524 349 l 524 71 l 693 43 l 693 0 l 231 0 z "},"Ý":{"ha":939,"x_min":11,"x_max":929,"o":"m 231 0 l 231 39 q 399 71 315 63 l 403 349 l 132 826 l 11 857 l 11 900 l 435 900 l 435 865 q 276 824 358 838 l 485 436 l 697 819 l 542 857 l 542 900 l 929 900 l 929 865 q 800 822 867 836 l 524 349 l 524 71 l 693 43 l 693 0 l 231 0 m 375 1006 l 354 1042 l 592 1238 l 607 1238 l 651 1160 q 515 1078 585 1117 q 375 1006 446 1040 z "},"Ŷ":{"ha":939,"x_min":11,"x_max":929,"o":"m 231 0 l 231 39 q 399 71 315 63 l 403 349 l 132 826 l 11 857 l 11 900 l 435 900 l 435 865 q 276 824 358 838 l 485 436 l 697 819 l 542 857 l 542 900 l 929 900 l 929 865 q 800 822 867 836 l 524 349 l 524 71 l 693 43 l 693 0 l 231 0 m 535 1228 l 689 1072 l 649 1033 l 501 1144 l 356 1033 l 315 1072 l 469 1228 l 535 1228 z "},"Ÿ":{"ha":939,"x_min":11,"x_max":929,"o":"m 231 0 l 231 39 q 399 71 315 63 l 403 349 l 132 826 l 11 857 l 11 900 l 435 900 l 435 865 q 276 824 358 838 l 485 436 l 697 819 l 542 857 l 542 900 l 929 900 l 929 865 q 800 822 867 836 l 524 349 l 524 71 l 693 43 l 693 0 l 231 0 m 386 1200 q 438 1106 431 1158 q 396 1072 421 1086 q 344 1053 371 1057 q 310 1095 325 1071 q 289 1147 296 1119 q 333 1181 308 1167 q 386 1200 358 1196 m 621 1200 q 655 1156 640 1181 q 674 1106 669 1132 q 631 1072 656 1086 q 581 1053 607 1057 q 525 1147 538 1089 q 568 1181 543 1167 q 621 1200 593 1196 z "},"Ẏ":{"ha":939,"x_min":11,"x_max":929,"o":"m 231 0 l 231 39 q 399 71 315 63 l 403 349 l 132 826 l 11 857 l 11 900 l 435 900 l 435 865 q 276 824 358 838 l 485 436 l 697 819 l 542 857 l 542 900 l 929 900 l 929 865 q 800 822 867 836 l 524 349 l 524 71 l 693 43 l 693 0 l 231 0 m 506 1211 q 544 1163 528 1190 q 564 1106 560 1135 q 517 1067 544 1083 q 460 1047 489 1050 q 400 1151 413 1088 q 447 1190 419 1174 q 506 1211 475 1206 z "},"Ỵ":{"ha":939,"x_min":11,"x_max":929,"o":"m 231 0 l 231 39 q 399 71 315 63 l 403 349 l 132 826 l 11 857 l 11 900 l 435 900 l 435 865 q 276 824 358 838 l 485 436 l 697 819 l 542 857 l 542 900 l 929 900 l 929 865 q 800 822 867 836 l 524 349 l 524 71 l 693 43 l 693 0 l 231 0 m 493 -101 q 529 -147 514 -121 q 549 -201 544 -174 q 504 -237 531 -222 q 450 -256 478 -251 q 393 -158 407 -219 q 493 -101 435 -112 z "},"Ỳ":{"ha":939,"x_min":11,"x_max":929,"o":"m 231 0 l 231 39 q 399 71 315 63 l 403 349 l 132 826 l 11 857 l 11 900 l 435 900 l 435 865 q 276 824 358 838 l 485 436 l 697 819 l 542 857 l 542 900 l 929 900 l 929 865 q 800 822 867 836 l 524 349 l 524 71 l 693 43 l 693 0 l 231 0 m 608 1006 q 469 1078 538 1040 q 333 1160 400 1117 l 376 1238 l 393 1238 l 631 1042 l 608 1006 z "},"Ỷ":{"ha":939,"x_min":11,"x_max":929,"o":"m 231 0 l 231 39 q 399 71 315 63 l 403 349 l 132 826 l 11 857 l 11 900 l 435 900 l 435 865 q 276 824 358 838 l 485 436 l 697 819 l 542 857 l 542 900 l 929 900 l 929 865 q 800 822 867 836 l 524 349 l 524 71 l 693 43 l 693 0 l 231 0 m 447 972 l 447 1007 q 460 1047 447 1031 q 488 1076 472 1063 q 516 1103 504 1089 q 528 1135 528 1117 q 472 1172 528 1172 q 435 1169 456 1172 q 389 1160 414 1167 l 379 1218 q 485 1233 435 1233 q 576 1210 542 1233 q 611 1144 611 1188 q 597 1094 611 1114 q 563 1059 582 1074 q 526 1031 543 1044 q 506 997 510 1017 l 501 971 l 447 972 z "},"Ȳ":{"ha":939,"x_min":11,"x_max":929,"o":"m 231 0 l 231 39 q 399 71 315 63 l 403 349 l 132 826 l 11 857 l 11 900 l 435 900 l 435 865 q 276 824 358 838 l 485 436 l 697 819 l 542 857 l 542 900 l 929 900 l 929 865 q 800 822 867 836 l 524 349 l 524 71 l 693 43 l 693 0 l 231 0 m 311 1089 l 311 1167 l 651 1167 l 651 1089 l 311 1089 z "},"Ỹ":{"ha":939,"x_min":11,"x_max":929,"o":"m 231 0 l 231 39 q 399 71 315 63 l 403 349 l 132 826 l 11 857 l 11 900 l 435 900 l 435 865 q 276 824 358 838 l 485 436 l 697 819 l 542 857 l 542 900 l 929 900 l 929 865 q 800 822 867 836 l 524 349 l 524 71 l 693 43 l 693 0 l 231 0 m 293 1040 l 269 1061 q 340 1159 315 1131 q 383 1191 365 1188 q 421 1189 400 1194 l 586 1147 l 669 1219 l 693 1197 q 625 1102 650 1131 q 583 1069 600 1074 q 543 1069 565 1064 l 378 1113 l 293 1040 z "},"Z":{"ha":903,"x_min":78,"x_max":815,"o":"m 78 0 l 78 38 l 647 829 l 197 819 l 153 614 l 108 614 l 104 900 l 811 900 l 811 864 l 242 72 l 722 83 l 765 290 l 810 290 l 815 0 l 78 0 z "},"Ź":{"ha":903,"x_min":78,"x_max":815,"o":"m 78 0 l 78 38 l 647 829 l 197 819 l 153 614 l 108 614 l 104 900 l 811 900 l 811 864 l 242 72 l 722 83 l 765 290 l 810 290 l 815 0 l 78 0 m 344 1006 l 324 1042 l 561 1238 l 576 1238 l 621 1160 q 485 1078 554 1117 q 344 1006 415 1040 z "},"Ž":{"ha":903,"x_min":78,"x_max":815,"o":"m 78 0 l 78 38 l 647 829 l 197 819 l 153 614 l 108 614 l 104 900 l 811 900 l 811 864 l 242 72 l 722 83 l 765 290 l 810 290 l 815 0 l 78 0 m 419 1028 l 264 1183 l 304 1224 l 453 1111 l 599 1224 l 639 1183 l 483 1028 l 419 1028 z "},"Ż":{"ha":903,"x_min":78,"x_max":815,"o":"m 78 0 l 78 38 l 647 829 l 197 819 l 153 614 l 108 614 l 104 900 l 811 900 l 811 864 l 242 72 l 722 83 l 765 290 l 810 290 l 815 0 l 78 0 m 475 1211 q 513 1163 497 1190 q 533 1106 529 1135 q 486 1067 514 1083 q 429 1047 458 1050 q 369 1151 382 1088 q 417 1190 389 1174 q 475 1211 444 1206 z "},"Ẓ":{"ha":903,"x_min":78,"x_max":815,"o":"m 78 0 l 78 38 l 647 829 l 197 819 l 153 614 l 108 614 l 104 900 l 811 900 l 811 864 l 242 72 l 722 83 l 765 290 l 810 290 l 815 0 l 78 0 m 474 -101 q 510 -147 494 -121 q 529 -201 525 -174 q 485 -237 511 -222 q 431 -256 458 -251 q 374 -158 388 -219 q 474 -101 415 -112 z "},"a":{"ha":699,"x_min":57,"x_max":697,"o":"m 267 -14 q 115 38 172 -12 q 57 168 57 88 q 74 234 57 206 q 133 287 90 263 q 253 335 176 311 q 453 389 331 360 l 458 533 q 233 606 367 606 q 192 603 214 606 l 169 428 q 74 518 74 444 q 106 601 74 564 q 194 661 139 639 q 317 683 250 683 q 453 654 390 683 q 563 572 515 625 l 563 96 l 697 103 q 653 22 688 51 q 574 -8 618 -8 q 498 20 533 -8 q 447 104 463 49 q 365 38 408 67 q 267 -14 322 8 m 178 199 q 288 81 178 81 q 361 93 322 81 q 443 132 400 106 l 450 324 l 188 274 q 181 235 183 254 q 178 199 178 215 z "},"á":{"ha":694,"x_min":57,"x_max":697,"o":"m 267 -14 q 115 38 172 -12 q 57 168 57 88 q 74 234 57 206 q 133 287 90 263 q 253 335 176 311 q 453 389 331 360 l 458 533 q 233 606 367 606 q 192 603 214 606 l 169 428 q 74 518 74 444 q 106 601 74 564 q 194 661 139 639 q 317 683 250 683 q 453 654 390 683 q 563 572 515 625 l 563 96 l 697 103 q 653 22 688 51 q 574 -8 618 -8 q 498 20 533 -8 q 447 104 463 49 q 365 38 408 67 q 267 -14 322 8 m 178 199 q 288 81 178 81 q 361 93 322 81 q 443 132 400 106 l 450 324 l 188 274 q 181 235 183 254 q 178 199 178 215 m 232 775 l 211 811 l 449 1007 l 464 1007 l 508 929 q 372 848 442 886 q 232 775 303 810 z "},"ă":{"ha":694,"x_min":57,"x_max":697,"o":"m 267 -14 q 115 38 172 -12 q 57 168 57 88 q 74 234 57 206 q 133 287 90 263 q 253 335 176 311 q 453 389 331 360 l 458 533 q 233 606 367 606 q 192 603 214 606 l 169 428 q 74 518 74 444 q 106 601 74 564 q 194 661 139 639 q 317 683 250 683 q 453 654 390 683 q 563 572 515 625 l 563 96 l 697 103 q 653 22 688 51 q 574 -8 618 -8 q 498 20 533 -8 q 447 104 463 49 q 365 38 408 67 q 267 -14 322 8 m 178 199 q 288 81 178 81 q 361 93 322 81 q 443 132 400 106 l 450 324 l 188 274 q 181 235 183 254 q 178 199 178 215 m 339 804 q 217 848 265 804 q 164 956 168 892 l 226 971 q 265 908 233 932 q 339 883 296 883 q 413 908 382 883 q 450 971 443 932 l 513 956 q 460 848 510 892 q 339 804 411 804 z "},"ắ":{"ha":694,"x_min":57,"x_max":697,"o":"m 267 -14 q 115 38 172 -12 q 57 168 57 88 q 74 234 57 206 q 133 287 90 263 q 253 335 176 311 q 453 389 331 360 l 458 533 q 233 606 367 606 q 192 603 214 606 l 169 428 q 74 518 74 444 q 106 601 74 564 q 194 661 139 639 q 317 683 250 683 q 453 654 390 683 q 563 572 515 625 l 563 96 l 697 103 q 653 22 688 51 q 574 -8 618 -8 q 498 20 533 -8 q 447 104 463 49 q 365 38 408 67 q 267 -14 322 8 m 178 199 q 288 81 178 81 q 361 93 322 81 q 443 132 400 106 l 450 324 l 188 274 q 181 235 183 254 q 178 199 178 215 m 197 946 l 186 989 l 458 1110 l 472 1104 l 493 1021 q 345 979 419 997 q 197 946 271 961 m 339 761 q 224 798 269 761 q 175 888 178 835 l 233 901 q 269 853 240 872 q 339 835 299 835 q 408 853 379 835 q 443 901 436 872 l 503 888 q 453 798 500 835 q 339 761 406 761 z "},"ặ":{"ha":694,"x_min":57,"x_max":697,"o":"m 267 -14 q 115 38 172 -12 q 57 168 57 88 q 74 234 57 206 q 133 287 90 263 q 253 335 176 311 q 453 389 331 360 l 458 533 q 233 606 367 606 q 192 603 214 606 l 169 428 q 74 518 74 444 q 106 601 74 564 q 194 661 139 639 q 317 683 250 683 q 453 654 390 683 q 563 572 515 625 l 563 96 l 697 103 q 653 22 688 51 q 574 -8 618 -8 q 498 20 533 -8 q 447 104 463 49 q 365 38 408 67 q 267 -14 322 8 m 178 199 q 288 81 178 81 q 361 93 322 81 q 443 132 400 106 l 450 324 l 188 274 q 181 235 183 254 q 178 199 178 215 m 351 -101 q 388 -147 372 -121 q 407 -201 403 -174 q 363 -237 389 -222 q 308 -256 336 -251 q 251 -158 265 -219 q 351 -101 293 -112 m 339 804 q 217 848 265 804 q 164 956 168 892 l 226 971 q 265 908 233 932 q 339 883 296 883 q 413 908 382 883 q 450 971 443 932 l 513 956 q 460 848 510 892 q 339 804 411 804 z "},"ằ":{"ha":694,"x_min":57,"x_max":697,"o":"m 267 -14 q 115 38 172 -12 q 57 168 57 88 q 74 234 57 206 q 133 287 90 263 q 253 335 176 311 q 453 389 331 360 l 458 533 q 233 606 367 606 q 192 603 214 606 l 169 428 q 74 518 74 444 q 106 601 74 564 q 194 661 139 639 q 317 683 250 683 q 453 654 390 683 q 563 572 515 625 l 563 96 l 697 103 q 653 22 688 51 q 574 -8 618 -8 q 498 20 533 -8 q 447 104 463 49 q 365 38 408 67 q 267 -14 322 8 m 178 199 q 288 81 178 81 q 361 93 322 81 q 443 132 400 106 l 450 324 l 188 274 q 181 235 183 254 q 178 199 178 215 m 481 946 q 333 979 407 961 q 186 1021 260 997 l 207 1104 l 221 1110 l 492 989 l 481 946 m 339 761 q 226 798 272 761 q 175 888 179 835 l 235 901 q 271 853 243 872 q 339 835 299 835 q 410 853 381 835 q 446 901 439 872 l 504 888 q 454 798 500 835 q 339 761 408 761 z "},"ẳ":{"ha":694,"x_min":57,"x_max":697,"o":"m 267 -14 q 115 38 172 -12 q 57 168 57 88 q 74 234 57 206 q 133 287 90 263 q 253 335 176 311 q 453 389 331 360 l 458 533 q 233 606 367 606 q 192 603 214 606 l 169 428 q 74 518 74 444 q 106 601 74 564 q 194 661 139 639 q 317 683 250 683 q 453 654 390 683 q 563 572 515 625 l 563 96 l 697 103 q 653 22 688 51 q 574 -8 618 -8 q 498 20 533 -8 q 447 104 463 49 q 365 38 408 67 q 267 -14 322 8 m 178 199 q 288 81 178 81 q 361 93 322 81 q 443 132 400 106 l 450 324 l 188 274 q 181 235 183 254 q 178 199 178 215 m 307 918 l 307 944 q 325 983 307 968 q 360 1010 343 997 q 378 1040 378 1022 q 331 1067 378 1067 q 256 1057 301 1067 l 246 1110 q 342 1122 297 1122 q 426 1103 394 1122 q 458 1051 458 1085 q 436 1001 458 1019 q 391 968 414 982 q 363 936 368 954 l 358 917 l 307 918 m 338 760 q 221 797 267 760 q 171 888 175 833 l 231 901 q 267 853 238 872 q 338 835 297 835 q 408 853 379 835 q 444 901 438 872 l 506 888 q 454 797 501 833 q 338 760 407 760 z "},"ẵ":{"ha":694,"x_min":57,"x_max":697,"o":"m 267 -14 q 115 38 172 -12 q 57 168 57 88 q 74 234 57 206 q 133 287 90 263 q 253 335 176 311 q 453 389 331 360 l 458 533 q 233 606 367 606 q 192 603 214 606 l 169 428 q 74 518 74 444 q 106 601 74 564 q 194 661 139 639 q 317 683 250 683 q 453 654 390 683 q 563 572 515 625 l 563 96 l 697 103 q 653 22 688 51 q 574 -8 618 -8 q 498 20 533 -8 q 447 104 463 49 q 365 38 408 67 q 267 -14 322 8 m 178 199 q 288 81 178 81 q 361 93 322 81 q 443 132 400 106 l 450 324 l 188 274 q 181 235 183 254 q 178 199 178 215 m 151 954 l 131 974 q 196 1043 171 1019 q 240 1072 221 1067 q 283 1074 258 1078 l 436 1042 l 526 1093 l 547 1076 q 482 1005 507 1028 q 438 976 457 982 q 393 976 418 971 l 242 1008 l 151 954 m 338 760 q 222 796 268 760 q 169 886 175 832 l 231 900 q 267 852 238 871 q 338 833 296 833 q 407 852 378 833 q 444 900 436 871 l 503 886 q 453 796 500 832 q 338 760 406 760 z "},"ǎ":{"ha":694,"x_min":57,"x_max":697,"o":"m 267 -14 q 115 38 172 -12 q 57 168 57 88 q 74 234 57 206 q 133 287 90 263 q 253 335 176 311 q 453 389 331 360 l 458 533 q 233 606 367 606 q 192 603 214 606 l 169 428 q 74 518 74 444 q 106 601 74 564 q 194 661 139 639 q 317 683 250 683 q 453 654 390 683 q 563 572 515 625 l 563 96 l 697 103 q 653 22 688 51 q 574 -8 618 -8 q 498 20 533 -8 q 447 104 463 49 q 365 38 408 67 q 267 -14 322 8 m 178 199 q 288 81 178 81 q 361 93 322 81 q 443 132 400 106 l 450 324 l 188 274 q 181 235 183 254 q 178 199 178 215 m 307 797 l 151 953 l 192 993 l 340 881 l 486 993 l 526 953 l 371 797 l 307 797 z "},"â":{"ha":694,"x_min":57,"x_max":697,"o":"m 267 -14 q 115 38 172 -12 q 57 168 57 88 q 74 234 57 206 q 133 287 90 263 q 253 335 176 311 q 453 389 331 360 l 458 533 q 233 606 367 606 q 192 603 214 606 l 169 428 q 74 518 74 444 q 106 601 74 564 q 194 661 139 639 q 317 683 250 683 q 453 654 390 683 q 563 572 515 625 l 563 96 l 697 103 q 653 22 688 51 q 574 -8 618 -8 q 498 20 533 -8 q 447 104 463 49 q 365 38 408 67 q 267 -14 322 8 m 178 199 q 288 81 178 81 q 361 93 322 81 q 443 132 400 106 l 450 324 l 188 274 q 181 235 183 254 q 178 199 178 215 m 392 997 l 546 842 l 506 803 l 358 914 l 213 803 l 172 842 l 326 997 l 392 997 z "},"ấ":{"ha":694,"x_min":57,"x_max":697,"o":"m 267 -14 q 115 38 172 -12 q 57 168 57 88 q 74 234 57 206 q 133 287 90 263 q 253 335 176 311 q 453 389 331 360 l 458 533 q 233 606 367 606 q 192 603 214 606 l 169 428 q 74 518 74 444 q 106 601 74 564 q 194 661 139 639 q 317 683 250 683 q 453 654 390 683 q 563 572 515 625 l 563 96 l 697 103 q 653 22 688 51 q 574 -8 618 -8 q 498 20 533 -8 q 447 104 463 49 q 365 38 408 67 q 267 -14 322 8 m 178 199 q 288 81 178 81 q 361 93 322 81 q 443 132 400 106 l 450 324 l 188 274 q 181 235 183 254 q 178 199 178 215 m 201 946 l 190 989 l 461 1110 l 476 1104 l 497 1021 q 349 979 424 997 q 201 946 275 961 m 197 761 l 161 797 l 304 922 l 367 922 l 510 797 l 474 761 l 336 846 l 197 761 z "},"ậ":{"ha":694,"x_min":57,"x_max":697,"o":"m 267 -14 q 115 38 172 -12 q 57 168 57 88 q 74 234 57 206 q 133 287 90 263 q 253 335 176 311 q 453 389 331 360 l 458 533 q 233 606 367 606 q 192 603 214 606 l 169 428 q 74 518 74 444 q 106 601 74 564 q 194 661 139 639 q 317 683 250 683 q 453 654 390 683 q 563 572 515 625 l 563 96 l 697 103 q 653 22 688 51 q 574 -8 618 -8 q 498 20 533 -8 q 447 104 463 49 q 365 38 408 67 q 267 -14 322 8 m 178 199 q 288 81 178 81 q 361 93 322 81 q 443 132 400 106 l 450 324 l 188 274 q 181 235 183 254 q 178 199 178 215 m 351 -101 q 388 -147 372 -121 q 407 -201 403 -174 q 363 -237 389 -222 q 308 -256 336 -251 q 251 -158 265 -219 q 351 -101 293 -112 m 392 997 l 546 842 l 506 803 l 358 914 l 213 803 l 172 842 l 326 997 l 392 997 z "},"ầ":{"ha":694,"x_min":57,"x_max":697,"o":"m 267 -14 q 115 38 172 -12 q 57 168 57 88 q 74 234 57 206 q 133 287 90 263 q 253 335 176 311 q 453 389 331 360 l 458 533 q 233 606 367 606 q 192 603 214 606 l 169 428 q 74 518 74 444 q 106 601 74 564 q 194 661 139 639 q 317 683 250 683 q 453 654 390 683 q 563 572 515 625 l 563 96 l 697 103 q 653 22 688 51 q 574 -8 618 -8 q 498 20 533 -8 q 447 104 463 49 q 365 38 408 67 q 267 -14 322 8 m 178 199 q 288 81 178 81 q 361 93 322 81 q 443 132 400 106 l 450 324 l 188 274 q 181 235 183 254 q 178 199 178 215 m 476 946 q 328 979 403 961 q 181 1021 254 997 l 201 1104 l 215 1110 l 488 989 l 476 946 m 203 761 l 167 797 l 311 922 l 374 922 l 517 797 l 481 761 l 342 846 l 203 761 z "},"ẩ":{"ha":694,"x_min":57,"x_max":697,"o":"m 267 -14 q 115 38 172 -12 q 57 168 57 88 q 74 234 57 206 q 133 287 90 263 q 253 335 176 311 q 453 389 331 360 l 458 533 q 233 606 367 606 q 192 603 214 606 l 169 428 q 74 518 74 444 q 106 601 74 564 q 194 661 139 639 q 317 683 250 683 q 453 654 390 683 q 563 572 515 625 l 563 96 l 697 103 q 653 22 688 51 q 574 -8 618 -8 q 498 20 533 -8 q 447 104 463 49 q 365 38 408 67 q 267 -14 322 8 m 178 199 q 288 81 178 81 q 361 93 322 81 q 443 132 400 106 l 450 324 l 188 274 q 181 235 183 254 q 178 199 178 215 m 443 888 l 443 914 q 460 953 443 939 q 495 981 478 968 q 513 1011 513 993 q 465 1038 513 1038 q 432 1035 450 1038 q 392 1028 414 1033 l 382 1079 q 430 1090 406 1086 q 476 1093 454 1093 q 560 1074 529 1093 q 592 1022 592 1056 q 570 971 592 989 q 526 939 549 953 q 497 906 503 925 l 492 888 l 443 888 m 201 760 l 161 797 l 308 924 l 372 924 l 519 797 l 481 760 l 339 847 l 201 760 z "},"ẫ":{"ha":694,"x_min":57,"x_max":697,"o":"m 267 -14 q 115 38 172 -12 q 57 168 57 88 q 74 234 57 206 q 133 287 90 263 q 253 335 176 311 q 453 389 331 360 l 458 533 q 233 606 367 606 q 192 603 214 606 l 169 428 q 74 518 74 444 q 106 601 74 564 q 194 661 139 639 q 317 683 250 683 q 453 654 390 683 q 563 572 515 625 l 563 96 l 697 103 q 653 22 688 51 q 574 -8 618 -8 q 498 20 533 -8 q 447 104 463 49 q 365 38 408 67 q 267 -14 322 8 m 178 199 q 288 81 178 81 q 361 93 322 81 q 443 132 400 106 l 450 324 l 188 274 q 181 235 183 254 q 178 199 178 215 m 149 957 l 128 976 q 194 1047 169 1024 q 238 1077 218 1071 q 282 1078 257 1083 l 438 1046 l 529 1097 l 549 1079 q 483 1008 508 1032 q 438 979 458 985 q 393 978 418 974 l 240 1010 l 149 957 m 199 760 l 163 796 l 307 922 l 368 922 l 511 796 l 475 760 l 338 844 l 199 760 z "},"ȁ":{"ha":694,"x_min":57,"x_max":697,"o":"m 267 -14 q 115 38 172 -12 q 57 168 57 88 q 74 234 57 206 q 133 287 90 263 q 253 335 176 311 q 453 389 331 360 l 458 533 q 233 606 367 606 q 192 603 214 606 l 169 428 q 74 518 74 444 q 106 601 74 564 q 194 661 139 639 q 317 683 250 683 q 453 654 390 683 q 563 572 515 625 l 563 96 l 697 103 q 653 22 688 51 q 574 -8 618 -8 q 498 20 533 -8 q 447 104 463 49 q 365 38 408 67 q 267 -14 322 8 m 178 199 q 288 81 178 81 q 361 93 322 81 q 443 132 400 106 l 450 324 l 188 274 q 181 235 183 254 q 178 199 178 215 m 310 775 q 204 869 256 821 q 104 968 153 917 l 160 1018 l 172 1017 l 339 800 l 310 775 m 490 775 q 384 869 436 821 q 285 968 332 917 l 339 1018 l 353 1017 l 518 800 l 490 775 z "},"ä":{"ha":694,"x_min":57,"x_max":697,"o":"m 267 -14 q 115 38 172 -12 q 57 168 57 88 q 74 234 57 206 q 133 287 90 263 q 253 335 176 311 q 453 389 331 360 l 458 533 q 233 606 367 606 q 192 603 214 606 l 169 428 q 74 518 74 444 q 106 601 74 564 q 194 661 139 639 q 317 683 250 683 q 453 654 390 683 q 563 572 515 625 l 563 96 l 697 103 q 653 22 688 51 q 574 -8 618 -8 q 498 20 533 -8 q 447 104 463 49 q 365 38 408 67 q 267 -14 322 8 m 178 199 q 288 81 178 81 q 361 93 322 81 q 443 132 400 106 l 450 324 l 188 274 q 181 235 183 254 q 178 199 178 215 m 243 969 q 294 875 288 928 q 253 841 278 856 q 201 822 228 826 q 167 865 182 840 q 146 917 153 889 q 190 951 165 936 q 243 969 215 965 m 478 969 q 512 926 497 950 q 531 875 526 901 q 488 841 513 856 q 438 822 464 826 q 382 917 394 858 q 425 951 400 936 q 478 969 450 965 z "},"ạ":{"ha":694,"x_min":57,"x_max":697,"o":"m 267 -14 q 115 38 172 -12 q 57 168 57 88 q 74 234 57 206 q 133 287 90 263 q 253 335 176 311 q 453 389 331 360 l 458 533 q 233 606 367 606 q 192 603 214 606 l 169 428 q 74 518 74 444 q 106 601 74 564 q 194 661 139 639 q 317 683 250 683 q 453 654 390 683 q 563 572 515 625 l 563 96 l 697 103 q 653 22 688 51 q 574 -8 618 -8 q 498 20 533 -8 q 447 104 463 49 q 365 38 408 67 q 267 -14 322 8 m 178 199 q 288 81 178 81 q 361 93 322 81 q 443 132 400 106 l 450 324 l 188 274 q 181 235 183 254 q 178 199 178 215 m 351 -101 q 388 -147 372 -121 q 407 -201 403 -174 q 363 -237 389 -222 q 308 -256 336 -251 q 251 -158 265 -219 q 351 -101 293 -112 z "},"à":{"ha":694,"x_min":57,"x_max":697,"o":"m 267 -14 q 115 38 172 -12 q 57 168 57 88 q 74 234 57 206 q 133 287 90 263 q 253 335 176 311 q 453 389 331 360 l 458 533 q 233 606 367 606 q 192 603 214 606 l 169 428 q 74 518 74 444 q 106 601 74 564 q 194 661 139 639 q 317 683 250 683 q 453 654 390 683 q 563 572 515 625 l 563 96 l 697 103 q 653 22 688 51 q 574 -8 618 -8 q 498 20 533 -8 q 447 104 463 49 q 365 38 408 67 q 267 -14 322 8 m 178 199 q 288 81 178 81 q 361 93 322 81 q 443 132 400 106 l 450 324 l 188 274 q 181 235 183 254 q 178 199 178 215 m 465 775 q 326 848 394 810 q 190 929 257 886 l 233 1007 l 250 1007 l 488 811 l 465 775 z "},"ả":{"ha":694,"x_min":57,"x_max":697,"o":"m 267 -14 q 115 38 172 -12 q 57 168 57 88 q 74 234 57 206 q 133 287 90 263 q 253 335 176 311 q 453 389 331 360 l 458 533 q 233 606 367 606 q 192 603 214 606 l 169 428 q 74 518 74 444 q 106 601 74 564 q 194 661 139 639 q 317 683 250 683 q 453 654 390 683 q 563 572 515 625 l 563 96 l 697 103 q 653 22 688 51 q 574 -8 618 -8 q 498 20 533 -8 q 447 104 463 49 q 365 38 408 67 q 267 -14 322 8 m 178 199 q 288 81 178 81 q 361 93 322 81 q 443 132 400 106 l 450 324 l 188 274 q 181 235 183 254 q 178 199 178 215 m 306 742 l 306 776 q 318 816 306 800 q 347 845 331 832 q 374 872 363 858 q 386 904 386 886 q 331 942 386 942 q 293 939 314 942 q 247 929 272 936 l 238 988 q 343 1003 293 1003 q 435 980 400 1003 q 469 914 469 957 q 455 863 469 883 q 421 828 440 843 q 385 800 401 814 q 364 767 368 786 l 360 740 l 306 742 z "},"ȃ":{"ha":694,"x_min":57,"x_max":697,"o":"m 267 -14 q 115 38 172 -12 q 57 168 57 88 q 74 234 57 206 q 133 287 90 263 q 253 335 176 311 q 453 389 331 360 l 458 533 q 233 606 367 606 q 192 603 214 606 l 169 428 q 74 518 74 444 q 106 601 74 564 q 194 661 139 639 q 317 683 250 683 q 453 654 390 683 q 563 572 515 625 l 563 96 l 697 103 q 653 22 688 51 q 574 -8 618 -8 q 498 20 533 -8 q 447 104 463 49 q 365 38 408 67 q 267 -14 322 8 m 178 199 q 288 81 178 81 q 361 93 322 81 q 443 132 400 106 l 450 324 l 188 274 q 181 235 183 254 q 178 199 178 215 m 339 971 q 460 926 411 971 q 513 818 508 882 l 450 804 q 413 867 443 842 q 339 892 382 892 q 265 867 294 892 q 226 804 235 842 l 164 818 q 217 926 168 882 q 339 971 267 971 z "},"ā":{"ha":694,"x_min":57,"x_max":697,"o":"m 267 -14 q 115 38 172 -12 q 57 168 57 88 q 74 234 57 206 q 133 287 90 263 q 253 335 176 311 q 453 389 331 360 l 458 533 q 233 606 367 606 q 192 603 214 606 l 169 428 q 74 518 74 444 q 106 601 74 564 q 194 661 139 639 q 317 683 250 683 q 453 654 390 683 q 563 572 515 625 l 563 96 l 697 103 q 653 22 688 51 q 574 -8 618 -8 q 498 20 533 -8 q 447 104 463 49 q 365 38 408 67 q 267 -14 322 8 m 178 199 q 288 81 178 81 q 361 93 322 81 q 443 132 400 106 l 450 324 l 188 274 q 181 235 183 254 q 178 199 178 215 m 169 858 l 169 936 l 510 936 l 510 858 l 169 858 z "},"ą":{"ha":694,"x_min":57,"x_max":697,"o":"m 267 -14 q 115 38 172 -12 q 57 168 57 88 q 74 234 57 206 q 133 287 90 263 q 253 335 176 311 q 453 389 331 360 l 458 533 q 233 606 367 606 q 192 603 214 606 l 169 428 q 74 518 74 444 q 106 601 74 564 q 194 661 139 639 q 317 683 250 683 q 453 654 390 683 q 563 572 515 625 l 563 96 l 697 103 q 653 22 688 51 q 574 -8 618 -8 q 498 20 533 -8 q 447 104 463 49 q 365 38 408 67 q 267 -14 322 8 m 178 199 q 288 81 178 81 q 361 93 322 81 q 443 132 400 106 l 450 324 l 188 274 q 181 235 183 254 q 178 199 178 215 m 544 -283 q 460 -253 489 -283 q 437 -179 432 -222 q 485 -100 442 -136 l 617 28 l 651 28 l 553 -103 q 531 -172 522 -143 q 582 -201 539 -201 q 676 -157 633 -201 l 689 -189 q 544 -283 639 -283 z "},"å":{"ha":694,"x_min":57,"x_max":697,"o":"m 267 -14 q 115 38 172 -12 q 57 168 57 88 q 74 234 57 206 q 133 287 90 263 q 253 335 176 311 q 453 389 331 360 l 458 533 q 233 606 367 606 q 192 603 214 606 l 169 428 q 74 518 74 444 q 106 601 74 564 q 194 661 139 639 q 317 683 250 683 q 453 654 390 683 q 563 572 515 625 l 563 96 l 697 103 q 653 22 688 51 q 574 -8 618 -8 q 498 20 533 -8 q 447 104 463 49 q 365 38 408 67 q 267 -14 322 8 m 178 199 q 288 81 178 81 q 361 93 322 81 q 443 132 400 106 l 450 324 l 188 274 q 181 235 183 254 q 178 199 178 215 m 339 772 q 250 808 285 772 q 215 896 215 843 q 250 985 215 950 q 339 1019 285 1019 q 428 985 393 1019 q 463 896 463 950 q 428 808 463 843 q 339 772 393 772 m 339 828 q 388 847 368 828 q 408 896 408 867 q 388 946 408 926 q 339 965 368 965 q 290 946 310 965 q 269 896 269 926 q 290 847 269 867 q 339 828 310 828 z "},"ǻ":{"ha":694,"x_min":57,"x_max":697,"o":"m 267 -14 q 115 38 172 -12 q 57 168 57 88 q 74 234 57 206 q 133 287 90 263 q 253 335 176 311 q 453 389 331 360 l 458 533 q 233 606 367 606 q 192 603 214 606 l 169 428 q 74 518 74 444 q 106 601 74 564 q 194 661 139 639 q 317 683 250 683 q 453 654 390 683 q 563 572 515 625 l 563 96 l 697 103 q 653 22 688 51 q 574 -8 618 -8 q 498 20 533 -8 q 447 104 463 49 q 365 38 408 67 q 267 -14 322 8 m 178 199 q 288 81 178 81 q 361 93 322 81 q 443 132 400 106 l 450 324 l 188 274 q 181 235 183 254 q 178 199 178 215 m 339 772 q 250 808 285 772 q 215 896 215 843 q 250 985 215 950 q 339 1019 285 1019 q 428 985 393 1019 q 463 896 463 950 q 428 808 463 843 q 339 772 393 772 m 339 828 q 388 847 368 828 q 408 896 408 867 q 388 946 408 926 q 339 965 368 965 q 290 946 310 965 q 269 896 269 926 q 290 847 269 867 q 339 828 310 828 m 233 1039 l 213 1075 l 450 1271 l 465 1271 l 510 1193 q 374 1112 443 1150 q 233 1039 304 1074 z "},"ã":{"ha":694,"x_min":57,"x_max":697,"o":"m 267 -14 q 115 38 172 -12 q 57 168 57 88 q 74 234 57 206 q 133 287 90 263 q 253 335 176 311 q 453 389 331 360 l 458 533 q 233 606 367 606 q 192 603 214 606 l 169 428 q 74 518 74 444 q 106 601 74 564 q 194 661 139 639 q 317 683 250 683 q 453 654 390 683 q 563 572 515 625 l 563 96 l 697 103 q 653 22 688 51 q 574 -8 618 -8 q 498 20 533 -8 q 447 104 463 49 q 365 38 408 67 q 267 -14 322 8 m 178 199 q 288 81 178 81 q 361 93 322 81 q 443 132 400 106 l 450 324 l 188 274 q 181 235 183 254 q 178 199 178 215 m 150 810 l 126 831 q 197 928 172 900 q 240 960 222 957 q 278 958 257 964 l 443 917 l 526 989 l 550 967 q 482 872 507 900 q 440 838 457 843 q 400 839 422 833 l 235 882 l 150 810 z "},"æ":{"ha":1056,"x_min":60,"x_max":994,"o":"m 283 -14 q 117 34 175 -12 q 60 165 60 81 q 76 233 60 204 q 134 286 92 263 q 253 334 176 310 q 450 388 329 358 q 478 519 454 463 q 236 608 376 608 q 189 606 214 608 l 167 429 q 98 461 121 438 q 75 519 75 485 q 107 601 75 565 q 193 660 139 638 q 313 682 247 682 q 531 601 438 682 q 757 682 608 682 q 929 613 864 682 q 993 433 994 544 l 989 347 q 848 325 914 333 q 713 313 782 317 q 556 306 643 308 q 627 135 568 193 q 779 76 686 76 q 876 90 824 76 q 985 129 928 103 l 993 110 q 732 -11 872 -11 q 496 126 568 -11 q 397 45 449 79 q 283 -14 344 11 m 590 565 q 564 470 574 521 q 553 368 554 419 l 889 372 l 894 436 q 851 558 894 514 q 735 603 808 603 q 665 593 703 603 q 590 565 626 583 m 172 194 q 285 75 172 75 q 483 153 374 75 q 450 324 454 225 l 182 268 q 172 194 172 228 z "},"ǽ":{"ha":1056,"x_min":60,"x_max":994,"o":"m 283 -14 q 117 34 175 -12 q 60 165 60 81 q 76 233 60 204 q 134 286 92 263 q 253 334 176 310 q 450 388 329 358 q 478 519 454 463 q 236 608 376 608 q 189 606 214 608 l 167 429 q 98 461 121 438 q 75 519 75 485 q 107 601 75 565 q 193 660 139 638 q 313 682 247 682 q 531 601 438 682 q 757 682 608 682 q 929 613 864 682 q 993 433 994 544 l 989 347 q 848 325 914 333 q 713 313 782 317 q 556 306 643 308 q 627 135 568 193 q 779 76 686 76 q 876 90 824 76 q 985 129 928 103 l 993 110 q 732 -11 872 -11 q 496 126 568 -11 q 397 45 449 79 q 283 -14 344 11 m 590 565 q 564 470 574 521 q 553 368 554 419 l 889 372 l 894 436 q 851 558 894 514 q 735 603 808 603 q 665 593 703 603 q 590 565 626 583 m 172 194 q 285 75 172 75 q 483 153 374 75 q 450 324 454 225 l 182 268 q 172 194 172 228 m 419 775 l 399 811 l 636 1007 l 651 1007 l 696 929 q 560 848 629 886 q 419 775 490 810 z "},"b":{"ha":725,"x_min":51,"x_max":672,"o":"m 107 33 l 122 871 l 51 968 q 225 1026 135 1017 l 225 564 q 297 629 260 600 q 375 682 335 658 q 394 683 385 683 q 543 640 481 683 q 639 520 606 596 q 672 347 672 444 q 580 83 672 178 q 332 -11 488 -11 q 225 -1 282 -11 q 107 33 168 10 m 372 582 q 225 528 299 582 l 225 86 q 338 69 289 69 q 503 138 444 69 q 561 332 561 207 q 510 540 561 449 q 372 582 442 582 z "},"c":{"ha":608,"x_min":53,"x_max":558,"o":"m 328 -11 q 185 32 247 -11 q 88 152 122 75 q 53 329 53 229 q 92 518 53 439 q 203 640 132 597 q 365 682 274 682 q 542 644 456 682 l 539 446 l 497 446 l 456 582 q 329 599 396 599 q 219 575 274 599 q 167 347 167 465 q 226 151 167 221 q 382 81 286 81 q 549 129 461 81 l 558 108 q 328 -11 458 -11 z "},"ć":{"ha":608,"x_min":53,"x_max":558,"o":"m 328 -11 q 185 32 247 -11 q 88 152 122 75 q 53 329 53 229 q 92 518 53 439 q 203 640 132 597 q 365 682 274 682 q 542 644 456 682 l 539 446 l 497 446 l 456 582 q 329 599 396 599 q 219 575 274 599 q 167 347 167 465 q 226 151 167 221 q 382 81 286 81 q 549 129 461 81 l 558 108 q 328 -11 458 -11 m 239 775 l 218 811 l 456 1007 l 471 1007 l 515 929 q 379 848 449 886 q 239 775 310 810 z "},"č":{"ha":608,"x_min":53,"x_max":558,"o":"m 328 -11 q 185 32 247 -11 q 88 152 122 75 q 53 329 53 229 q 92 518 53 439 q 203 640 132 597 q 365 682 274 682 q 542 644 456 682 l 539 446 l 497 446 l 456 582 q 329 599 396 599 q 219 575 274 599 q 167 347 167 465 q 226 151 167 221 q 382 81 286 81 q 549 129 461 81 l 558 108 q 328 -11 458 -11 m 314 797 l 158 953 l 199 993 l 347 881 l 493 993 l 533 953 l 378 797 l 314 797 z "},"ç":{"ha":608,"x_min":53,"x_max":558,"o":"m 328 -11 q 185 32 247 -11 q 88 152 122 75 q 53 329 53 229 q 92 518 53 439 q 203 640 132 597 q 365 682 274 682 q 542 644 456 682 l 539 446 l 497 446 l 456 582 q 329 599 396 599 q 219 575 274 599 q 167 347 167 465 q 226 151 167 221 q 382 81 286 81 q 549 129 461 81 l 558 108 q 328 -11 458 -11 m 299 19 l 347 19 l 329 -60 q 453 -115 415 -83 q 492 -193 492 -147 q 452 -275 492 -244 q 348 -310 413 -306 q 206 -290 283 -315 l 214 -212 q 307 -236 264 -228 q 397 -246 350 -244 q 413 -228 407 -240 q 418 -206 418 -215 q 387 -164 418 -182 q 268 -118 356 -146 l 299 19 z "},"ḉ":{"ha":608,"x_min":53,"x_max":558,"o":"m 328 -11 q 185 32 247 -11 q 88 152 122 75 q 53 329 53 229 q 92 518 53 439 q 203 640 132 597 q 365 682 274 682 q 542 644 456 682 l 539 446 l 497 446 l 456 582 q 329 599 396 599 q 219 575 274 599 q 167 347 167 465 q 226 151 167 221 q 382 81 286 81 q 549 129 461 81 l 558 108 q 328 -11 458 -11 m 299 19 l 347 19 l 329 -60 q 453 -115 415 -83 q 492 -193 492 -147 q 452 -275 492 -244 q 348 -310 413 -306 q 206 -290 283 -315 l 214 -212 q 307 -236 264 -228 q 397 -246 350 -244 q 413 -228 407 -240 q 418 -206 418 -215 q 387 -164 418 -182 q 268 -118 356 -146 l 299 19 m 239 775 l 218 811 l 456 1007 l 471 1007 l 515 929 q 379 848 449 886 q 239 775 310 810 z "},"ĉ":{"ha":608,"x_min":53,"x_max":558,"o":"m 328 -11 q 185 32 247 -11 q 88 152 122 75 q 53 329 53 229 q 92 518 53 439 q 203 640 132 597 q 365 682 274 682 q 542 644 456 682 l 539 446 l 497 446 l 456 582 q 329 599 396 599 q 219 575 274 599 q 167 347 167 465 q 226 151 167 221 q 382 81 286 81 q 549 129 461 81 l 558 108 q 328 -11 458 -11 m 399 997 l 553 842 l 513 803 l 365 914 l 219 803 l 179 842 l 333 997 l 399 997 z "},"ċ":{"ha":608,"x_min":53,"x_max":558,"o":"m 328 -11 q 185 32 247 -11 q 88 152 122 75 q 53 329 53 229 q 92 518 53 439 q 203 640 132 597 q 365 682 274 682 q 542 644 456 682 l 539 446 l 497 446 l 456 582 q 329 599 396 599 q 219 575 274 599 q 167 347 167 465 q 226 151 167 221 q 382 81 286 81 q 549 129 461 81 l 558 108 q 328 -11 458 -11 m 369 981 q 408 932 392 960 q 428 875 424 904 q 381 836 408 853 q 324 817 353 819 q 264 921 276 857 q 311 959 283 943 q 369 981 339 975 z "},"d":{"ha":757,"x_min":53,"x_max":749,"o":"m 551 1043 l 550 1044 l 551 1044 l 551 1043 m 329 -12 q 185 29 247 -12 q 88 146 122 71 q 53 324 53 221 q 146 588 53 493 q 396 683 239 683 q 508 671 450 683 l 511 871 l 442 968 q 522 1006 481 990 q 614 1026 564 1021 l 614 90 l 749 99 q 703 18 736 44 q 632 -8 671 -8 q 553 22 590 -8 q 503 111 515 53 q 431 44 469 76 q 346 -11 392 13 q 329 -12 340 -12 m 164 332 q 215 151 164 214 q 347 89 265 89 q 499 143 419 89 l 507 578 q 364 603 432 603 q 221 572 289 603 q 178 460 193 522 q 164 332 164 399 z "},"ð":{"ha":718,"x_min":51,"x_max":654,"o":"m 344 -12 q 131 78 210 -12 q 51 321 51 168 q 91 510 51 432 q 198 631 131 589 q 349 672 265 672 q 463 649 407 672 q 350 807 419 729 l 167 746 l 146 804 l 304 857 q 146 992 236 924 l 190 1025 q 385 883 300 958 l 564 942 l 583 883 l 436 835 q 599 605 543 726 q 654 354 654 483 q 616 160 654 243 q 508 33 578 78 q 344 -12 439 -12 m 167 326 q 218 134 167 206 q 353 63 269 63 q 489 138 439 63 q 539 342 539 213 q 507 547 539 450 q 343 594 432 594 q 224 564 281 594 q 167 326 167 450 z "},"ď":{"ha":761,"x_min":53,"x_max":807,"o":"m 551 1043 l 550 1044 l 551 1044 l 551 1043 m 329 -12 q 185 29 247 -12 q 88 146 122 71 q 53 324 53 221 q 146 588 53 493 q 396 683 239 683 q 508 671 450 683 l 511 871 l 442 968 q 522 1006 481 990 q 614 1026 564 1021 l 614 90 l 749 99 q 703 18 736 44 q 632 -8 671 -8 q 553 22 590 -8 q 503 111 515 53 q 431 44 469 76 q 346 -11 392 13 q 329 -12 340 -12 m 164 332 q 215 151 164 214 q 347 89 265 89 q 499 143 419 89 l 507 578 q 364 603 432 603 q 221 572 289 603 q 178 460 193 522 q 164 332 164 399 m 722 868 l 697 1101 q 807 1101 753 1110 l 782 868 l 722 868 z "},"đ":{"ha":757,"x_min":53,"x_max":749,"o":"m 551 1043 l 550 1044 l 551 1044 l 551 1043 m 329 -12 q 185 29 247 -12 q 88 146 122 71 q 53 324 53 221 q 146 588 53 493 q 396 683 239 683 q 508 671 450 683 l 511 871 l 442 968 q 522 1006 481 990 q 614 1026 564 1021 l 614 90 l 749 99 q 703 18 736 44 q 632 -8 671 -8 q 553 22 590 -8 q 503 111 515 53 q 431 44 469 76 q 346 -11 392 13 q 329 -12 340 -12 m 164 332 q 215 151 164 214 q 347 89 265 89 q 499 143 419 89 l 507 578 q 364 603 432 603 q 221 572 289 603 q 178 460 193 522 q 164 332 164 399 m 258 824 l 729 824 l 729 760 l 258 760 l 258 824 z "},"ḍ":{"ha":757,"x_min":53,"x_max":749,"o":"m 551 1043 l 550 1044 l 551 1044 l 551 1043 m 329 -12 q 185 29 247 -12 q 88 146 122 71 q 53 324 53 221 q 146 588 53 493 q 396 683 239 683 q 508 671 450 683 l 511 871 l 442 968 q 522 1006 481 990 q 614 1026 564 1021 l 614 90 l 749 99 q 703 18 736 44 q 632 -8 671 -8 q 553 22 590 -8 q 503 111 515 53 q 431 44 469 76 q 346 -11 392 13 q 329 -12 340 -12 m 164 332 q 215 151 164 214 q 347 89 265 89 q 499 143 419 89 l 507 578 q 364 603 432 603 q 221 572 289 603 q 178 460 193 522 q 164 332 164 399 m 399 -101 q 435 -147 419 -121 q 454 -201 450 -174 q 410 -237 436 -222 q 356 -256 383 -251 q 299 -158 313 -219 q 399 -101 340 -112 z "},"ḏ":{"ha":757,"x_min":53,"x_max":749,"o":"m 551 1043 l 550 1044 l 551 1044 l 551 1043 m 329 -12 q 185 29 247 -12 q 88 146 122 71 q 53 324 53 221 q 146 588 53 493 q 396 683 239 683 q 508 671 450 683 l 511 871 l 442 968 q 522 1006 481 990 q 614 1026 564 1021 l 614 90 l 749 99 q 703 18 736 44 q 632 -8 671 -8 q 553 22 590 -8 q 503 111 515 53 q 431 44 469 76 q 346 -11 392 13 q 329 -12 340 -12 m 164 332 q 215 151 164 214 q 347 89 265 89 q 499 143 419 89 l 507 578 q 364 603 432 603 q 221 572 289 603 q 178 460 193 522 q 164 332 164 399 z "},"ǆ":{"ha":1429,"x_min":53,"x_max":1371,"o":"m 551 1043 l 550 1044 l 551 1044 l 551 1043 m 329 -12 q 185 29 247 -12 q 88 146 122 71 q 53 324 53 221 q 146 588 53 493 q 396 683 239 683 q 508 671 450 683 l 511 871 l 442 968 q 522 1006 481 990 q 614 1026 564 1021 l 614 90 l 749 99 q 703 18 736 44 q 632 -8 671 -8 q 553 22 590 -8 q 503 111 515 53 q 431 44 469 76 q 346 -11 392 13 q 329 -12 340 -12 m 164 332 q 215 151 164 214 q 347 89 265 89 q 499 143 419 89 l 507 578 q 364 603 432 603 q 221 572 289 603 q 178 460 193 522 q 164 332 164 399 z "},"e":{"ha":661,"x_min":51,"x_max":600,"o":"m 336 -11 q 188 31 251 -11 q 88 149 124 74 q 51 325 51 225 q 90 510 51 429 q 196 636 128 590 q 354 682 264 682 q 533 614 465 682 q 600 433 600 546 l 596 344 q 455 324 522 332 q 317 312 388 317 q 161 304 246 307 q 231 138 171 196 q 386 79 290 79 q 592 132 478 79 l 600 110 q 336 -11 482 -11 m 217 565 q 160 372 167 475 l 493 375 l 496 436 q 453 557 496 511 q 342 603 411 603 q 217 565 279 603 z "},"é":{"ha":661,"x_min":51,"x_max":600,"o":"m 336 -11 q 188 31 251 -11 q 88 149 124 74 q 51 325 51 225 q 90 510 51 429 q 196 636 128 590 q 354 682 264 682 q 533 614 465 682 q 600 433 600 546 l 596 344 q 455 324 522 332 q 317 312 388 317 q 161 304 246 307 q 231 138 171 196 q 386 79 290 79 q 592 132 478 79 l 600 110 q 336 -11 482 -11 m 217 565 q 160 372 167 475 l 493 375 l 496 436 q 453 557 496 511 q 342 603 411 603 q 217 565 279 603 m 243 775 l 222 811 l 460 1007 l 475 1007 l 519 929 q 383 848 453 886 q 243 775 314 810 z "},"ĕ":{"ha":661,"x_min":51,"x_max":600,"o":"m 336 -11 q 188 31 251 -11 q 88 149 124 74 q 51 325 51 225 q 90 510 51 429 q 196 636 128 590 q 354 682 264 682 q 533 614 465 682 q 600 433 600 546 l 596 344 q 455 324 522 332 q 317 312 388 317 q 161 304 246 307 q 231 138 171 196 q 386 79 290 79 q 592 132 478 79 l 600 110 q 336 -11 482 -11 m 217 565 q 160 372 167 475 l 493 375 l 496 436 q 453 557 496 511 q 342 603 411 603 q 217 565 279 603 m 349 804 q 226 848 275 804 q 174 956 178 892 l 236 971 q 274 908 243 932 q 349 883 306 883 q 422 908 392 883 q 460 971 453 932 l 522 956 q 470 848 519 892 q 349 804 421 804 z "},"ě":{"ha":661,"x_min":51,"x_max":600,"o":"m 336 -11 q 188 31 251 -11 q 88 149 124 74 q 51 325 51 225 q 90 510 51 429 q 196 636 128 590 q 354 682 264 682 q 533 614 465 682 q 600 433 600 546 l 596 344 q 455 324 522 332 q 317 312 388 317 q 161 304 246 307 q 231 138 171 196 q 386 79 290 79 q 592 132 478 79 l 600 110 q 336 -11 482 -11 m 217 565 q 160 372 167 475 l 493 375 l 496 436 q 453 557 496 511 q 342 603 411 603 q 217 565 279 603 m 318 797 l 163 953 l 203 993 l 351 881 l 497 993 l 538 953 l 382 797 l 318 797 z "},"ḝ":{"ha":661,"x_min":51,"x_max":600,"o":"m 336 -11 q 188 31 251 -11 q 88 149 124 74 q 51 325 51 225 q 90 510 51 429 q 196 636 128 590 q 354 682 264 682 q 533 614 465 682 q 600 433 600 546 l 596 344 q 455 324 522 332 q 317 312 388 317 q 161 304 246 307 q 231 138 171 196 q 386 79 290 79 q 592 132 478 79 l 600 110 q 336 -11 482 -11 m 217 565 q 160 372 167 475 l 493 375 l 496 436 q 453 557 496 511 q 342 603 411 603 q 217 565 279 603 m 318 19 l 367 19 l 349 -60 q 473 -115 435 -83 q 511 -193 511 -147 q 472 -275 511 -244 q 367 -310 432 -306 q 225 -290 303 -315 l 233 -212 q 326 -236 283 -228 q 417 -246 369 -244 q 432 -228 426 -240 q 438 -206 438 -215 q 406 -164 438 -182 q 288 -118 375 -146 l 318 19 m 349 804 q 226 848 275 804 q 174 956 178 892 l 236 971 q 274 908 243 932 q 349 883 306 883 q 422 908 392 883 q 460 971 453 932 l 522 956 q 470 848 519 892 q 349 804 421 804 z "},"ê":{"ha":661,"x_min":51,"x_max":600,"o":"m 336 -11 q 188 31 251 -11 q 88 149 124 74 q 51 325 51 225 q 90 510 51 429 q 196 636 128 590 q 354 682 264 682 q 533 614 465 682 q 600 433 600 546 l 596 344 q 455 324 522 332 q 317 312 388 317 q 161 304 246 307 q 231 138 171 196 q 386 79 290 79 q 592 132 478 79 l 600 110 q 336 -11 482 -11 m 217 565 q 160 372 167 475 l 493 375 l 496 436 q 453 557 496 511 q 342 603 411 603 q 217 565 279 603 m 401 997 l 556 842 l 515 803 l 368 914 l 222 803 l 182 842 l 336 997 l 401 997 z "},"ế":{"ha":661,"x_min":51,"x_max":600,"o":"m 336 -11 q 188 31 251 -11 q 88 149 124 74 q 51 325 51 225 q 90 510 51 429 q 196 636 128 590 q 354 682 264 682 q 533 614 465 682 q 600 433 600 546 l 596 344 q 455 324 522 332 q 317 312 388 317 q 161 304 246 307 q 231 138 171 196 q 386 79 290 79 q 592 132 478 79 l 600 110 q 336 -11 482 -11 m 217 565 q 160 372 167 475 l 493 375 l 496 436 q 453 557 496 511 q 342 603 411 603 q 217 565 279 603 m 213 946 l 201 989 l 472 1110 l 488 1104 l 508 1021 q 360 979 435 997 q 213 946 286 961 m 208 761 l 172 797 l 315 922 l 378 922 l 521 797 l 485 761 l 347 846 l 208 761 z "},"ệ":{"ha":661,"x_min":51,"x_max":600,"o":"m 336 -11 q 188 31 251 -11 q 88 149 124 74 q 51 325 51 225 q 90 510 51 429 q 196 636 128 590 q 354 682 264 682 q 533 614 465 682 q 600 433 600 546 l 596 344 q 455 324 522 332 q 317 312 388 317 q 161 304 246 307 q 231 138 171 196 q 386 79 290 79 q 592 132 478 79 l 600 110 q 336 -11 482 -11 m 217 565 q 160 372 167 475 l 493 375 l 496 436 q 453 557 496 511 q 342 603 411 603 q 217 565 279 603 m 358 -101 q 394 -147 379 -121 q 414 -201 410 -174 q 369 -237 396 -222 q 315 -256 343 -251 q 258 -158 272 -219 q 358 -101 300 -112 m 401 997 l 556 842 l 515 803 l 368 914 l 222 803 l 182 842 l 336 997 l 401 997 z "},"ề":{"ha":661,"x_min":51,"x_max":600,"o":"m 336 -11 q 188 31 251 -11 q 88 149 124 74 q 51 325 51 225 q 90 510 51 429 q 196 636 128 590 q 354 682 264 682 q 533 614 465 682 q 600 433 600 546 l 596 344 q 455 324 522 332 q 317 312 388 317 q 161 304 246 307 q 231 138 171 196 q 386 79 290 79 q 592 132 478 79 l 600 110 q 336 -11 482 -11 m 217 565 q 160 372 167 475 l 493 375 l 496 436 q 453 557 496 511 q 342 603 411 603 q 217 565 279 603 m 486 946 q 338 979 413 961 q 190 1021 264 997 l 211 1104 l 225 1110 l 497 989 l 486 946 m 213 761 l 176 797 l 321 922 l 383 922 l 526 797 l 490 761 l 351 846 l 213 761 z "},"ể":{"ha":661,"x_min":51,"x_max":603,"o":"m 336 -11 q 188 31 251 -11 q 88 149 124 74 q 51 325 51 225 q 90 510 51 429 q 196 636 128 590 q 354 682 264 682 q 533 614 465 682 q 600 433 600 546 l 596 344 q 455 324 522 332 q 317 312 388 317 q 161 304 246 307 q 231 138 171 196 q 386 79 290 79 q 592 132 478 79 l 600 110 q 336 -11 482 -11 m 217 565 q 160 372 167 475 l 493 375 l 496 436 q 453 557 496 511 q 342 603 411 603 q 217 565 279 603 m 454 888 l 454 914 q 472 953 454 939 q 506 981 489 968 q 524 1011 524 993 q 476 1038 524 1038 q 443 1035 461 1038 q 403 1028 425 1033 l 393 1079 q 441 1090 417 1086 q 488 1093 465 1093 q 572 1074 540 1093 q 603 1022 603 1056 q 581 971 603 989 q 537 939 560 953 q 508 906 514 925 l 503 888 l 454 888 m 213 760 l 172 797 l 319 924 l 383 924 l 531 797 l 492 760 l 350 847 l 213 760 z "},"ễ":{"ha":661,"x_min":51,"x_max":600,"o":"m 336 -11 q 188 31 251 -11 q 88 149 124 74 q 51 325 51 225 q 90 510 51 429 q 196 636 128 590 q 354 682 264 682 q 533 614 465 682 q 600 433 600 546 l 596 344 q 455 324 522 332 q 317 312 388 317 q 161 304 246 307 q 231 138 171 196 q 386 79 290 79 q 592 132 478 79 l 600 110 q 336 -11 482 -11 m 217 565 q 160 372 167 475 l 493 375 l 496 436 q 453 557 496 511 q 342 603 411 603 q 217 565 279 603 m 158 957 l 138 976 q 203 1047 179 1024 q 247 1077 228 1071 q 292 1078 267 1083 l 447 1046 l 539 1097 l 558 1079 q 493 1008 518 1032 q 448 979 468 985 q 403 978 428 974 l 250 1010 l 158 957 m 208 760 l 172 796 l 317 922 l 378 922 l 521 796 l 485 760 l 347 844 l 208 760 z "},"ȅ":{"ha":661,"x_min":51,"x_max":600,"o":"m 336 -11 q 188 31 251 -11 q 88 149 124 74 q 51 325 51 225 q 90 510 51 429 q 196 636 128 590 q 354 682 264 682 q 533 614 465 682 q 600 433 600 546 l 596 344 q 455 324 522 332 q 317 312 388 317 q 161 304 246 307 q 231 138 171 196 q 386 79 290 79 q 592 132 478 79 l 600 110 q 336 -11 482 -11 m 217 565 q 160 372 167 475 l 493 375 l 496 436 q 453 557 496 511 q 342 603 411 603 q 217 565 279 603 m 319 775 q 214 869 265 821 q 114 968 163 917 l 169 1018 l 182 1017 l 349 800 l 319 775 m 500 775 q 394 869 446 821 q 294 968 342 917 l 349 1018 l 363 1017 l 528 800 l 500 775 z "},"ë":{"ha":661,"x_min":51,"x_max":600,"o":"m 336 -11 q 188 31 251 -11 q 88 149 124 74 q 51 325 51 225 q 90 510 51 429 q 196 636 128 590 q 354 682 264 682 q 533 614 465 682 q 600 433 600 546 l 596 344 q 455 324 522 332 q 317 312 388 317 q 161 304 246 307 q 231 138 171 196 q 386 79 290 79 q 592 132 478 79 l 600 110 q 336 -11 482 -11 m 217 565 q 160 372 167 475 l 493 375 l 496 436 q 453 557 496 511 q 342 603 411 603 q 217 565 279 603 m 253 969 q 304 875 297 928 q 263 841 288 856 q 211 822 238 826 q 177 865 192 840 q 156 917 163 889 q 200 951 175 936 q 253 969 225 965 m 488 969 q 522 926 507 950 q 540 875 536 901 q 498 841 522 856 q 447 822 474 826 q 392 917 404 858 q 435 951 410 936 q 488 969 460 965 z "},"ė":{"ha":661,"x_min":51,"x_max":600,"o":"m 336 -11 q 188 31 251 -11 q 88 149 124 74 q 51 325 51 225 q 90 510 51 429 q 196 636 128 590 q 354 682 264 682 q 533 614 465 682 q 600 433 600 546 l 596 344 q 455 324 522 332 q 317 312 388 317 q 161 304 246 307 q 231 138 171 196 q 386 79 290 79 q 592 132 478 79 l 600 110 q 336 -11 482 -11 m 217 565 q 160 372 167 475 l 493 375 l 496 436 q 453 557 496 511 q 342 603 411 603 q 217 565 279 603 m 374 981 q 412 932 396 960 q 432 875 428 904 q 385 836 413 853 q 328 817 357 819 q 268 921 281 857 q 315 959 288 943 q 374 981 343 975 z "},"ẹ":{"ha":661,"x_min":51,"x_max":600,"o":"m 336 -11 q 188 31 251 -11 q 88 149 124 74 q 51 325 51 225 q 90 510 51 429 q 196 636 128 590 q 354 682 264 682 q 533 614 465 682 q 600 433 600 546 l 596 344 q 455 324 522 332 q 317 312 388 317 q 161 304 246 307 q 231 138 171 196 q 386 79 290 79 q 592 132 478 79 l 600 110 q 336 -11 482 -11 m 217 565 q 160 372 167 475 l 493 375 l 496 436 q 453 557 496 511 q 342 603 411 603 q 217 565 279 603 m 358 -101 q 394 -147 379 -121 q 414 -201 410 -174 q 369 -237 396 -222 q 315 -256 343 -251 q 258 -158 272 -219 q 358 -101 300 -112 z "},"è":{"ha":661,"x_min":51,"x_max":600,"o":"m 336 -11 q 188 31 251 -11 q 88 149 124 74 q 51 325 51 225 q 90 510 51 429 q 196 636 128 590 q 354 682 264 682 q 533 614 465 682 q 600 433 600 546 l 596 344 q 455 324 522 332 q 317 312 388 317 q 161 304 246 307 q 231 138 171 196 q 386 79 290 79 q 592 132 478 79 l 600 110 q 336 -11 482 -11 m 217 565 q 160 372 167 475 l 493 375 l 496 436 q 453 557 496 511 q 342 603 411 603 q 217 565 279 603 m 475 775 q 335 848 404 810 q 200 929 267 886 l 243 1007 l 260 1007 l 497 811 l 475 775 z "},"ẻ":{"ha":661,"x_min":51,"x_max":600,"o":"m 336 -11 q 188 31 251 -11 q 88 149 124 74 q 51 325 51 225 q 90 510 51 429 q 196 636 128 590 q 354 682 264 682 q 533 614 465 682 q 600 433 600 546 l 596 344 q 455 324 522 332 q 317 312 388 317 q 161 304 246 307 q 231 138 171 196 q 386 79 290 79 q 592 132 478 79 l 600 110 q 336 -11 482 -11 m 217 565 q 160 372 167 475 l 493 375 l 496 436 q 453 557 496 511 q 342 603 411 603 q 217 565 279 603 m 315 742 l 315 776 q 328 816 315 800 q 356 845 340 832 q 384 872 372 858 q 396 904 396 886 q 340 942 396 942 q 303 939 324 942 q 257 929 282 936 l 247 988 q 353 1003 303 1003 q 444 980 410 1003 q 479 914 479 957 q 465 863 479 883 q 431 828 450 843 q 394 800 411 814 q 374 767 378 786 l 369 740 l 315 742 z "},"ȇ":{"ha":661,"x_min":51,"x_max":600,"o":"m 336 -11 q 188 31 251 -11 q 88 149 124 74 q 51 325 51 225 q 90 510 51 429 q 196 636 128 590 q 354 682 264 682 q 533 614 465 682 q 600 433 600 546 l 596 344 q 455 324 522 332 q 317 312 388 317 q 161 304 246 307 q 231 138 171 196 q 386 79 290 79 q 592 132 478 79 l 600 110 q 336 -11 482 -11 m 217 565 q 160 372 167 475 l 493 375 l 496 436 q 453 557 496 511 q 342 603 411 603 q 217 565 279 603 m 350 971 q 471 926 422 971 q 524 818 519 882 l 461 804 q 424 867 454 842 q 350 892 393 892 q 276 867 306 892 q 238 804 246 842 l 175 818 q 228 926 179 882 q 350 971 278 971 z "},"ē":{"ha":661,"x_min":51,"x_max":600,"o":"m 336 -11 q 188 31 251 -11 q 88 149 124 74 q 51 325 51 225 q 90 510 51 429 q 196 636 128 590 q 354 682 264 682 q 533 614 465 682 q 600 433 600 546 l 596 344 q 455 324 522 332 q 317 312 388 317 q 161 304 246 307 q 231 138 171 196 q 386 79 290 79 q 592 132 478 79 l 600 110 q 336 -11 482 -11 m 217 565 q 160 372 167 475 l 493 375 l 496 436 q 453 557 496 511 q 342 603 411 603 q 217 565 279 603 m 179 858 l 179 936 l 519 936 l 519 858 l 179 858 z "},"ḗ":{"ha":661,"x_min":51,"x_max":600,"o":"m 336 -11 q 188 31 251 -11 q 88 149 124 74 q 51 325 51 225 q 90 510 51 429 q 196 636 128 590 q 354 682 264 682 q 533 614 465 682 q 600 433 600 546 l 596 344 q 455 324 522 332 q 317 312 388 317 q 161 304 246 307 q 231 138 171 196 q 386 79 290 79 q 592 132 478 79 l 600 110 q 336 -11 482 -11 m 217 565 q 160 372 167 475 l 493 375 l 496 436 q 453 557 496 511 q 342 603 411 603 q 217 565 279 603 m 201 919 l 189 958 l 468 1082 l 483 1081 l 510 999 q 358 954 435 974 q 201 919 281 935 m 171 779 l 171 851 l 529 851 l 529 779 l 171 779 z "},"ḕ":{"ha":661,"x_min":51,"x_max":600,"o":"m 336 -11 q 188 31 251 -11 q 88 149 124 74 q 51 325 51 225 q 90 510 51 429 q 196 636 128 590 q 354 682 264 682 q 533 614 465 682 q 600 433 600 546 l 596 344 q 455 324 522 332 q 317 312 388 317 q 161 304 246 307 q 231 138 171 196 q 386 79 290 79 q 592 132 478 79 l 600 110 q 336 -11 482 -11 m 217 565 q 160 372 167 475 l 493 375 l 496 436 q 453 557 496 511 q 342 603 411 603 q 217 565 279 603 m 496 919 q 341 954 418 935 q 188 999 264 974 l 215 1081 l 231 1082 l 510 958 l 496 919 m 168 779 l 168 851 l 528 851 l 528 779 l 168 779 z "},"ę":{"ha":661,"x_min":51,"x_max":600,"o":"m 336 -11 q 188 31 251 -11 q 88 149 124 74 q 51 325 51 225 q 90 510 51 429 q 196 636 128 590 q 354 682 264 682 q 533 614 465 682 q 600 433 600 546 l 596 344 q 455 324 522 332 q 317 312 388 317 q 161 304 246 307 q 231 138 171 196 q 386 79 290 79 q 592 132 478 79 l 600 110 q 336 -11 482 -11 m 217 565 q 160 372 167 475 l 493 375 l 496 436 q 453 557 496 511 q 342 603 411 603 q 217 565 279 603 m 372 -278 q 288 -247 317 -278 q 265 -174 260 -217 q 313 -94 269 -131 l 444 33 l 479 33 l 381 -97 q 358 -167 350 -137 q 410 -196 367 -196 q 504 -151 461 -196 l 517 -183 q 372 -278 467 -278 z "},"ẽ":{"ha":661,"x_min":51,"x_max":600,"o":"m 336 -11 q 188 31 251 -11 q 88 149 124 74 q 51 325 51 225 q 90 510 51 429 q 196 636 128 590 q 354 682 264 682 q 533 614 465 682 q 600 433 600 546 l 596 344 q 455 324 522 332 q 317 312 388 317 q 161 304 246 307 q 231 138 171 196 q 386 79 290 79 q 592 132 478 79 l 600 110 q 336 -11 482 -11 m 217 565 q 160 372 167 475 l 493 375 l 496 436 q 453 557 496 511 q 342 603 411 603 q 217 565 279 603 m 160 810 l 136 831 q 207 928 182 900 q 249 960 232 957 q 288 958 267 964 l 453 917 l 536 989 l 560 967 q 492 872 517 900 q 449 838 467 843 q 410 839 432 833 l 244 882 l 160 810 z "},"ə":{"ha":661,"x_min":61,"x_max":610,"o":"m 325 682 q 474 640 410 682 q 574 522 539 597 q 610 344 610 446 q 572 160 610 240 q 467 34 535 79 q 307 -11 399 -11 q 129 57 197 -11 q 63 238 61 125 l 65 326 q 206 347 139 339 q 344 359 274 354 q 500 365 415 364 q 431 533 490 475 q 275 590 372 590 q 71 539 183 590 l 63 560 q 325 682 179 682 m 165 233 q 208 113 165 158 q 319 68 250 68 q 444 106 382 68 q 501 299 494 196 l 168 294 l 165 233 z "},"f":{"ha":450,"x_min":36,"x_max":475,"o":"m 36 601 l 36 624 q 91 652 63 640 q 153 668 119 664 q 231 936 158 846 q 429 1026 304 1026 q 475 1022 451 1026 l 475 918 q 379 925 425 925 q 283 918 331 925 q 263 822 269 888 q 257 668 256 757 l 454 668 l 447 601 l 260 601 l 260 63 l 390 36 l 390 0 l 49 0 l 49 33 q 90 51 67 43 q 142 67 113 60 l 151 601 l 36 601 z "},"g":{"ha":725,"x_min":29,"x_max":732,"o":"m 342 232 q 213 250 268 232 l 210 136 l 531 136 q 612 113 575 136 q 670 51 649 90 q 692 -37 692 13 q 645 -167 692 -111 q 517 -253 599 -222 q 328 -285 435 -285 q 110 -231 190 -285 q 29 -79 31 -176 q 185 46 88 4 q 139 99 154 69 q 124 154 124 128 q 140 212 124 185 q 186 260 157 239 q 67 447 67 313 q 145 620 67 557 q 363 683 224 683 q 529 650 461 683 q 517 706 517 682 q 550 785 517 757 q 643 813 583 813 q 684 809 663 813 q 732 797 706 806 l 721 721 l 581 721 l 564 628 q 640 468 640 571 q 560 295 640 358 q 342 232 481 232 m 347 306 q 481 348 432 306 q 529 463 529 390 q 482 569 529 532 q 353 607 435 607 q 288 602 322 607 q 221 588 253 597 q 190 513 200 549 q 179 449 179 476 q 224 344 179 383 q 347 306 269 306 m 142 -78 q 197 -168 142 -135 q 347 -201 251 -201 q 515 -162 451 -201 q 579 -57 579 -122 q 569 -9 579 -35 q 540 38 560 17 l 213 38 q 157 -26 172 1 q 142 -78 142 -54 z "},"ğ":{"ha":719,"x_min":29,"x_max":732,"o":"m 342 232 q 213 250 268 232 l 210 136 l 531 136 q 612 113 575 136 q 670 51 649 90 q 692 -37 692 13 q 645 -167 692 -111 q 517 -253 599 -222 q 328 -285 435 -285 q 110 -231 190 -285 q 29 -79 31 -176 q 185 46 88 4 q 139 99 154 69 q 124 154 124 128 q 140 212 124 185 q 186 260 157 239 q 67 447 67 313 q 145 620 67 557 q 363 683 224 683 q 529 650 461 683 q 517 706 517 682 q 550 785 517 757 q 643 813 583 813 q 684 809 663 813 q 732 797 706 806 l 721 721 l 581 721 l 564 628 q 640 468 640 571 q 560 295 640 358 q 342 232 481 232 m 347 306 q 481 348 432 306 q 529 463 529 390 q 482 569 529 532 q 353 607 435 607 q 288 602 322 607 q 221 588 253 597 q 190 513 200 549 q 179 449 179 476 q 224 344 179 383 q 347 306 269 306 m 142 -78 q 197 -168 142 -135 q 347 -201 251 -201 q 515 -162 451 -201 q 579 -57 579 -122 q 569 -9 579 -35 q 540 38 560 17 l 213 38 q 157 -26 172 1 q 142 -78 142 -54 m 353 824 q 231 867 279 824 q 178 975 182 911 l 240 990 q 278 927 247 951 q 353 903 310 903 q 426 927 396 903 q 464 990 457 951 l 526 975 q 474 867 524 911 q 353 824 425 824 z "},"ǧ":{"ha":719,"x_min":29,"x_max":732,"o":"m 342 232 q 213 250 268 232 l 210 136 l 531 136 q 612 113 575 136 q 670 51 649 90 q 692 -37 692 13 q 645 -167 692 -111 q 517 -253 599 -222 q 328 -285 435 -285 q 110 -231 190 -285 q 29 -79 31 -176 q 185 46 88 4 q 139 99 154 69 q 124 154 124 128 q 140 212 124 185 q 186 260 157 239 q 67 447 67 313 q 145 620 67 557 q 363 683 224 683 q 529 650 461 683 q 517 706 517 682 q 550 785 517 757 q 643 813 583 813 q 684 809 663 813 q 732 797 706 806 l 721 721 l 581 721 l 564 628 q 640 468 640 571 q 560 295 640 358 q 342 232 481 232 m 347 306 q 481 348 432 306 q 529 463 529 390 q 482 569 529 532 q 353 607 435 607 q 288 602 322 607 q 221 588 253 597 q 190 513 200 549 q 179 449 179 476 q 224 344 179 383 q 347 306 269 306 m 142 -78 q 197 -168 142 -135 q 347 -201 251 -201 q 515 -162 451 -201 q 579 -57 579 -122 q 569 -9 579 -35 q 540 38 560 17 l 213 38 q 157 -26 172 1 q 142 -78 142 -54 m 322 817 l 167 972 l 207 1013 l 356 900 l 501 1013 l 542 972 l 386 817 l 322 817 z "},"ĝ":{"ha":719,"x_min":29,"x_max":732,"o":"m 342 232 q 213 250 268 232 l 210 136 l 531 136 q 612 113 575 136 q 670 51 649 90 q 692 -37 692 13 q 645 -167 692 -111 q 517 -253 599 -222 q 328 -285 435 -285 q 110 -231 190 -285 q 29 -79 31 -176 q 185 46 88 4 q 139 99 154 69 q 124 154 124 128 q 140 212 124 185 q 186 260 157 239 q 67 447 67 313 q 145 620 67 557 q 363 683 224 683 q 529 650 461 683 q 517 706 517 682 q 550 785 517 757 q 643 813 583 813 q 684 809 663 813 q 732 797 706 806 l 721 721 l 581 721 l 564 628 q 640 468 640 571 q 560 295 640 358 q 342 232 481 232 m 347 306 q 481 348 432 306 q 529 463 529 390 q 482 569 529 532 q 353 607 435 607 q 288 602 322 607 q 221 588 253 597 q 190 513 200 549 q 179 449 179 476 q 224 344 179 383 q 347 306 269 306 m 142 -78 q 197 -168 142 -135 q 347 -201 251 -201 q 515 -162 451 -201 q 579 -57 579 -122 q 569 -9 579 -35 q 540 38 560 17 l 213 38 q 157 -26 172 1 q 142 -78 142 -54 m 413 1030 l 563 879 l 524 841 l 380 949 l 238 841 l 199 879 l 349 1030 l 413 1030 z "},"ģ":{"ha":719,"x_min":29,"x_max":732,"o":"m 342 232 q 213 250 268 232 l 210 136 l 531 136 q 612 113 575 136 q 670 51 649 90 q 692 -37 692 13 q 645 -167 692 -111 q 517 -253 599 -222 q 328 -285 435 -285 q 110 -231 190 -285 q 29 -79 31 -176 q 185 46 88 4 q 139 99 154 69 q 124 154 124 128 q 140 212 124 185 q 186 260 157 239 q 67 447 67 313 q 145 620 67 557 q 363 683 224 683 q 529 650 461 683 q 517 706 517 682 q 550 785 517 757 q 643 813 583 813 q 684 809 663 813 q 732 797 706 806 l 721 721 l 581 721 l 564 628 q 640 468 640 571 q 560 295 640 358 q 342 232 481 232 m 347 306 q 481 348 432 306 q 529 463 529 390 q 482 569 529 532 q 353 607 435 607 q 288 602 322 607 q 221 588 253 597 q 190 513 200 549 q 179 449 179 476 q 224 344 179 383 q 347 306 269 306 m 142 -78 q 197 -168 142 -135 q 347 -201 251 -201 q 515 -162 451 -201 q 579 -57 579 -122 q 569 -9 579 -35 q 540 38 560 17 l 213 38 q 157 -26 172 1 q 142 -78 142 -54 m 410 1017 l 383 861 l 413 804 q 368 772 390 783 q 319 754 346 761 q 274 839 288 788 q 374 1024 311 933 l 410 1017 z "},"ġ":{"ha":719,"x_min":29,"x_max":732,"o":"m 342 232 q 213 250 268 232 l 210 136 l 531 136 q 612 113 575 136 q 670 51 649 90 q 692 -37 692 13 q 645 -167 692 -111 q 517 -253 599 -222 q 328 -285 435 -285 q 110 -231 190 -285 q 29 -79 31 -176 q 185 46 88 4 q 139 99 154 69 q 124 154 124 128 q 140 212 124 185 q 186 260 157 239 q 67 447 67 313 q 145 620 67 557 q 363 683 224 683 q 529 650 461 683 q 517 706 517 682 q 550 785 517 757 q 643 813 583 813 q 684 809 663 813 q 732 797 706 806 l 721 721 l 581 721 l 564 628 q 640 468 640 571 q 560 295 640 358 q 342 232 481 232 m 347 306 q 481 348 432 306 q 529 463 529 390 q 482 569 529 532 q 353 607 435 607 q 288 602 322 607 q 221 588 253 597 q 190 513 200 549 q 179 449 179 476 q 224 344 179 383 q 347 306 269 306 m 142 -78 q 197 -168 142 -135 q 347 -201 251 -201 q 515 -162 451 -201 q 579 -57 579 -122 q 569 -9 579 -35 q 540 38 560 17 l 213 38 q 157 -26 172 1 q 142 -78 142 -54 m 376 1000 q 415 951 399 979 q 435 894 431 924 q 388 856 415 872 q 331 836 360 839 q 271 940 283 876 q 318 978 290 963 q 376 1000 346 994 z "},"ḡ":{"ha":719,"x_min":29,"x_max":732,"o":"m 342 232 q 213 250 268 232 l 210 136 l 531 136 q 612 113 575 136 q 670 51 649 90 q 692 -37 692 13 q 645 -167 692 -111 q 517 -253 599 -222 q 328 -285 435 -285 q 110 -231 190 -285 q 29 -79 31 -176 q 185 46 88 4 q 139 99 154 69 q 124 154 124 128 q 140 212 124 185 q 186 260 157 239 q 67 447 67 313 q 145 620 67 557 q 363 683 224 683 q 529 650 461 683 q 517 706 517 682 q 550 785 517 757 q 643 813 583 813 q 684 809 663 813 q 732 797 706 806 l 721 721 l 581 721 l 564 628 q 640 468 640 571 q 560 295 640 358 q 342 232 481 232 m 347 306 q 481 348 432 306 q 529 463 529 390 q 482 569 529 532 q 353 607 435 607 q 288 602 322 607 q 221 588 253 597 q 190 513 200 549 q 179 449 179 476 q 224 344 179 383 q 347 306 269 306 m 142 -78 q 197 -168 142 -135 q 347 -201 251 -201 q 515 -162 451 -201 q 579 -57 579 -122 q 569 -9 579 -35 q 540 38 560 17 l 213 38 q 157 -26 172 1 q 142 -78 142 -54 m 183 878 l 183 956 l 524 956 l 524 878 l 183 878 z "},"h":{"ha":776,"x_min":28,"x_max":757,"o":"m 28 0 l 28 33 q 69 51 46 43 q 122 67 92 60 l 138 871 l 64 967 q 148 1006 104 990 q 240 1026 192 1021 l 240 557 q 403 681 311 636 q 436 682 418 682 q 654 572 565 682 l 654 63 l 757 36 l 757 0 l 443 0 l 443 33 q 483 51 461 43 q 536 67 506 60 l 550 521 q 397 583 479 583 q 240 525 319 583 l 240 63 l 342 36 l 342 0 l 28 0 z "},"ħ":{"ha":776,"x_min":15,"x_max":757,"o":"m 28 0 l 28 33 q 69 51 46 43 q 122 67 92 60 l 138 871 l 64 967 q 148 1006 104 990 q 240 1026 192 1021 l 240 557 q 403 681 311 636 q 436 682 418 682 q 654 572 565 682 l 654 63 l 757 36 l 757 0 l 443 0 l 443 33 q 483 51 461 43 q 536 67 506 60 l 550 521 q 397 583 479 583 q 240 525 319 583 l 240 63 l 342 36 l 342 0 l 28 0 m 15 824 l 486 824 l 486 760 l 15 760 l 15 824 z "},"ḫ":{"ha":776,"x_min":28,"x_max":757,"o":"m 28 0 l 28 33 q 69 51 46 43 q 122 67 92 60 l 138 871 l 64 967 q 148 1006 104 990 q 240 1026 192 1021 l 240 557 q 403 681 311 636 q 436 682 418 682 q 654 572 565 682 l 654 63 l 757 36 l 757 0 l 443 0 l 443 33 q 483 51 461 43 q 536 67 506 60 l 550 521 q 397 583 479 583 q 240 525 319 583 l 240 63 l 342 36 l 342 0 l 28 0 z "},"ĥ":{"ha":776,"x_min":10,"x_max":757,"o":"m 28 0 l 28 33 q 69 51 46 43 q 122 67 92 60 l 138 871 l 64 967 q 148 1006 104 990 q 240 1026 192 1021 l 240 557 q 403 681 311 636 q 436 682 418 682 q 654 572 565 682 l 654 63 l 757 36 l 757 0 l 443 0 l 443 33 q 483 51 461 43 q 536 67 506 60 l 550 521 q 397 583 479 583 q 240 525 319 583 l 240 63 l 342 36 l 342 0 l 28 0 z "},"ḥ":{"ha":776,"x_min":28,"x_max":757,"o":"m 28 0 l 28 33 q 69 51 46 43 q 122 67 92 60 l 138 871 l 64 967 q 148 1006 104 990 q 240 1026 192 1021 l 240 557 q 403 681 311 636 q 436 682 418 682 q 654 572 565 682 l 654 63 l 757 36 l 757 0 l 443 0 l 443 33 q 483 51 461 43 q 536 67 506 60 l 550 521 q 397 583 479 583 q 240 525 319 583 l 240 63 l 342 36 l 342 0 l 28 0 m 411 -101 q 447 -147 432 -121 q 467 -201 463 -174 q 422 -237 449 -222 q 368 -256 396 -251 q 311 -158 325 -219 q 411 -101 353 -112 z "},"i":{"ha":374,"x_min":33,"x_max":347,"o":"m 33 0 l 33 33 q 78 53 54 44 q 128 67 101 61 l 142 535 l 69 626 q 153 665 110 650 q 246 685 197 679 l 246 63 l 347 36 l 347 0 l 33 0 m 208 981 q 247 932 231 960 q 267 875 263 904 q 219 836 247 853 q 163 817 192 819 q 103 921 115 857 q 150 959 122 943 q 208 981 178 975 z "},"ı":{"ha":374,"x_min":33,"x_max":347,"o":"m 33 0 l 33 33 q 78 53 54 44 q 128 67 101 61 l 142 535 l 69 626 q 153 665 110 650 q 246 685 197 679 l 246 63 l 347 36 l 347 0 l 33 0 z "},"í":{"ha":374,"x_min":33,"x_max":354,"o":"m 33 0 l 33 33 q 78 53 54 44 q 128 67 101 61 l 142 535 l 69 626 q 153 665 110 650 q 246 685 197 679 l 246 63 l 347 36 l 347 0 l 33 0 m 78 775 l 57 811 l 294 1007 l 310 1007 l 354 929 q 218 848 288 886 q 78 775 149 810 z "},"ĭ":{"ha":374,"x_min":10,"x_max":358,"o":"m 33 0 l 33 33 q 78 53 54 44 q 128 67 101 61 l 142 535 l 69 626 q 153 665 110 650 q 246 685 197 679 l 246 63 l 347 36 l 347 0 l 33 0 m 185 804 q 63 848 111 804 q 10 956 14 892 l 72 971 q 110 908 79 932 q 185 883 142 883 q 258 908 228 883 q 296 971 289 932 l 358 956 q 306 848 356 892 q 185 804 257 804 z "},"ǐ":{"ha":374,"x_min":-3,"x_max":372,"o":"m 33 0 l 33 33 q 78 53 54 44 q 128 67 101 61 l 142 535 l 69 626 q 153 665 110 650 q 246 685 197 679 l 246 63 l 347 36 l 347 0 l 33 0 m 153 797 l -3 953 l 38 993 l 186 881 l 332 993 l 372 953 l 217 797 l 153 797 z "},"î":{"ha":374,"x_min":18,"x_max":392,"o":"m 33 0 l 33 33 q 78 53 54 44 q 128 67 101 61 l 142 535 l 69 626 q 153 665 110 650 q 246 685 197 679 l 246 63 l 347 36 l 347 0 l 33 0 m 238 997 l 392 842 l 351 803 l 204 914 l 58 803 l 18 842 l 172 997 l 238 997 z "},"ȉ":{"ha":374,"x_min":-50,"x_max":364,"o":"m 33 0 l 33 33 q 78 53 54 44 q 128 67 101 61 l 142 535 l 69 626 q 153 665 110 650 q 246 685 197 679 l 246 63 l 347 36 l 347 0 l 33 0 m 156 775 q 50 869 101 821 q -50 968 -1 917 l 6 1018 l 18 1017 l 185 800 l 156 775 m 336 775 q 230 869 282 821 q 131 968 178 917 l 185 1018 l 199 1017 l 364 800 l 336 775 z "},"ï":{"ha":374,"x_min":-8,"x_max":376,"o":"m 33 0 l 33 33 q 78 53 54 44 q 128 67 101 61 l 142 535 l 69 626 q 153 665 110 650 q 246 685 197 679 l 246 63 l 347 36 l 347 0 l 33 0 m 89 969 q 140 875 133 928 q 99 841 124 856 q 47 822 74 826 q 13 865 28 840 q -8 917 -1 889 q 36 951 11 936 q 89 969 61 965 m 324 969 q 358 926 343 950 q 376 875 372 901 q 334 841 358 856 q 283 822 310 826 q 228 917 240 858 q 271 951 246 936 q 324 969 296 965 z "},"ḯ":{"ha":374,"x_min":-15,"x_max":367,"o":"m 33 0 l 33 33 q 78 53 54 44 q 128 67 101 61 l 142 535 l 69 626 q 153 665 110 650 q 246 685 197 679 l 246 63 l 347 36 l 347 0 l 33 0 m 38 946 l 26 989 l 297 1110 l 311 1104 l 332 1021 q 185 979 258 997 q 38 946 111 961 m 38 764 q -15 853 -4 801 q 27 887 3 872 q 78 904 51 901 q 129 814 121 867 q 88 782 113 796 q 38 764 64 768 m 275 764 q 222 853 233 800 q 264 887 239 872 q 315 904 289 901 q 349 864 335 888 q 367 814 363 840 q 326 782 350 796 q 275 764 301 768 z "},"ị":{"ha":374,"x_min":33,"x_max":347,"o":"m 33 0 l 33 33 q 78 53 54 44 q 128 67 101 61 l 142 535 l 69 626 q 153 665 110 650 q 246 685 197 679 l 246 63 l 347 36 l 347 0 l 33 0 m 208 981 q 247 932 231 960 q 267 875 263 904 q 219 836 247 853 q 163 817 192 819 q 103 921 115 857 q 150 959 122 943 q 208 981 178 975 m 210 -101 q 246 -147 231 -121 q 265 -201 261 -174 q 221 -237 247 -222 q 167 -256 194 -251 q 110 -158 124 -219 q 210 -101 151 -112 z "},"ì":{"ha":374,"x_min":33,"x_max":347,"o":"m 33 0 l 33 33 q 78 53 54 44 q 128 67 101 61 l 142 535 l 69 626 q 153 665 110 650 q 246 685 197 679 l 246 63 l 347 36 l 347 0 l 33 0 m 311 775 q 172 848 240 810 q 36 929 103 886 l 79 1007 l 96 1007 l 333 811 l 311 775 z "},"ỉ":{"ha":374,"x_min":33,"x_max":347,"o":"m 33 0 l 33 33 q 78 53 54 44 q 128 67 101 61 l 142 535 l 69 626 q 153 665 110 650 q 246 685 197 679 l 246 63 l 347 36 l 347 0 l 33 0 m 151 742 l 151 776 q 164 816 151 800 q 192 845 176 832 q 220 872 208 858 q 232 904 232 886 q 176 942 232 942 q 139 939 160 942 q 93 929 118 936 l 83 988 q 189 1003 139 1003 q 281 980 246 1003 q 315 914 315 957 q 301 863 315 883 q 267 828 286 843 q 231 800 247 814 q 210 767 214 786 l 206 740 l 151 742 z "},"ȋ":{"ha":374,"x_min":10,"x_max":358,"o":"m 33 0 l 33 33 q 78 53 54 44 q 128 67 101 61 l 142 535 l 69 626 q 153 665 110 650 q 246 685 197 679 l 246 63 l 347 36 l 347 0 l 33 0 m 185 971 q 306 926 257 971 q 358 818 354 882 l 296 804 q 258 867 289 842 q 185 892 228 892 q 110 867 140 892 q 72 804 81 842 l 10 818 q 63 926 14 882 q 185 971 113 971 z "},"ĳ":{"ha":717,"x_min":33,"x_max":624,"o":"m 33 0 l 33 33 q 78 53 54 44 q 128 67 101 61 l 142 535 l 69 626 q 153 665 110 650 q 246 685 197 679 l 246 63 l 347 36 l 347 0 l 33 0 m 208 981 q 247 932 231 960 q 267 875 263 904 q 219 836 247 853 q 163 817 192 819 q 103 921 115 857 q 150 959 122 943 q 208 981 178 975 z "},"ī":{"ha":374,"x_min":14,"x_max":354,"o":"m 33 0 l 33 33 q 78 53 54 44 q 128 67 101 61 l 142 535 l 69 626 q 153 665 110 650 q 246 685 197 679 l 246 63 l 347 36 l 347 0 l 33 0 m 14 858 l 14 936 l 354 936 l 354 858 l 14 858 z "},"į":{"ha":374,"x_min":33,"x_max":347,"o":"m 33 0 l 33 33 q 78 53 54 44 q 128 67 101 61 l 142 535 l 69 626 q 153 665 110 650 q 246 685 197 679 l 246 63 l 347 36 l 347 0 l 33 0 m 208 981 q 247 932 231 960 q 267 875 263 904 q 219 836 247 853 q 163 817 192 819 q 103 921 115 857 q 150 959 122 943 q 208 981 178 975 m 175 -287 q 91 -257 119 -287 q 67 -183 63 -226 q 115 -104 72 -140 l 247 24 l 282 24 l 183 -107 q 161 -176 153 -147 q 213 -206 169 -206 q 307 -161 264 -206 l 319 -193 q 175 -287 269 -287 z "},"ĩ":{"ha":374,"x_min":-28,"x_max":396,"o":"m 33 0 l 33 33 q 78 53 54 44 q 128 67 101 61 l 142 535 l 69 626 q 153 665 110 650 q 246 685 197 679 l 246 63 l 347 36 l 347 0 l 33 0 m -4 810 l -28 831 q 43 928 18 900 q 85 960 68 957 q 124 958 103 964 l 289 917 l 372 989 l 396 967 q 328 872 353 900 q 285 838 303 843 q 246 839 268 833 l 81 882 l -4 810 z "},"j":{"ha":343,"x_min":-7,"x_max":250,"o":"m 6 -275 l -7 -251 l 113 -81 l 126 535 l 54 626 q 137 665 93 650 q 231 685 181 679 l 231 11 q 172 -159 231 -89 q 6 -275 113 -229 m 192 981 q 230 932 214 960 q 250 875 246 904 q 203 836 231 853 q 146 817 175 819 q 86 921 99 857 q 133 959 106 943 q 192 981 161 975 z "},"ȷ":{"ha":343,"x_min":-7,"x_max":231,"o":"m 6 -275 l -7 -251 l 113 -81 l 126 535 l 54 626 q 137 665 93 650 q 231 685 181 679 l 231 11 q 172 -159 231 -89 q 6 -275 113 -229 z "},"ĵ":{"ha":343,"x_min":-7,"x_max":375,"o":"m 6 -275 l -7 -251 l 113 -81 l 126 535 l 54 626 q 137 665 93 650 q 231 685 181 679 l 231 11 q 172 -159 231 -89 q 6 -275 113 -229 m 221 997 l 375 842 l 335 803 l 188 914 l 42 803 l 1 842 l 156 997 l 221 997 z "},"k":{"ha":697,"x_min":28,"x_max":683,"o":"m 28 0 l 28 33 q 69 51 47 43 q 122 67 92 60 l 139 871 l 64 967 q 148 1006 104 990 q 240 1026 192 1021 l 240 63 l 342 36 l 342 0 l 28 0 m 560 -11 l 278 353 l 490 599 q 413 633 451 613 l 413 671 l 679 671 l 679 633 l 586 597 l 393 374 l 683 19 q 624 1 656 10 q 560 -11 593 -7 z "},"ķ":{"ha":697,"x_min":28,"x_max":683,"o":"m 28 0 l 28 33 q 69 51 47 43 q 122 67 92 60 l 139 871 l 64 967 q 148 1006 104 990 q 240 1026 192 1021 l 240 63 l 342 36 l 342 0 l 28 0 m 560 -11 l 278 353 l 490 599 q 413 633 451 613 l 413 671 l 679 671 l 679 633 l 586 597 l 393 374 l 683 19 q 624 1 656 10 q 560 -11 593 -7 m 313 -299 l 336 -151 l 308 -97 q 397 -49 349 -62 q 424 -85 413 -65 q 440 -129 435 -104 q 400 -217 424 -174 q 346 -306 376 -261 l 313 -299 z "},"ĸ":{"ha":703,"x_min":35,"x_max":690,"o":"m 35 0 l 35 33 q 75 51 53 43 q 129 67 97 60 l 143 535 l 71 626 q 155 665 111 650 q 247 685 199 679 l 247 63 l 349 36 l 349 0 l 35 0 m 690 19 q 631 1 661 10 q 565 -11 600 -7 l 285 353 l 497 599 q 418 633 458 611 l 418 671 l 686 671 l 686 633 l 593 597 l 399 374 l 690 19 z "},"l":{"ha":369,"x_min":28,"x_max":342,"o":"m 28 0 l 28 33 q 69 51 46 43 q 122 67 92 60 l 138 871 l 64 967 q 148 1006 104 990 q 240 1026 192 1021 l 240 63 l 342 36 l 342 0 l 28 0 z "},"ĺ":{"ha":369,"x_min":28,"x_max":344,"o":"m 28 0 l 28 33 q 69 51 46 43 q 122 67 92 60 l 138 871 l 64 967 q 148 1006 104 990 q 240 1026 192 1021 l 240 63 l 342 36 l 342 0 l 28 0 z "},"ľ":{"ha":383,"x_min":28,"x_max":418,"o":"m 28 0 l 28 33 q 69 51 46 43 q 122 67 92 60 l 138 871 l 64 967 q 148 1006 104 990 q 240 1026 192 1021 l 240 63 l 342 36 l 342 0 l 28 0 m 333 868 l 308 1101 q 418 1101 364 1110 l 393 868 l 333 868 z "},"ļ":{"ha":369,"x_min":28,"x_max":342,"o":"m 28 0 l 28 33 q 69 51 46 43 q 122 67 92 60 l 138 871 l 64 967 q 148 1006 104 990 q 240 1026 192 1021 l 240 63 l 342 36 l 342 0 l 28 0 m 125 -299 l 149 -151 l 121 -97 q 210 -49 161 -62 q 236 -85 225 -65 q 253 -129 247 -104 q 213 -217 236 -174 q 158 -306 189 -261 l 125 -299 z "},"ŀ":{"ha":433,"x_min":28,"x_max":461,"o":"m 28 0 l 28 33 q 69 51 46 43 q 122 67 92 60 l 138 871 l 64 967 q 148 1006 104 990 q 240 1026 192 1021 l 240 63 l 342 36 l 342 0 l 28 0 z "},"ḷ":{"ha":369,"x_min":28,"x_max":342,"o":"m 28 0 l 28 33 q 69 51 46 43 q 122 67 92 60 l 138 871 l 64 967 q 148 1006 104 990 q 240 1026 192 1021 l 240 63 l 342 36 l 342 0 l 28 0 m 207 -101 q 243 -147 228 -121 q 263 -201 258 -174 q 218 -237 244 -222 q 164 -256 192 -251 q 107 -158 121 -219 q 207 -101 149 -112 z "},"ǉ":{"ha":713,"x_min":28,"x_max":619,"o":"m 28 0 l 28 33 q 69 51 46 43 q 122 67 92 60 l 138 871 l 64 967 q 148 1006 104 990 q 240 1026 192 1021 l 240 63 l 342 36 l 342 0 l 28 0 m 375 -275 l 363 -251 l 482 -81 l 496 535 l 424 626 q 506 665 463 650 q 600 685 550 679 l 600 11 q 541 -159 600 -89 q 375 -275 482 -229 m 561 981 q 599 932 583 960 q 619 875 615 904 q 572 836 600 853 q 515 817 544 819 q 456 921 468 857 q 503 959 475 943 q 561 981 531 975 z "},"ḻ":{"ha":369,"x_min":14,"x_max":354,"o":"m 28 0 l 28 33 q 69 51 46 43 q 122 67 92 60 l 138 871 l 64 967 q 148 1006 104 990 q 240 1026 192 1021 l 240 63 l 342 36 l 342 0 l 28 0 z "},"ł":{"ha":461,"x_min":7,"x_max":468,"o":"m 78 0 l 78 33 q 119 51 96 43 q 172 67 142 60 l 188 871 l 114 967 q 198 1006 154 990 q 290 1026 242 1021 l 290 63 l 392 36 l 392 0 l 78 0 m 43 314 l 7 371 l 432 686 l 468 629 l 43 314 z "},"m":{"ha":1196,"x_min":33,"x_max":1176,"o":"m 33 0 l 33 33 q 75 51 53 43 q 128 67 97 60 l 142 535 l 69 626 q 235 685 147 672 l 244 557 q 322 628 282 597 q 408 681 363 658 q 442 682 424 682 q 564 653 508 682 q 665 564 619 625 q 824 681 735 638 q 856 682 839 682 q 1075 572 985 682 l 1075 63 l 1176 36 l 1176 0 l 864 0 l 864 33 q 903 51 881 43 q 957 67 926 60 l 971 521 q 817 583 900 583 q 660 525 739 583 l 660 63 l 763 36 l 763 0 l 449 0 l 449 33 q 489 51 467 43 q 543 67 511 60 l 557 521 q 403 583 485 583 q 246 525 325 583 l 246 63 l 347 36 l 347 0 l 33 0 z "},"ṃ":{"ha":1196,"x_min":33,"x_max":1176,"o":"m 33 0 l 33 33 q 75 51 53 43 q 128 67 97 60 l 142 535 l 69 626 q 235 685 147 672 l 244 557 q 322 628 282 597 q 408 681 363 658 q 442 682 424 682 q 564 653 508 682 q 665 564 619 625 q 824 681 735 638 q 856 682 839 682 q 1075 572 985 682 l 1075 63 l 1176 36 l 1176 0 l 864 0 l 864 33 q 903 51 881 43 q 957 67 926 60 l 971 521 q 817 583 900 583 q 660 525 739 583 l 660 63 l 763 36 l 763 0 l 449 0 l 449 33 q 489 51 467 43 q 543 67 511 60 l 557 521 q 403 583 485 583 q 246 525 325 583 l 246 63 l 347 36 l 347 0 l 33 0 m 618 -101 q 654 -147 639 -121 q 674 -201 669 -174 q 629 -237 656 -222 q 575 -256 603 -251 q 518 -158 532 -219 q 618 -101 560 -112 z "},"n":{"ha":782,"x_min":33,"x_max":763,"o":"m 33 0 l 33 33 q 75 51 53 43 q 128 67 97 60 l 142 535 l 69 626 q 235 685 147 672 l 244 557 q 322 628 282 597 q 408 681 363 658 q 440 682 424 682 q 660 572 571 682 l 660 63 l 763 36 l 763 0 l 449 0 l 449 33 q 489 51 467 43 q 543 67 511 60 l 557 521 q 403 583 485 583 q 246 525 325 583 l 246 63 l 347 36 l 347 0 l 33 0 z "},"ń":{"ha":782,"x_min":33,"x_max":763,"o":"m 33 0 l 33 33 q 75 51 53 43 q 128 67 97 60 l 142 535 l 69 626 q 235 685 147 672 l 244 557 q 322 628 282 597 q 408 681 363 658 q 440 682 424 682 q 660 572 571 682 l 660 63 l 763 36 l 763 0 l 449 0 l 449 33 q 489 51 467 43 q 543 67 511 60 l 557 521 q 403 583 485 583 q 246 525 325 583 l 246 63 l 347 36 l 347 0 l 33 0 m 296 775 l 275 811 l 513 1007 l 528 1007 l 572 929 q 436 848 506 886 q 296 775 367 810 z "},"ň":{"ha":782,"x_min":33,"x_max":763,"o":"m 33 0 l 33 33 q 75 51 53 43 q 128 67 97 60 l 142 535 l 69 626 q 235 685 147 672 l 244 557 q 322 628 282 597 q 408 681 363 658 q 440 682 424 682 q 660 572 571 682 l 660 63 l 763 36 l 763 0 l 449 0 l 449 33 q 489 51 467 43 q 543 67 511 60 l 557 521 q 403 583 485 583 q 246 525 325 583 l 246 63 l 347 36 l 347 0 l 33 0 m 371 797 l 215 953 l 256 993 l 404 881 l 550 993 l 590 953 l 435 797 l 371 797 z "},"ņ":{"ha":782,"x_min":33,"x_max":763,"o":"m 33 0 l 33 33 q 75 51 53 43 q 128 67 97 60 l 142 535 l 69 626 q 235 685 147 672 l 244 557 q 322 628 282 597 q 408 681 363 658 q 440 682 424 682 q 660 572 571 682 l 660 63 l 763 36 l 763 0 l 449 0 l 449 33 q 489 51 467 43 q 543 67 511 60 l 557 521 q 403 583 485 583 q 246 525 325 583 l 246 63 l 347 36 l 347 0 l 33 0 m 326 -299 l 350 -151 l 322 -97 q 411 -49 363 -62 q 438 -85 426 -65 q 454 -129 449 -104 q 414 -217 438 -174 q 360 -306 390 -261 l 326 -299 z "},"ṅ":{"ha":782,"x_min":33,"x_max":763,"o":"m 33 0 l 33 33 q 75 51 53 43 q 128 67 97 60 l 142 535 l 69 626 q 235 685 147 672 l 244 557 q 322 628 282 597 q 408 681 363 658 q 440 682 424 682 q 660 572 571 682 l 660 63 l 763 36 l 763 0 l 449 0 l 449 33 q 489 51 467 43 q 543 67 511 60 l 557 521 q 403 583 485 583 q 246 525 325 583 l 246 63 l 347 36 l 347 0 l 33 0 m 426 981 q 465 932 449 960 q 485 875 481 904 q 438 836 465 853 q 381 817 410 819 q 321 921 333 857 q 368 959 340 943 q 426 981 396 975 z "},"ṇ":{"ha":782,"x_min":33,"x_max":763,"o":"m 33 0 l 33 33 q 75 51 53 43 q 128 67 97 60 l 142 535 l 69 626 q 235 685 147 672 l 244 557 q 322 628 282 597 q 408 681 363 658 q 440 682 424 682 q 660 572 571 682 l 660 63 l 763 36 l 763 0 l 449 0 l 449 33 q 489 51 467 43 q 543 67 511 60 l 557 521 q 403 583 485 583 q 246 525 325 583 l 246 63 l 347 36 l 347 0 l 33 0 m 408 -101 q 444 -147 429 -121 q 464 -201 460 -174 q 419 -237 446 -222 q 365 -256 393 -251 q 308 -158 322 -219 q 408 -101 350 -112 z "},"ŋ":{"ha":749,"x_min":33,"x_max":647,"o":"m 33 0 l 33 33 q 75 51 53 43 q 128 67 97 60 l 142 535 l 69 626 q 235 685 147 672 l 244 557 q 403 681 314 636 q 435 682 418 682 q 647 572 561 682 l 647 11 q 588 -159 647 -89 q 422 -275 529 -229 l 410 -251 l 529 -81 l 543 521 q 396 583 475 583 q 246 525 321 583 l 246 63 l 347 36 l 347 0 l 33 0 z "},"ǌ":{"ha":1125,"x_min":33,"x_max":1032,"o":"m 33 0 l 33 33 q 75 51 53 43 q 128 67 97 60 l 142 535 l 69 626 q 235 685 147 672 l 244 557 q 322 628 282 597 q 408 681 363 658 q 440 682 424 682 q 660 572 571 682 l 660 63 l 763 36 l 763 0 l 449 0 l 449 33 q 489 51 467 43 q 543 67 511 60 l 557 521 q 403 583 485 583 q 246 525 325 583 l 246 63 l 347 36 l 347 0 l 33 0 m 788 -275 l 775 -251 l 894 -81 l 908 535 l 836 626 q 919 665 875 650 q 1013 685 963 679 l 1013 11 q 953 -159 1013 -89 q 788 -275 894 -229 m 974 981 q 1012 932 996 960 q 1032 875 1028 904 q 985 836 1013 853 q 928 817 957 819 q 868 921 881 857 q 915 959 888 943 q 974 981 943 975 z "},"ṉ":{"ha":782,"x_min":33,"x_max":763,"o":"m 33 0 l 33 33 q 75 51 53 43 q 128 67 97 60 l 142 535 l 69 626 q 235 685 147 672 l 244 557 q 322 628 282 597 q 408 681 363 658 q 440 682 424 682 q 660 572 571 682 l 660 63 l 763 36 l 763 0 l 449 0 l 449 33 q 489 51 467 43 q 543 67 511 60 l 557 521 q 403 583 485 583 q 246 525 325 583 l 246 63 l 347 36 l 347 0 l 33 0 z "},"ñ":{"ha":782,"x_min":33,"x_max":763,"o":"m 33 0 l 33 33 q 75 51 53 43 q 128 67 97 60 l 142 535 l 69 626 q 235 685 147 672 l 244 557 q 322 628 282 597 q 408 681 363 658 q 440 682 424 682 q 660 572 571 682 l 660 63 l 763 36 l 763 0 l 449 0 l 449 33 q 489 51 467 43 q 543 67 511 60 l 557 521 q 403 583 485 583 q 246 525 325 583 l 246 63 l 347 36 l 347 0 l 33 0 m 214 810 l 190 831 q 261 928 236 900 q 303 960 286 957 q 342 958 321 964 l 507 917 l 590 989 l 614 967 q 546 872 571 900 q 503 838 521 843 q 464 839 486 833 l 299 882 l 214 810 z "},"o":{"ha":708,"x_min":53,"x_max":656,"o":"m 344 -12 q 190 30 256 -12 q 89 148 125 72 q 53 325 53 224 q 92 513 53 432 q 199 638 131 593 q 360 683 268 683 q 515 641 449 683 q 619 523 582 599 q 656 346 656 447 q 617 157 656 238 q 508 32 578 76 q 344 -12 438 -12 m 353 63 q 488 135 436 63 q 540 339 540 208 q 489 533 540 464 q 349 603 438 603 q 225 572 294 603 q 168 332 168 460 q 219 134 168 206 q 353 63 271 63 z "},"ó":{"ha":708,"x_min":53,"x_max":656,"o":"m 344 -12 q 190 30 256 -12 q 89 148 125 72 q 53 325 53 224 q 92 513 53 432 q 199 638 131 593 q 360 683 268 683 q 515 641 449 683 q 619 523 582 599 q 656 346 656 447 q 617 157 656 238 q 508 32 578 76 q 344 -12 438 -12 m 353 63 q 488 135 436 63 q 540 339 540 208 q 489 533 540 464 q 349 603 438 603 q 225 572 294 603 q 168 332 168 460 q 219 134 168 206 q 353 63 271 63 m 247 775 l 226 811 l 464 1007 l 479 1007 l 524 929 q 388 848 457 886 q 247 775 318 810 z "},"ŏ":{"ha":708,"x_min":53,"x_max":656,"o":"m 344 -12 q 190 30 256 -12 q 89 148 125 72 q 53 325 53 224 q 92 513 53 432 q 199 638 131 593 q 360 683 268 683 q 515 641 449 683 q 619 523 582 599 q 656 346 656 447 q 617 157 656 238 q 508 32 578 76 q 344 -12 438 -12 m 353 63 q 488 135 436 63 q 540 339 540 208 q 489 533 540 464 q 349 603 438 603 q 225 572 294 603 q 168 332 168 460 q 219 134 168 206 q 353 63 271 63 m 354 804 q 232 848 281 804 q 179 956 183 892 l 242 971 q 280 908 249 932 q 354 883 311 883 q 428 908 397 883 q 465 971 458 932 l 528 956 q 476 848 525 892 q 354 804 426 804 z "},"ǒ":{"ha":708,"x_min":53,"x_max":656,"o":"m 344 -12 q 190 30 256 -12 q 89 148 125 72 q 53 325 53 224 q 92 513 53 432 q 199 638 131 593 q 360 683 268 683 q 515 641 449 683 q 619 523 582 599 q 656 346 656 447 q 617 157 656 238 q 508 32 578 76 q 344 -12 438 -12 m 353 63 q 488 135 436 63 q 540 339 540 208 q 489 533 540 464 q 349 603 438 603 q 225 572 294 603 q 168 332 168 460 q 219 134 168 206 q 353 63 271 63 m 324 797 l 168 953 l 208 993 l 357 881 l 503 993 l 543 953 l 388 797 l 324 797 z "},"ô":{"ha":708,"x_min":53,"x_max":656,"o":"m 344 -12 q 190 30 256 -12 q 89 148 125 72 q 53 325 53 224 q 92 513 53 432 q 199 638 131 593 q 360 683 268 683 q 515 641 449 683 q 619 523 582 599 q 656 346 656 447 q 617 157 656 238 q 508 32 578 76 q 344 -12 438 -12 m 353 63 q 488 135 436 63 q 540 339 540 208 q 489 533 540 464 q 349 603 438 603 q 225 572 294 603 q 168 332 168 460 q 219 134 168 206 q 353 63 271 63 m 407 997 l 561 842 l 521 803 l 374 914 l 228 803 l 188 842 l 342 997 l 407 997 z "},"ố":{"ha":708,"x_min":53,"x_max":656,"o":"m 344 -12 q 190 30 256 -12 q 89 148 125 72 q 53 325 53 224 q 92 513 53 432 q 199 638 131 593 q 360 683 268 683 q 515 641 449 683 q 619 523 582 599 q 656 346 656 447 q 617 157 656 238 q 508 32 578 76 q 344 -12 438 -12 m 353 63 q 488 135 436 63 q 540 339 540 208 q 489 533 540 464 q 349 603 438 603 q 225 572 294 603 q 168 332 168 460 q 219 134 168 206 q 353 63 271 63 m 217 946 l 206 989 l 476 1110 l 492 1104 l 513 1021 q 365 979 439 997 q 217 946 290 961 m 213 761 l 176 797 l 319 922 l 382 922 l 525 797 l 489 761 l 351 846 l 213 761 z "},"ộ":{"ha":708,"x_min":53,"x_max":656,"o":"m 344 -12 q 190 30 256 -12 q 89 148 125 72 q 53 325 53 224 q 92 513 53 432 q 199 638 131 593 q 360 683 268 683 q 515 641 449 683 q 619 523 582 599 q 656 346 656 447 q 617 157 656 238 q 508 32 578 76 q 344 -12 438 -12 m 353 63 q 488 135 436 63 q 540 339 540 208 q 489 533 540 464 q 349 603 438 603 q 225 572 294 603 q 168 332 168 460 q 219 134 168 206 q 353 63 271 63 m 376 -101 q 413 -147 397 -121 q 432 -201 428 -174 q 388 -237 414 -222 q 333 -256 361 -251 q 276 -158 290 -219 q 376 -101 318 -112 m 407 997 l 561 842 l 521 803 l 374 914 l 228 803 l 188 842 l 342 997 l 407 997 z "},"ồ":{"ha":708,"x_min":53,"x_max":656,"o":"m 344 -12 q 190 30 256 -12 q 89 148 125 72 q 53 325 53 224 q 92 513 53 432 q 199 638 131 593 q 360 683 268 683 q 515 641 449 683 q 619 523 582 599 q 656 346 656 447 q 617 157 656 238 q 508 32 578 76 q 344 -12 438 -12 m 353 63 q 488 135 436 63 q 540 339 540 208 q 489 533 540 464 q 349 603 438 603 q 225 572 294 603 q 168 332 168 460 q 219 134 168 206 q 353 63 271 63 m 492 946 q 344 979 418 961 q 196 1021 269 997 l 217 1104 l 231 1110 l 503 989 l 492 946 m 218 761 l 182 797 l 326 922 l 389 922 l 532 797 l 496 761 l 357 846 l 218 761 z "},"ổ":{"ha":708,"x_min":53,"x_max":656,"o":"m 344 -12 q 190 30 256 -12 q 89 148 125 72 q 53 325 53 224 q 92 513 53 432 q 199 638 131 593 q 360 683 268 683 q 515 641 449 683 q 619 523 582 599 q 656 346 656 447 q 617 157 656 238 q 508 32 578 76 q 344 -12 438 -12 m 353 63 q 488 135 436 63 q 540 339 540 208 q 489 533 540 464 q 349 603 438 603 q 225 572 294 603 q 168 332 168 460 q 219 134 168 206 q 353 63 271 63 m 458 888 l 458 914 q 476 953 458 939 q 510 981 493 968 q 528 1011 528 993 q 481 1038 528 1038 q 447 1035 465 1038 q 407 1028 429 1033 l 397 1079 q 445 1090 421 1086 q 492 1093 469 1093 q 576 1074 544 1093 q 607 1022 607 1056 q 585 971 607 989 q 541 939 564 953 q 513 906 518 925 l 507 888 l 458 888 m 217 760 l 176 797 l 324 924 l 388 924 l 535 797 l 496 760 l 354 847 l 217 760 z "}}}
